<?xml version="1.0" encoding="utf-8"?>
<!-- Generator: Adobe Illustrator 26.4.1, SVG Export Plug-In . SVG Version: 6.00 Build 0)  -->
<svg version="1.1" id="uuid-e73bdfe0-5046-4474-8112-d27d497bbaae"
	 xmlns="http://www.w3.org/2000/svg" xmlns:xlink="http://www.w3.org/1999/xlink" x="0px" y="0px" viewBox="0 0 331.9 296.2"
	 style="enable-background:new 0 0 331.9 296.2;" xml:space="preserve">
<circle cx="162" cy="65.8" r="31.7"/>
<rect x="130.3" y="121.7" width="63.4" height="63.4"/>
<rect x="130.3" y="217.6" transform="matrix(0.7071 -0.7071 0.7071 0.7071 -128.8209 187.5648)" width="63.4" height="63.4"/>
<polygon points="323.2,269.1 227.5,269.1 227.5,248.1 302.2,248.1 302.2,172.7 227.5,172.7 227.5,151.7 323.2,151.7 "/>
<polygon points="96.5,173.2 0.8,173.2 0.8,55.3 96.5,55.3 96.5,76.3 21.8,76.3 21.8,152.2 96.5,152.2 "/>
<polygon points="331.9,32.1 299.8,32.1 299.8,0 279,0 279,32.1 246.8,32.1 246.8,53 279,53 279,85.1 299.8,85.1 299.8,53 331.9,53 
	"/>
</svg>
