<?xml version="1.0" encoding="utf-8"?>
<!-- Generator: Adobe Illustrator 26.4.1, SVG Export Plug-In . SVG Version: 6.00 Build 0)  -->
<svg version="1.1" id="uuid-68476ff2-c607-4088-9c08-f5e755816002"
	 xmlns="http://www.w3.org/2000/svg" xmlns:xlink="http://www.w3.org/1999/xlink" x="0px" y="0px" viewBox="0 0 388 357.1"
	 style="enable-background:new 0 0 388 357.1;" xml:space="preserve">
<path d="M236.7,190l12.9,0v-23.2l-12.7,0c-1-3.6-2.4-7.1-4.3-10.4l9-8.9L225.2,131l-9,8.9c-1.7-1-3.3-1.8-5.1-2.5
	c-1.7-0.7-3.5-1.3-5.4-1.8l0-12.5h-23.5l0.1,12.4c-3.6,1-7.1,2.4-10.4,4.2l-8.7-8.7l-16.6,16.3l8.7,8.7c-1,1.6-1.8,3.3-2.5,5
	c-0.7,1.7-1.3,3.5-1.8,5.3l-12.6-0.1v23.2l12.5,0.1c1,3.7,2.4,7.1,4.3,10.4l-9.2,9l16.4,16.5l9.2-9c1.7,1,3.4,1.8,5.1,2.5
	c1.8,0.7,3.5,1.3,5.4,1.8v13.1l23.3,0l0-13c3.7-1,7.2-2.4,10.5-4.3l9.2,9.1l16.6-16.3l-9.2-9.2c0.9-1.6,1.8-3.3,2.5-5
	C235.6,193.6,236.2,191.8,236.7,190L236.7,190z M194,209.2c-17,0-30.7-13.8-30.7-30.7s13.8-30.7,30.7-30.7s30.7,13.8,30.7,30.7
	S211,209.2,194,209.2z"/>
<path d="M363.8,202.6c-9,0-16.8,4.9-20.9,12.1h-40v-72.6h40c4.2,7.2,12,12.1,20.9,12.1c13.4,0,24.2-10.8,24.2-24.2
	s-10.8-24.2-24.2-24.2c-9,0-16.8,4.9-20.9,12.1h-40V69.6h-48.4V36.3h27.4c4.2,7.2,12,12.1,20.9,12.1c13.4,0,24.2-10.8,24.2-24.2
	S316.2,0,302.8,0c-9,0-16.8,4.9-20.9,12.1h-51.5v57.5h-72.7V12.1l0,0v0H106C101.8,4.9,94,0,85.1,0C71.7,0,60.9,10.8,60.9,24.2
	s10.8,24.2,24.2,24.2c9,0,16.8-4.9,20.9-12.1h27.4v33.3H85.2V118h-40c-4.2-7.2-12-12.1-20.9-12.1C10.8,105.9,0,116.7,0,130.1
	s10.8,24.2,24.2,24.2c9,0,16.8-4.9,20.9-12.1h40v72.6h-40c-4.2-7.2-12-12.1-20.9-12.1C10.8,202.6,0,213.5,0,226.8S10.8,251,24.2,251
	c9,0,16.8-4.9,20.9-12.1h40v48.4h48.3v33.5H106c-4.2-7.2-12-12.1-20.9-12.1c-13.4,0-24.2,10.8-24.2,24.2s10.8,24.2,24.2,24.2
	c9,0,16.8-4.9,20.9-12.1h51.6v-24.2h0v-33.5h72.7V345h51.5c4.2,7.2,12,12.1,20.9,12.1c13.4,0,24.2-10.8,24.2-24.2
	s-10.8-24.2-24.2-24.2c-9,0-16.8,4.9-20.9,12.1h-27.4v-33.5h48.4v-48.4h40c4.2,7.2,12,12.1,20.9,12.1c13.4,0,24.2-10.8,24.2-24.2
	S377.1,202.6,363.8,202.6z M278.7,263.1H109.4V93.8h169.3V263.1L278.7,263.1z"/>
</svg>
