<?xml version="1.0" encoding="utf-8"?>
<!-- Generator: Adobe Illustrator 26.4.1, SVG Export Plug-In . SVG Version: 6.00 Build 0)  -->
<svg version="1.1" id="uuid-d42e3042-bf32-4c33-ace6-23f2eda46761"
	 xmlns="http://www.w3.org/2000/svg" xmlns:xlink="http://www.w3.org/1999/xlink" x="0px" y="0px" viewBox="0 0 260.3 363.8"
	 style="enable-background:new 0 0 260.3 363.8;" xml:space="preserve">
<polygon points="260.3,114.7 260.3,235 260.2,235 220.6,275.6 220.6,363.8 109,363.8 109,298.8 29.5,298.8 29.5,233.8 0,233.8 
	0,207.6 0,207.6 28.9,140.9 58.1,140.9 31.1,207.6 55.7,207.6 55.7,233.8 55.7,272.6 135.2,272.6 135.2,337.6 194.4,337.6 
	194.4,264.9 234.1,224.4 234.1,114.7 "/>
<rect x="96.1" y="127.8" width="26.2" height="26.2"/>
<polygon points="164.9,68.6 160.6,43.8 178.7,26.2 153.8,22.6 142.6,0 131.5,22.6 106.6,26.2 124.6,43.8 120.3,68.6 142.6,56.9 "/>
<polygon points="83.3,88.5 79.1,63.6 97.1,46.1 72.2,42.4 61,19.9 49.9,42.4 25,46.1 43,63.6 38.7,88.5 61,76.7 "/>
<polygon points="246.5,88.5 242.2,63.6 260.3,46.1 235.3,42.4 224.2,19.9 213.1,42.4 188.1,46.1 206.2,63.6 201.9,88.5 224.2,76.7 
	"/>
</svg>
