<?xml version="1.0" encoding="utf-8"?>
<!-- Generator: Adobe Illustrator 26.4.1, SVG Export Plug-In . SVG Version: 6.00 Build 0)  -->
<svg version="1.1" id="uuid-b7706c4b-a1d8-49c1-b502-fb9360df9afa"
	 xmlns="http://www.w3.org/2000/svg" xmlns:xlink="http://www.w3.org/1999/xlink" x="0px" y="0px" viewBox="0 0 360.9 247.1"
	 style="enable-background:new 0 0 360.9 247.1;" xml:space="preserve">
<path id="uuid-bec012d9-b912-4ab4-bede-7a2e35f1bf25" d="M289.4,185.3l-17.2-17.2c18.9-26,18.9-61.3,0-87.3l17.2-17.2
	C317.4,99.4,317.4,149.6,289.4,185.3L289.4,185.3z"/>
<path id="uuid-8dbeab5f-e6e6-46ea-97f2-706fd92b2b52" d="M327.4,33.1l-17,17c35.3,43.3,35.3,105.5,0,148.7l17,17
	C372.1,163.2,372.1,85.8,327.4,33.1L327.4,33.1z"/>
<path d="M221.5,0v0.5l-0.2-0.3l-97.5,53.5H0v126.6h47.9l-17.7,66.9l69.6-0.2l18.1-66.7h5.6l97.8,53.6l0.2-0.3v0.2h24.2V0H221.5
	L221.5,0z M81.6,222.8H61.7L73,180.2h19.9L81.6,222.8L81.6,222.8z M156.2,170.6L129.7,156l-0.2,0.3V156H24.2V77.9h105.4v-0.1
	l0.2,0.3l26.5-14.5L156.2,170.6L156.2,170.6z M221.5,206.4l-41.1-22.5V50.2l41.1-22.5V206.4L221.5,206.4z"/>
</svg>
