<?xml version="1.0" encoding="utf-8"?>
<!-- Generator: Adobe Illustrator 26.4.1, SVG Export Plug-In . SVG Version: 6.00 Build 0)  -->
<svg version="1.1" id="uuid-e7c48ea9-77ee-4131-b00d-65386246d08a"
	 xmlns="http://www.w3.org/2000/svg" xmlns:xlink="http://www.w3.org/1999/xlink" x="0px" y="0px" viewBox="0 0 372.6 223.9"
	 style="enable-background:new 0 0 372.6 223.9;" xml:space="preserve">
<path d="M95,115.2v-6.5c0-11,6.5-18,20.4-18s20.4,7,20.4,18v6.5c0,11-6.5,18-20.4,18S95,126.2,95,115.2z M165.8,115.2v-6.5
	c0-11,6.5-18,20.4-18c14,0,20.4,7,20.4,18v6.5c0,11-6.5,18-20.4,18S165.8,126.2,165.8,115.2z M236.6,115.2v-6.5c0-11,6.5-18,20.4-18
	s20.4,7,20.4,18v6.5c0,11-6.5,18-20.4,18S236.6,126.2,236.6,115.2z"/>
<path d="M42.9,223.9c-12.2,0-21.2-7-21.2-22.4v-56.4c0-13.5-8.2-19.7-21.7-19.7V98.5c13.5,0,21.7-6.2,21.7-19.7V22.4
	C21.7,7,30.7,0,42.9,0h26.2v23.9h-17v57.4c0,20.7-11.7,28.9-33.7,28.9v3.5c21.9,0,33.7,8.2,33.7,28.9V200h17v23.9
	C69.1,223.9,42.9,223.9,42.9,223.9z M329.7,0c12.2,0,21.2,7,21.2,22.4v56.4c0,13.5,8.2,19.7,21.7,19.7v26.9
	c-13.5,0-21.7,6.2-21.7,19.7v56.4c0,15.5-9,22.4-21.2,22.4h-26.2V200h17v-57.4c0-20.7,11.7-28.9,33.7-28.9v-3.5
	c-21.9,0-33.7-8.2-33.7-28.9V23.9h-17V0L329.7,0L329.7,0z"/>
</svg>
