<?xml version="1.0" encoding="utf-8"?>
<!-- Generator: Adobe Illustrator 26.4.1, SVG Export Plug-In . SVG Version: 6.00 Build 0)  -->
<svg version="1.1" id="uuid-2e905c1f-18ea-4ad0-9a8b-cecb26e3f6d5"
	 xmlns="http://www.w3.org/2000/svg" xmlns:xlink="http://www.w3.org/1999/xlink" x="0px" y="0px" viewBox="0 0 302.9 311.4"
	 style="enable-background:new 0 0 302.9 311.4;" xml:space="preserve">
<path d="M291.2,115l-34-34h-69.9V45.8l0,0L175.5,34l-34-34H0v230.5h14.7v51.1h51.8l-10,7.9l10.1,12.8l36.8-28.8l-36.7-29.4
	l-10.2,12.7l10.5,8.4H31v-34.8h84.6v81h187.2V126.7l0,0L291.2,115L291.2,115z M134,35.5V17.7h0.1l35.4,35.4v0.1H134L134,35.5
	L134,35.5z M17.7,212.7v-195h98.5V71h53.2v141.8L17.7,212.7L17.7,212.7z M285.1,293.7H133.4v-63.2h53.9V98.7h44.7v53.2h53.2V293.7
	L285.1,293.7z M285.1,134.2h-35.5V98.7h0.1l35.4,35.4V134.2z"/>
<polygon points="212.7,266 229.9,248.8 214.1,233 225.1,221.9 240.9,237.7 258.1,220.5 270.1,232.5 252.9,249.7 268.7,265.5 
	257.6,276.5 241.8,260.7 224.7,277.9 "/>
</svg>
