<?xml version="1.0" encoding="utf-8"?>
<!-- Generator: Adobe Illustrator 26.4.1, SVG Export Plug-In . SVG Version: 6.00 Build 0)  -->
<svg version="1.1" id="uuid-fd4e1fb7-4470-4dc3-b50b-f6f45dc2989e"
	 xmlns="http://www.w3.org/2000/svg" xmlns:xlink="http://www.w3.org/1999/xlink" x="0px" y="0px" viewBox="0 0 292.7 349.4"
	 style="enable-background:new 0 0 292.7 349.4;" xml:space="preserve">
<path d="M146.3,217.6c30.5,0,55.2-24.8,55.2-55.2c0-30.5-24.8-55.2-55.2-55.2s-55.2,24.8-55.2,55.2
	C91.1,192.8,115.9,217.6,146.3,217.6L146.3,217.6z"/>
<polygon points="212.9,349.4 79.8,349.4 79.8,267.4 96.6,244.6 196.1,244.6 212.9,267.4 "/>
<polygon points="20.4,48.3 0,54.4 13,71.2 12.4,92.5 32.5,85.4 52.6,92.5 52,71.2 65,54.4 44.5,48.3 32.5,30.7 "/>
<polygon points="134.3,17.6 113.9,23.6 126.8,40.5 126.3,61.8 146.3,54.7 166.4,61.8 165.8,40.5 178.8,23.6 158.4,17.6 146.3,0 "/>
<polygon points="248.1,48.3 227.7,54.4 240.7,71.2 240.1,92.5 260.2,85.4 280.3,92.5 279.7,71.2 292.7,54.4 272.2,48.3 260.2,30.7 
	"/>
</svg>
