<?xml version="1.0" encoding="utf-8"?>
<!-- Generator: Adobe Illustrator 26.4.1, SVG Export Plug-In . SVG Version: 6.00 Build 0)  -->
<svg version="1.1" id="uuid-a9415486-992a-4bdf-aad0-ce849ad73270"
	 xmlns="http://www.w3.org/2000/svg" xmlns:xlink="http://www.w3.org/1999/xlink" x="0px" y="0px" viewBox="0 0 294 314.4"
	 style="enable-background:new 0 0 294 314.4;" xml:space="preserve">
<path d="M182.8,198.1H48.4v-24.2h134.4V198.1z M182.8,149.7H48.4v-24.2h134.4V149.7z M207,60.5H95.7V36.3H207V60.5z M72.6,60.5H48.4
	V36.3h24.2V60.5z M158.6,246.5H48.4v-24.2h110.2V246.5z"/>
<path d="M276.9,135.4l-21.5,21.5V96.8h0V72.6h0V62.4l0,0V0H0v314.4h255.4V191.1l38.6-38.6L276.9,135.4L276.9,135.4z M231.2,181.1
	l-39.8,39.8l-8.6,25.7l25.7-8.6l22.7-22.7v74.9h-207V96.8h207L231.2,181.1L231.2,181.1z M231.2,72.6h-207V24.2h207L231.2,72.6
	L231.2,72.6z"/>
</svg>
