<?xml version="1.0" encoding="utf-8"?>
<!-- Generator: Adobe Illustrator 26.4.1, SVG Export Plug-In . SVG Version: 6.00 Build 0)  -->
<svg version="1.1" id="uuid-bd21df75-a1bd-42f1-9edc-5481732f1cf4"
	 xmlns="http://www.w3.org/2000/svg" xmlns:xlink="http://www.w3.org/1999/xlink" x="0px" y="0px" viewBox="0 0 355 354"
	 style="enable-background:new 0 0 355 354;" xml:space="preserve">
<path d="M313.9,213.8l41.1,0.1v-74.1l-40.6-0.1c-3.1-11.6-7.7-22.7-13.6-33.1l28.7-28.3L277,25.6l-28.7,28.3c-5.3-3-10.7-5.7-16.1-8
	c-5.5-2.3-11.2-4.3-17.1-5.9l0.1-40h-74.9l0.2,39.6c-11.6,3.1-22.8,7.6-33.3,13.5L79.4,25.3l-53,52.1l27.8,27.9
	c-3,5.2-5.7,10.6-8,16c-2.3,5.4-4.3,11.1-5.9,16.9L0,138v74.1l39.8,0.2c3.1,11.7,7.7,22.8,13.6,33.2l-29.3,28.8L76.5,327l29.3-28.8
	c5.3,3.1,10.8,5.8,16.2,8c5.6,2.3,11.3,4.3,17.1,5.9V354l74.5,0l0-41.4c11.7-3.1,22.9-7.7,33.4-13.6l29.3,29.1l53-52L300,246.8
	c3-5.1,5.7-10.5,8-16C310.3,225.3,312.3,219.6,313.9,213.8L313.9,213.8z M177.5,275.1c-54.2,0-98.1-43.9-98.1-98.1
	s43.9-98.1,98.1-98.1s98.1,43.9,98.1,98.1S231.7,275.1,177.5,275.1L177.5,275.1z"/>
</svg>
