<?xml version="1.0" encoding="utf-8"?>
<!-- Generator: Adobe Illustrator 26.4.1, SVG Export Plug-In . SVG Version: 6.00 Build 0)  -->
<svg version="1.1" id="uuid-73e784a3-de6a-4d8c-8818-64fc1f86f731"
	 xmlns="http://www.w3.org/2000/svg" xmlns:xlink="http://www.w3.org/1999/xlink" x="0px" y="0px" viewBox="0 0 321.2 321.2"
	 style="enable-background:new 0 0 321.2 321.2;" xml:space="preserve">
<path d="M202.7,154.5l19.9,0.1v-35.9l-19.7,0c-1.5-5.6-3.7-11-6.6-16.1l13.9-13.7l-25.4-25.5L170.9,77c-2.6-1.5-5.2-2.8-7.8-3.9
	c-2.7-1.1-5.4-2.1-8.3-2.8l0.1-19.4h-36.3l0.1,19.2c-5.6,1.5-11,3.7-16.1,6.6L89.1,63.1L63.4,88.4l13.5,13.5
	c-1.5,2.5-2.8,5.1-3.9,7.8c-1.1,2.6-2.1,5.4-2.9,8.2l-19.5-0.1v35.9l19.3,0.1c1.5,5.6,3.7,11,6.6,16.1l-14.2,14l25.4,25.5l14.2-14
	c2.6,1.5,5.2,2.8,7.9,3.9c2.7,1.1,5.5,2.1,8.3,2.8v20.3l36.1,0l0-20.1c5.7-1.5,11.1-3.7,16.2-6.6l14.2,14.1l25.7-25.2L196,170.4
	c1.5-2.5,2.8-5.1,3.9-7.8C201,160,201.9,157.3,202.7,154.5L202.7,154.5z M136.6,184.2c-26.2,0-47.5-21.3-47.5-47.5
	s21.3-47.5,47.5-47.5s47.5,21.3,47.5,47.5S162.9,184.2,136.6,184.2z"/>
<path d="M248.9,214.6c15.9-22.7,24.4-49.7,24.4-78c0-36.5-14.2-70.8-40-96.6c-25.8-25.8-60.1-40-96.6-40S65.8,14.2,40,40
	C14.2,65.8,0,100.1,0,136.6s14.2,70.8,40,96.6c25.8,25.8,60.1,40,96.6,40c28.3,0,55.3-8.6,78-24.4l72.3,72.3l34.2-34.2L248.9,214.6
	L248.9,214.6z M136.6,249.1c-62.1,0-112.4-50.3-112.4-112.4S74.5,24.2,136.6,24.2s112.5,50.3,112.5,112.4S198.7,249.1,136.6,249.1z"
	/>
</svg>
