<?xml version="1.0" encoding="utf-8"?>
<!-- Generator: Adobe Illustrator 26.4.1, SVG Export Plug-In . SVG Version: 6.00 Build 0)  -->
<svg version="1.1" id="uuid-3b06ba1d-8f1b-4b84-b272-12c882129f2f"
	 xmlns="http://www.w3.org/2000/svg" xmlns:xlink="http://www.w3.org/1999/xlink" x="0px" y="0px" viewBox="0 0 270.8 379.8"
	 style="enable-background:new 0 0 270.8 379.8;" xml:space="preserve">
<path d="M105.1,378H33.5v-19.8l31.1-26.6c11.3-9.7,15.2-15.4,15.2-23.9v-2c0-7.7-6.8-11.6-13.3-11.6c-9.6,0-14.2,6.5-16.2,14.2
	l-19-7.2c4.5-14,16.2-25.8,37.2-25.8c21.9,0,34.5,12.9,34.5,30.4c0,17.4-12.5,28-26.9,39.4l-18.8,14.8h47.8L105.1,378L105.1,378z
	 M121.9,368.1v-2.9c0-6.7,4.1-11.6,12.7-11.6s12.7,4.9,12.7,11.6v2.9c0,6.7-4.1,11.6-12.7,11.6S121.9,374.7,121.9,368.1z
	 M200.5,275.2c-26.5,0-39,19.3-39,52.3c0,33,12.5,52.3,39,52.3s39-19.3,39-52.3C239.5,294.5,227,275.2,200.5,275.2z M215.8,337.1
	c0,15.4-3.8,24.3-15.4,24.3s-15.4-9-15.4-24.3v-19.1c0-15.4,3.8-24.3,15.4-24.3s15.4,9,15.4,24.3V337.1L215.8,337.1z"/>
<path d="M239.5,163.1l31.3,0.1v-56.6l-31-0.1c-2.4-8.9-5.9-17.3-10.4-25.3l21.9-21.6l-40-40.2l-21.9,21.6c-4-2.3-8.1-4.4-12.3-6.1
	c-4.2-1.7-8.6-3.3-13.1-4.5L164.1,0H107l0.2,30.2c-8.9,2.4-17.4,5.8-25.4,10.3L60.6,19.3L20.1,59l21.2,21.3c-2.3,4-4.4,8.1-6.1,12.2
	c-1.7,4.1-3.2,8.4-4.5,12.9L0,105.3v56.5l30.4,0.2c2.4,8.9,5.9,17.4,10.4,25.3l-22.4,22l40,40.2l22.3-22c4.1,2.3,8.2,4.4,12.4,6.1
	c4.3,1.8,8.6,3.3,13,4.5V270l56.8,0l0-31.6c9-2.4,17.5-5.8,25.5-10.4l22.3,22.2l40.4-39.7l-22.4-22.3c2.3-3.9,4.3-8,6.1-12.2
	C236.7,171.9,238.2,167.5,239.5,163.1L239.5,163.1z M135.4,209.9c-41.3,0-74.8-33.5-74.8-74.8s33.5-74.8,74.8-74.8
	s74.8,33.5,74.8,74.8S176.7,209.9,135.4,209.9z"/>
</svg>
