<?xml version="1.0" encoding="utf-8"?>
<!-- Generator: Adobe Illustrator 26.4.1, SVG Export Plug-In . SVG Version: 6.00 Build 0)  -->
<svg version="1.1" id="uuid-47b226ec-3e32-41e8-a613-61462adfe4d9"
	 xmlns="http://www.w3.org/2000/svg" xmlns:xlink="http://www.w3.org/1999/xlink" x="0px" y="0px" viewBox="0 0 337 377.9"
	 style="enable-background:new 0 0 337 377.9;" xml:space="preserve">
<path d="M235.5,309.7l20,0.1v-36.1l-19.8,0c-1.5-5.6-3.7-11-6.6-16.1l14-13.8l-25.5-25.6l-14,13.8c-2.6-1.5-5.2-2.8-7.9-3.9
	c-2.7-1.1-5.5-2.1-8.3-2.9l0.1-16.6l0-2.8H151l0,1.6l0.1,17.7c-5.7,1.5-11.1,3.7-16.2,6.6l-13.5-13.6l-25.8,25.4l13.5,13.6
	c-1.5,2.5-2.8,5.1-3.9,7.8c-1.1,2.6-2.1,5.4-2.9,8.2L84,272.8l-1.2,0v36l2.6,0l16.8,0.1c1.5,5.7,3.7,11.1,6.6,16.2l-14.3,14
	l25.5,25.6l14.3-14c2.6,1.5,5.2,2.8,7.9,3.9c2.7,1.1,5.5,2.1,8.3,2.9v20.4l36.2,0l0-20.2c5.7-1.5,11.1-3.7,16.3-6.6l14.3,14.2
	l25.8-25.3l-14.3-14.2c1.5-2.5,2.8-5.1,3.9-7.8C233.8,315.3,234.7,312.5,235.5,309.7L235.5,309.7z M169.1,339.5
	c-26.4,0-47.7-21.4-47.7-47.7s21.4-47.7,47.7-47.7s47.7,21.4,47.7,47.7S195.5,339.5,169.1,339.5L169.1,339.5z"/>
<polygon points="289.1,88.9 289.1,125.9 181.6,125.9 181.6,88.9 156.6,88.9 156.6,125.9 49.1,125.9 49.1,89.9 25.1,89.9 25.1,149.9 
	34.1,149.9 49.1,149.9 157.1,149.9 157.1,183.9 181.1,183.9 181.1,149.9 289.1,149.9 311.1,149.9 313.1,149.9 313.1,88.9 "/>
<circle cx="169.1" cy="36.4" r="36.4"/>
<circle cx="300.6" cy="36.4" r="36.4"/>
<circle cx="36.4" cy="36.4" r="36.4"/>
</svg>
