<?xml version="1.0" encoding="utf-8"?>
<!-- Generator: Adobe Illustrator 26.4.1, SVG Export Plug-In . SVG Version: 6.00 Build 0)  -->
<svg version="1.1" id="uuid-b494bcd2-6a08-4687-a24b-fb7607110337"
	 xmlns="http://www.w3.org/2000/svg" xmlns:xlink="http://www.w3.org/1999/xlink" x="0px" y="0px" viewBox="0 0 340.4 279.7"
	 style="enable-background:new 0 0 340.4 279.7;" xml:space="preserve">
<path d="M73.9,96.8H49.7V72.6h24.2V96.8z M122.3,72.6H98.1v24.2h24.2V72.6z M170.7,72.6h-24.2v24.2h24.2V72.6z M73.9,121H49.7v24.2
	h24.2V121z M122.3,121H98.1v24.2h24.2V121z M170.7,121h-24.2v24.2h24.2V121z M73.9,167.8H49.7v24.2h24.2V167.8z M122.3,167.8H98.1
	v24.2h24.2V167.8z M170.7,167.8h-24.2v24.2h24.2V167.8z"/>
<polygon points="303.6,190.5 285.4,174.4 261.2,203.7 247.7,192.2 232.2,210.7 264.3,237.8 "/>
<path d="M313.1,149.7L313.1,149.7L313.1,149.7z"/>
<path d="M310.4,147.6L310.4,147.6L310.4,147.6z"/>
<path d="M307.5,145.6L307.5,145.6L307.5,145.6z"/>
<path d="M304.5,143.8L304.5,143.8L304.5,143.8z"/>
<path d="M315.8,152L315.8,152l0-152H0v264.5h224.5l0,0c12.1,9.1,27.1,14.4,43.4,14.4c40.1,0,72.5-32.5,72.5-72.5
	C340.4,184.7,330.9,165.3,315.8,152L315.8,152z M203.8,240.3H24.2V48.4h267.5v89.5l0,0c-7.4-2.6-15.4-4-23.8-4
	c-40.1,0-72.5,32.5-72.5,72.5C195.4,218.7,198.4,230.2,203.8,240.3L203.8,240.3z M267.9,254.7c-26.7,0-48.3-21.7-48.3-48.3
	s21.7-48.3,48.3-48.3c26.7,0,48.4,21.7,48.4,48.3S294.6,254.7,267.9,254.7L267.9,254.7z"/>
</svg>
