<?xml version="1.0" encoding="utf-8"?>
<!-- Generator: Adobe Illustrator 26.4.1, SVG Export Plug-In . SVG Version: 6.00 Build 0)  -->
<svg version="1.1" id="uuid-a49354ac-75f2-498c-a458-4be4fe749e62"
	 xmlns="http://www.w3.org/2000/svg" xmlns:xlink="http://www.w3.org/1999/xlink" x="0px" y="0px" viewBox="0 0 315.8 263.4"
	 style="enable-background:new 0 0 315.8 263.4;" xml:space="preserve">
<polygon points="218.7,141.6 195.9,148.3 210.4,167.2 209.7,191 232.1,183 254.6,191 253.9,167.2 268.4,148.3 245.6,141.6 
	232.1,121.9 "/>
<path d="M99.1,167.8h24.2v24.2H99.1V167.8L99.1,167.8z M50.7,167.8h24.2v24.2H50.7V167.8L50.7,167.8z M50.7,72.6h24.2v24.2H50.7
	V72.6z M99.1,121h24.2v24.2H99.1V121z M50.7,121h24.2v24.2H50.7V121z M147.5,121h24.2v24.2h-24.2L147.5,121L147.5,121z M147.5,72.6
	h24.2v24.2h-24.2L147.5,72.6L147.5,72.6z M147.5,167.8h24.2v24.2h-24.2L147.5,167.8L147.5,167.8z M99.1,72.6h24.2v24.2H99.1V72.6z
	 M244.2,72.6h24.2v24.2h-24.2V72.6z M195.9,72.6h24.2v24.2h-24.2L195.9,72.6L195.9,72.6z"/>
<path d="M315.8,34.2V-0.5H0V264l315.8,0L315.8,34.2L315.8,34.2z M291.6,239.8H24.2V47.8h267.5v89.5l0,0V239.8L291.6,239.8z"/>
</svg>
