<?xml version="1.0" encoding="utf-8"?>
<!-- Generator: Adobe Illustrator 26.4.1, SVG Export Plug-In . SVG Version: 6.00 Build 0)  -->
<svg version="1.1" id="uuid-51cf3305-a273-4e47-a40d-0355a296f338"
	 xmlns="http://www.w3.org/2000/svg" xmlns:xlink="http://www.w3.org/1999/xlink" x="0px" y="0px" viewBox="0 0 433.8 433.8"
	 style="enable-background:new 0 0 433.8 433.8;" xml:space="preserve">
<style type="text/css">
	.st0{fill:#FFFFFF;}
</style>
<path d="M59.3,0h315.3c32.7,0,59.3,26.5,59.3,59.3v315.3c0,32.7-26.5,59.3-59.3,59.3H59.3C26.5,433.8,0,407.3,0,374.6V59.3
	C0,26.5,26.5,0,59.3,0z"/>
<path class="st0" d="M214.4,351.8c-14.9,0-28-1.9-39.3-5.7c-11.3-3.8-20.9-9-28.5-15.6c-7.7-6.6-13.5-14.4-17.6-23.4
	c-4-9-6-18.8-6-29.3c0-17.1,4.7-30.8,14.1-41.2c9.4-10.4,21.8-17.6,37.1-21.8V212c-13.2-4.6-23.7-12-31.7-22
	c-7.9-10-11.9-22.3-11.9-37c0-9.8,1.9-18.7,5.7-26.7c3.8-8.1,9.2-14.9,16.3-20.7c7.1-5.7,15.9-10.2,26.3-13.4
	c10.5-3.2,22.3-4.8,35.5-4.8s25,1.6,35.5,4.8c10.5,3.2,19.3,7.6,26.3,13.4c7.1,5.7,12.5,12.6,16.3,20.7c3.8,8.1,5.7,17,5.7,26.7
	c0,14.6-4,27-11.9,37c-7.9,10-18.5,17.3-31.7,22v2.9c15.4,4.2,27.8,11.4,37.1,21.8c9.4,10.4,14.1,24.1,14.1,41.2
	c0,10.5-2,20.3-6,29.3c-4,9-9.9,16.8-17.6,23.4c-7.7,6.6-17.2,11.8-28.5,15.6C242.4,349.9,229.3,351.8,214.4,351.8L214.4,351.8z
	 M214.4,318.5c15.4,0,27.3-3.5,35.7-10.6c8.4-7.1,12.6-17,12.6-29.6v-7.3c0-12.7-4.2-22.6-12.6-29.6c-8.4-7.1-20.3-10.6-35.7-10.6
	s-27.3,3.5-35.7,10.6c-8.4,7.1-12.6,17-12.6,29.6v7.3c0,12.7,4.2,22.6,12.6,29.6C187.1,315,199,318.5,214.4,318.5L214.4,318.5z
	 M214.4,198.8c14.1,0,24.9-3,32.4-9.1c7.4-6.1,11.2-15,11.2-26.7v-6.2c0-11.7-3.7-20.6-11.2-26.7c-7.4-6.1-18.2-9.1-32.4-9.1
	s-24.9,3.1-32.4,9.1c-7.4,6.1-11.2,15-11.2,26.7v6.2c0,11.7,3.7,20.6,11.2,26.7C189.5,195.8,200.3,198.8,214.4,198.8L214.4,198.8z"
	/>
</svg>
