<?xml version="1.0" encoding="utf-8"?>
<!-- Generator: Adobe Illustrator 26.4.1, SVG Export Plug-In . SVG Version: 6.00 Build 0)  -->
<svg version="1.1" id="uuid-6078bdce-9bf9-4e25-8f0d-0f0f04ba6913"
	 xmlns="http://www.w3.org/2000/svg" xmlns:xlink="http://www.w3.org/1999/xlink" x="0px" y="0px" viewBox="0 0 255.4 314.4"
	 style="enable-background:new 0 0 255.4 314.4;" xml:space="preserve">
<path d="M0,0v314.4h255.4V0H0z M231.2,290.2h-207v-266h207L231.2,290.2L231.2,290.2z"/>
<path d="M96.8,246.4v-24.2H207v24.2L96.8,246.4L96.8,246.4z M96.8,198v-24.2h55.1V198H96.8L96.8,198z M96.8,149.7v-24.2H207v24.2
	H96.8L96.8,149.7z M96.8,101.3V77.1H207v24.2H96.8L96.8,101.3z"/>
<path d="M48.4,101.3V77.1h24.2v24.2H48.4z M48.4,149.7v-24.2h24.2v24.2H48.4z M48.4,198v-24.2h24.2V198H48.4z M48.4,246.4v-24.2
	h24.2v24.2L48.4,246.4L48.4,246.4z"/>
</svg>
