<?xml version="1.0" encoding="utf-8"?>
<!-- Generator: Adobe Illustrator 26.4.1, SVG Export Plug-In . SVG Version: 6.00 Build 0)  -->
<svg version="1.1" id="uuid-fa17b992-3ffe-4306-8208-2d875c5dc535"
	 xmlns="http://www.w3.org/2000/svg" xmlns:xlink="http://www.w3.org/1999/xlink" x="0px" y="0px" viewBox="0 0 321 170.5"
	 style="enable-background:new 0 0 321 170.5;" xml:space="preserve">
<path d="M317.3,12.2c-39.6,15.6-59.4,50.1-66.5,65.4h-15.5l-2.7-25c-0.3-2.5-3.9-2.5-4.2,0l-2.7,25h-26.4l-5.3-48.4
	c-0.3-2.5-3.9-2.5-4.2,0l-5.3,48.4h-27.9l-7.9-71.8c-0.3-2.5-3.9-2.5-4.2,0l-7.9,71.8h-25V7.4c0-4.4-3.8-7.8-8.1-7.4
	C53.3,5-1.5,53.5-1.5,85.3c0,31.7,54.9,80.4,105,85.2c4.3,0.4,8-3,8-7.4V92.8h25l7.9,71.8c0.3,2.5,3.9,2.5,4.2,0l7.9-71.8h27.9
	l5.3,48.4c0.3,2.5,3.9,2.5,4.2,0l5.3-48.4h26.4l2.7,25c0.3,2.5,3.9,2.5,4.2,0l2.7-25h15.5c7.1,15.3,26.9,49.8,66.5,65.4
	c2.1,0.8,4.3-1.2,3.6-3.3l-18.5-60.3c-1.9-6.1-1.9-12.6,0-18.8l18.5-60.3C321.6,13.4,319.4,11.4,317.3,12.2L317.3,12.2z M63.2,70.4
	c-7,0-12.7-5.7-12.7-12.7s5.7-12.7,12.7-12.7s12.7,5.7,12.7,12.7S70.2,70.4,63.2,70.4z"/>
</svg>
