<?xml version="1.0" encoding="utf-8"?>
<!-- Generator: Adobe Illustrator 26.4.1, SVG Export Plug-In . SVG Version: 6.00 Build 0)  -->
<svg version="1.1" id="uuid-331cd1b7-1b37-4a64-9ade-0efe36d3d4fd"
	 xmlns="http://www.w3.org/2000/svg" xmlns:xlink="http://www.w3.org/1999/xlink" x="0px" y="0px" viewBox="0 0 388 206.2"
	 style="enable-background:new 0 0 388 206.2;" xml:space="preserve">
<style type="text/css">
	.st0{fill:#FC5D0D;}
</style>
<path d="M385.9,143.2h0.1L340.8,42.7h-0.1c0-0.1-0.1-0.3-0.1-0.4C332.1,13.3,260.7,0,194,0S55.9,13.3,47.4,42.3
	c-0.1,0.1-0.1,0.3-0.1,0.4h-0.1L2,143.2h0.1c-1.4,2.7-2.1,5.6-2.1,8.6c0,16.3,21.3,29.8,63.2,40.3c36.7,9.1,83.1,14.1,130.8,14.1
	s94.1-5,130.8-14.1c42-10.4,63.2-24,63.2-40.3C388,148.8,387.3,145.9,385.9,143.2L385.9,143.2z M280.7,61.9
	c-23.1,6.1-53.9,9.4-86.7,9.4s-63.6-3.3-86.7-9.4C83.9,55.8,78.1,49.4,78,48.2c0.1-0.7,1.9-3,7.5-5.9c4.5-2.4,11.4-5.1,21.8-7.9
	c23.1-6.1,53.9-9.4,86.7-9.4s63.6,3.3,86.7,9.4c10.5,2.7,17.4,5.5,21.9,7.9c5.6,2.9,7.4,5.2,7.5,5.9
	C309.8,49.4,304.1,55.8,280.7,61.9L280.7,61.9z"/>
<path class="st0" d="M165.8,179.8c2.2,0.2,4.1-1.5,4.1-3.7V141h12.5l4,36.6c0.1,1.1,1.8,1.1,1.9,0l4-36.6h13.9l2.7,24.9
	c0.1,1.1,1.8,1.1,1.9,0l2.7-24.9h13.2l1.5,13.2c0.1,1.1,1.8,1.1,1.9,0l1.5-13.2h7.8c3.6,7.7,13.6,25.2,33.7,32.9
	c0.9,0.3,1.8-0.5,1.5-1.4l-9.1-29.5c-1.2-3.8-1.2-7.9,0-11.7l9.1-29.5c0.3-0.9-0.6-1.7-1.5-1.4c-20.1,7.7-30.2,25.2-33.7,32.9h-7.8
	l-1.5-13.2c-0.1-1.1-1.8-1.1-1.9,0l-1.5,13.2h-13.2l-2.7-24.9c-0.1-1.1-1.8-1.1-1.9,0l-2.7,24.9h-13.9l-4-36.6
	c-0.1-1.1-1.8-1.1-1.9,0l-4,36.6h-12.5V98.3c0-2.2-1.9-3.9-4.1-3.7c-25.1,2.5-52.5,26.7-52.5,42.6S140.7,177.4,165.8,179.8
	L165.8,179.8z M145.7,117.1c3.5,0,6.3,2.8,6.3,6.3s-2.8,6.3-6.3,6.3s-6.3-2.8-6.3-6.3S142.2,117.1,145.7,117.1z"/>
</svg>
