<?xml version="1.0" encoding="utf-8"?>
<!-- Generator: Adobe Illustrator 26.4.1, SVG Export Plug-In . SVG Version: 6.00 Build 0)  -->
<svg version="1.1" id="uuid-952e2d6d-e08f-40fb-b1e0-266029012c75"
	 xmlns="http://www.w3.org/2000/svg" xmlns:xlink="http://www.w3.org/1999/xlink" x="0px" y="0px" viewBox="0 0 395.2 340.2"
	 style="enable-background:new 0 0 395.2 340.2;" xml:space="preserve">
<g>
	<circle cx="36.4" cy="170.1" r="36.4"/>
	<circle cx="358.8" cy="170.1" r="36.4"/>
	<rect x="100.7" y="133.7" width="72.9" height="72.9"/>
	<rect x="211" y="133.7" transform="matrix(0.7071 -0.7071 0.7071 0.7071 -47.8263 224.7697)" width="72.9" height="72.9"/>
</g>
<path d="M44.1,247c15.8,31.2,41.2,57.7,74.2,74.5l5.6-13.4c-29.3-15.2-52-38.9-66.4-66.7L44.1,247L44.1,247z M148.7,21.8
	c30-9.6,63-10.1,94.7,0.1L249,8.5c-35.4-11.7-72.3-11-105.8-0.1L148.7,21.8L148.7,21.8z M148.2,318.3l-5.6,13.4
	c35.2,11.6,71.9,11,105.2,0.3l-5.5-13.4C212.4,328,179.7,328.4,148.2,318.3L148.2,318.3z M267.6,32.1c29.5,15.3,52.4,39.2,66.7,67.2
	l13.4-5.5c-15.8-31.5-41.3-58.2-74.5-75.1C273.2,18.6,267.6,32.1,267.6,32.1z M312.2,273.4c-13,14.6-28.5,26.5-45.6,35.3l5.5,13.4
	c20.5-10.3,39-24.8,54.1-42.8c7.9-9.5,14.9-19.9,20.8-31.3l-13.4-5.6C327.7,253.8,320.4,264.1,312.2,273.4L312.2,273.4z M79.4,66.9
	c12.8-14.5,28.1-26.3,45-35l-5.5-13.4C98.5,28.7,80.3,43.1,65.3,61C57.2,70.7,50,81.4,44.1,93.1l13.4,5.6C63.6,87,71,76.4,79.4,66.9
	L79.4,66.9z"/>
</svg>
