<?xml version="1.0" encoding="utf-8"?>
<!-- Generator: Adobe Illustrator 26.4.1, SVG Export Plug-In . SVG Version: 6.00 Build 0)  -->
<svg version="1.1" id="uuid-31d9d085-127c-4a13-ab49-9d6be22f4715"
	 xmlns="http://www.w3.org/2000/svg" xmlns:xlink="http://www.w3.org/1999/xlink" x="0px" y="0px" viewBox="0 0 255.4 314.4"
	 style="enable-background:new 0 0 255.4 314.4;" xml:space="preserve">
<path d="M193,0H0v314.4h255.4V62.4l0,0V0L193,0L193,0z M231.2,290.2h-207v-266h207L231.2,290.2L231.2,290.2z"/>
<polygon points="115.5,218.6 97.3,202.6 73.2,231.8 59.7,220.3 44.2,238.9 76.2,266 "/>
<polygon points="115.5,148.8 97.3,132.8 73.2,162 59.7,150.5 44.2,169 76.2,196.1 "/>
<polygon points="115.5,78.8 97.3,62.8 73.2,92 59.7,80.5 44.2,99.1 76.2,126.2 "/>
<path d="M207,106.6h-67.2V82.4H207V106.6z M207,176.6h-67.2v-24.2H207V176.6z M207,246.5h-67.2v-24.2H207V246.5z"/>
</svg>
