<?xml version="1.0" encoding="utf-8"?>
<!-- Generator: Adobe Illustrator 26.4.1, SVG Export Plug-In . SVG Version: 6.00 Build 0)  -->
<svg version="1.1" id="uuid-1c279ab3-2427-45f2-b905-474bafefdeec"
	 xmlns="http://www.w3.org/2000/svg" xmlns:xlink="http://www.w3.org/1999/xlink" x="0px" y="0px" viewBox="0 0 255.4 324.5"
	 style="enable-background:new 0 0 255.4 324.5;" xml:space="preserve">
<path d="M194.6,34.1V21h-35V5.7c0-3.1-2.5-5.7-5.7-5.7h-52.7c-3.1,0-5.7,2.5-5.7,5.7V21H60.8v13.1H0v290.4h255.4V96.5l0,0V34.1
	H194.6L194.6,34.1z M231.2,300.3h-207v-242h36.6V69h133.8V58.3h36.6L231.2,300.3L231.2,300.3z"/>
<path d="M147.2,141h57.2v-20.5h-57.2V141z M147.2,244h57.2v-20.5h-57.2V244z"/>
<path d="M85,173.6c-21.5,0-39-17.5-39-39s17.5-39,39-39c6.1,0,12,1.4,17.4,4.1l-4.5,8.9c-4-2-8.4-3-13-3c-16,0-29,13-29,29
	s13,29,29,29s29-13,29-29c0-1.1-0.1-2.2-0.2-3.3l9.9-1.1c0.2,1.5,0.2,2.9,0.2,4.4C124,156.1,106.5,173.6,85,173.6L85,173.6z
	 M85,276.6c-21.5,0-39-17.5-39-39s17.5-39,39-39c6.1,0,12,1.4,17.4,4.1l-4.5,8.9c-4-2-8.4-3-13-3c-16,0-29,13-29,29s13,29,29,29
	s29-13,29-29c0-1.1-0.1-2.2-0.2-3.3l9.9-1.1c0.2,1.5,0.2,2.9,0.2,4.4C124,259.1,106.5,276.6,85,276.6L85,276.6z"/>
<path d="M89.8,151.6L65.2,131l8.6-10.2l14.3,12L116.4,99l10.2,8.6L89.8,151.6L89.8,151.6z M89.8,254.6L65.2,234l8.6-10.2l14.3,12
	l28.4-33.8l10.2,8.6L89.8,254.6L89.8,254.6z"/>
</svg>
