<?xml version="1.0" encoding="utf-8"?>
<!-- Generator: Adobe Illustrator 26.4.1, SVG Export Plug-In . SVG Version: 6.00 Build 0)  -->
<svg version="1.1" id="uuid-76a6b3ad-6338-4859-a2a9-b3d6c6b9d7c5"
	 xmlns="http://www.w3.org/2000/svg" xmlns:xlink="http://www.w3.org/1999/xlink" x="0px" y="0px" viewBox="0 0 324.1 292.7"
	 style="enable-background:new 0 0 324.1 292.7;" xml:space="preserve">
<path d="M-0.4,0v292h324.5V0H-0.4z M21.5,21.9h232.6v24.7H21.5L21.5,21.9L21.5,21.9z M302.2,270.1H21.5V68.5h280.7L302.2,270.1
	L302.2,270.1z M302.2,46.6H276V21.9h26.2V46.6z"/>
<path d="M235,148.6c-5.1-19.5-22.8-33.9-43.8-33.9c-3.4,0-6.7,0.4-9.8,1.1c-6.7-9.7-17.2-16.7-29.3-18.8c-2.6-0.5-5.3-0.8-8.1-0.8
	c-6.6,0-12.9,1.5-18.6,4c-14.1,6.3-24.3,19.6-26.3,35.5c-19.3,2.5-35.3,15.9-41.6,33.7c-1.9,5.3-2.9,11.1-2.9,17
	c0,2.4,0.2,4.8,0.6,7.2c3.5,24.9,24.8,44.1,50.7,44.1h117.7c25,0,45.3-20.3,45.3-45.3C268.9,171.3,254.5,153.6,235,148.6L235,148.6z
	"/>
</svg>
