<?xml version="1.0" encoding="utf-8"?>
<!-- Generator: Adobe Illustrator 26.4.1, SVG Export Plug-In . SVG Version: 6.00 Build 0)  -->
<svg version="1.1" id="uuid-680c2627-bd68-42da-8769-71347edef651"
	 xmlns="http://www.w3.org/2000/svg" xmlns:xlink="http://www.w3.org/1999/xlink" x="0px" y="0px" viewBox="0 0 399.2 287.5"
	 style="enable-background:new 0 0 399.2 287.5;" xml:space="preserve">
<path d="M78.9,210.9c0,3.6,0.3,7.2,0.8,10.7c-0.4-0.2-0.9-0.5-1.3-0.7l-21.7,21.4l-38.9-39l21.7-21.4c-4.4-7.7-7.8-16-10.1-24.6
	L0,157.1v-54.9l29.8,0.2c1.2-4.3,2.7-8.6,4.4-12.5c1.7-4,3.7-8,6-11.9L19.6,57.3l39.2-38.6l20.6,20.6c7.8-4.4,16-7.7,24.7-10
	L103.9,0h55.5l-0.1,29.6c4.4,1.2,8.6,2.7,12.7,4.3c4.1,1.7,8.1,3.7,12,5.9l21.3-21l38.8,39l-19.4,19.2c-3.9-0.7-7.9-1.2-12-1.2
	c-9.9,0-19.3,2.2-27.7,6c-13.3-14.4-32.2-23.5-53.4-23.5c-40.1,0-72.7,32.5-72.7,72.7c0,21.6,9.5,41,24.5,54.3
	C80.5,193.4,78.9,202,78.9,210.9L78.9,210.9z"/>
<path d="M348.6,154.3c-7.6-29.1-34-50.6-65.5-50.6c-5,0-9.9,0.6-14.7,1.6c-10-14.6-25.7-24.9-43.7-28.2c-3.9-0.7-7.9-1.2-12-1.2
	c-9.9,0-19.3,2.2-27.7,6c-21,9.5-36.4,29.3-39.4,53.1c-28.9,3.8-52.7,23.7-62.1,50.5c-2.8,8-4.4,16.5-4.4,25.5
	c0,3.6,0.3,7.2,0.8,10.7c5.2,37.2,37.1,65.9,75.7,65.9h176c37.4,0,67.7-30.3,67.7-67.7C399.2,188.3,377.7,161.9,348.6,154.3
	L348.6,154.3z"/>
</svg>
