<?xml version="1.0" encoding="utf-8"?>
<!-- Generator: Adobe Illustrator 26.4.1, SVG Export Plug-In . SVG Version: 6.00 Build 0)  -->
<svg version="1.1" id="uuid-cbe35853-4e61-41a1-8c71-bb7d213a1852"
	 xmlns="http://www.w3.org/2000/svg" xmlns:xlink="http://www.w3.org/1999/xlink" x="0px" y="0px" viewBox="0 0 382.9 253"
	 style="enable-background:new 0 0 382.9 253;" xml:space="preserve">
<path d="M322.4,93.7c-9-34.8-40.7-60.5-78.3-60.5c-6,0-11.9,0.7-17.5,1.9c-12-17.4-30.7-29.8-52.3-33.7c-4.7-0.8-9.5-1.4-14.4-1.4
	c-11.8,0-23,2.6-33.2,7.2c-25.1,11.3-43.5,35.1-47.1,63.5C45,75.2,16.6,99,5.3,131C1.9,140.5,0,150.7,0,161.4c0,4.4,0.4,8.6,1,12.8
	C7.2,218.7,45.3,253,91.6,253H302c44.7,0,80.9-36.2,80.9-80.9C382.9,134.4,357.2,102.8,322.4,93.7L322.4,93.7z M143.5,137.7
	l-20.1,12.1l20.1,12.1v29L93,158.7v-17.8l50.5-32.2V137.7L143.5,137.7z M179.9,199.6h-26.4l37.2-98.1h26.4L179.9,199.6L179.9,199.6z
	 M278.6,158.7l-50.5,32.2v-29l20.1-12.1l-20.1-12.1v-29l50.5,32.2V158.7L278.6,158.7z"/>
</svg>
