<?xml version="1.0" encoding="utf-8"?>
<!-- Generator: Adobe Illustrator 26.4.1, SVG Export Plug-In . SVG Version: 6.00 Build 0)  -->
<svg version="1.1" id="uuid-75021d42-85bd-425f-8d73-04f2b1a759f6"
	 xmlns="http://www.w3.org/2000/svg" xmlns:xlink="http://www.w3.org/1999/xlink" x="0px" y="0px" viewBox="0 0 321.1 299.3"
	 style="enable-background:new 0 0 321.1 299.3;" xml:space="preserve">
<path d="M289.3,253.7c6.4-9.2,9.9-20.1,9.9-31.6c0-11.3-3.4-22.2-9.7-31.3V0H0v269h214.6c8.7,5.5,18.8,8.4,29.3,8.4
	c11.4,0,22.4-3.5,31.6-9.9l31.8,31.8l13.8-13.8L289.3,253.7z M241.4,21.9h26.2v24.7h-26.2V21.9z M21.9,21.9h197.6v24.7H21.9
	L21.9,21.9L21.9,21.9z M194.6,247.1H21.9V68.5h245.7v103.7c-7.3-3.5-15.3-5.3-23.7-5.3c-14.8,0-28.6,5.7-39.1,16.2
	c-10.4,10.4-16.2,24.3-16.2,39.1C188.6,231,190.7,239.5,194.6,247.1L194.6,247.1z M243.9,261.2c-21.6,0-39-17.5-39-39s17.5-39,39-39
	s39,17.5,39,39S265.5,261.2,243.9,261.2z"/>
<polygon points="118.8,191.8 140,191.8 170,112.7 148.8,112.7 "/>
<path d="M178.8,114.5v23.4l16.2,9.8l-16.2,9.8v23.4l40.7-26v-14.4L178.8,114.5L178.8,114.5z M70,154.9l40.7,26v-23.4l-16.2-9.8
	l16.2-9.8v-23.4l-40.7,26V154.9L70,154.9z"/>
</svg>
