<?xml version="1.0" encoding="utf-8"?>
<!-- Generator: Adobe Illustrator 26.4.1, SVG Export Plug-In . SVG Version: 6.00 Build 0)  -->
<svg version="1.1" id="uuid-2777020b-8a6f-4f62-ad82-543470d7f36e"
	 xmlns="http://www.w3.org/2000/svg" xmlns:xlink="http://www.w3.org/1999/xlink" x="0px" y="0px" viewBox="0 0 273.5 328"
	 style="enable-background:new 0 0 273.5 328;" xml:space="preserve">
<style type="text/css">
	.st0{fill:#888B8D;}
</style>
<path class="st0" d="M273.5,200.6l-1.3-4l-1.3-4l-1.8-3.6l-2.2-3.6l-2.7-3.1l-2.7-2.7l-3.6-2.2l-2.7-1.3l-3.1-0.9l-2.7-0.9l-3.1-0.4
	l-3.1-0.4l-3.1,0.4l-3.1,0.4l-3.1,0.4l-6.3,2.2l-6.3,3.1l-6.3,4l-5.8,5.4v-28.3H0v94.2l0.4,7.6l0.9,7.2l1.8,6.7l2.7,6.7l2.7,6.3
	l4,6.3l4,5.4l4.5,5.4l5.4,4.5l5.4,4.5l6.3,3.6l6.3,3.1l6.7,2.2l6.7,1.8l7.2,0.9l7.6,0.4h70l6.3-0.9l5.8-1.3l5.8-1.8l5.4-2.2l5.4-2.7
	l4.9-2.7l4.9-3.6l4.5-4l4-4l4-4.5l3.1-4.9l3.1-4.9l2.7-5.4l2.2-5.4l1.8-5.8l2.7,0.9l3.1,0.9l2.7,0.4h6.3l3.1-0.4l6.3-1.8l6.3-2.2
	l5.8-4l5.8-4.5l5.8-5.4l4.9-6.3l4.5-7.2l2.7-4.9l2.2-4.9l1.8-4.9l1.8-5.4l0.9-4.9l0.4-4.5v-9.4L273.5,200.6L273.5,200.6z
	 M259.2,215.4l-1.3,7.2l-2.7,7.2l-3.6,7.2l-4.5,6.7l-4.9,5.8l-5.4,4.5l-5.4,3.6l-2.7,1.3l-3.1,1.3l-2.7,0.4l-2.7,0.4l-2.7,0.4
	l-2.2-0.4l-2.2-0.9l-2.2-0.9l-1.8-0.9v-45.3l0.4-0.4l3.6-5.4l3.6-4.9l4.5-4l4-3.6l4.5-2.7l4.5-2.2l4.5-1.3l4-0.4l4,0.4l2.2,0.9
	l1.8,0.9l1.8,1.3l1.8,1.8l1.8,1.8l0.9,2.2l1.3,2.7l0.4,2.7l0.4,3.1l0.4,3.1L259.2,215.4L259.2,215.4z"/>
<path class="st0" d="M132.1,87.1c-1.4,10.3-9.2,16.2-9.2,16.3c-2.3,1.6-2.8,4.8-1.1,7c1,1.4,2.5,2.1,4.1,2.1c1,0,2.1-0.3,2.9-1
	c0.5-0.3,11.3-8.3,13.3-22.9c1.6-11.4-2.6-23.3-12.3-35.5c-7.9-9.9-11.3-19.2-10.2-27.7c1.3-10.2,9.1-16.1,9.2-16.3
	c2.2-1.6,2.7-4.8,1.1-7c-1.6-2.3-4.8-2.8-7-1.1c-0.5,0.3-11.3,8.3-13.3,22.9c-1.6,11.4,2.6,23.3,12.3,35.5
	C129.8,69.3,133.3,78.6,132.1,87.1L132.1,87.1z"/>
<path class="st0" d="M93.3,118.3c-0.9,7.3-6.5,11.5-6.5,11.5c-2.3,1.6-2.8,4.8-1.1,7c1,1.4,2.5,2.1,4.1,2.1c1,0,2.1-0.3,2.9-1
	c0.4-0.3,9-6.6,10.6-18.2c1.2-9-2-18.3-9.6-27.8c-5.8-7.2-8.3-14-7.5-20.1c0.9-7.2,6.4-11.4,6.5-11.5c2.2-1.6,2.7-4.8,1.1-7
	c-1.6-2.3-4.8-2.8-7-1.1c-0.4,0.3-9,6.6-10.6,18.2c-1.2,9,2,18.3,9.6,27.8C91.6,105.4,94.1,112.2,93.3,118.3L93.3,118.3z"/>
</svg>
