<?xml version="1.0" encoding="utf-8"?>
<!-- Generator: Adobe Illustrator 26.4.1, SVG Export Plug-In . SVG Version: 6.00 Build 0)  -->
<svg version="1.1" id="uuid-d0837642-0c62-4a56-9b77-946fb6055553"
	 xmlns="http://www.w3.org/2000/svg" xmlns:xlink="http://www.w3.org/1999/xlink" x="0px" y="0px" viewBox="0 0 380 380"
	 style="enable-background:new 0 0 380 380;" xml:space="preserve">
<polygon points="300.9,202.2 300.6,200.1 299.5,198 298.8,196.2 297.4,194.8 296,193.4 294.6,192.3 293.2,191.6 291.4,190.9 
	288.2,190.5 285,190.9 281.5,191.9 277.9,193.7 274.4,195.8 271.2,198.7 267.6,201.9 264.8,205.8 262,210 261.6,210.4 261.6,243.7 
	261.6,246.2 263,246.9 264.8,247.6 266.6,248.3 268.3,248.7 270.5,248.3 272.6,247.9 274.7,247.6 277.2,246.5 279.3,245.5 
	283.6,242.6 287.8,239.1 291.7,234.5 295.3,229.2 298.1,223.5 300.2,217.8 301.3,212.1 301.7,207.2 301.3,204.7 "/>
<path d="M190,0C85.1,0,0,85.1,0,190s85.1,190,190,190s190-85.1,190-190S294.9,0,190,0z M183.1,60.7c1.6-11.6,10.1-17.9,10.5-18.1
	c1.8-1.3,4.3-0.9,5.6,0.9c1.3,1.8,0.9,4.3-0.9,5.5c-0.2,0.1-6.3,4.8-7.3,12.9c-0.9,6.7,1.8,14.1,8.1,21.9c7.7,9.6,11,19.1,9.7,28.1
	c-1.6,11.6-10.1,17.9-10.5,18.1c-0.7,0.5-1.5,0.8-2.3,0.8c-1.2,0-2.4-0.6-3.2-1.6c-1.3-1.8-0.9-4.3,0.9-5.6c0,0,6.2-4.7,7.3-12.9
	c0.9-6.7-1.8-14.1-8.1-21.9C185.1,79.2,181.9,69.7,183.1,60.7L183.1,60.7z M156.7,97.5c1.3-9.2,8.1-14.2,8.3-14.4
	c1.8-1.3,4.3-0.9,5.6,0.9c1.3,1.8,0.9,4.2-0.9,5.5c-0.1,0.1-4.4,3.4-5.2,9.1c-0.6,4.8,1.4,10.2,5.9,15.9c6,7.5,8.5,14.9,7.6,22
	c-1.3,9.2-8.1,14.2-8.3,14.4c-0.7,0.5-1.5,0.8-2.3,0.8c-1.2,0-2.4-0.6-3.2-1.6c-1.3-1.8-0.9-4.3,0.9-5.6c0,0,4.4-3.3,5.1-9.1
	c0.6-4.8-1.4-10.2-5.9-15.9C158.3,112,155.7,104.5,156.7,97.5L156.7,97.5z M313,207.5v3.9l-0.4,3.5l-0.7,3.9l-1.4,4.3l-1.4,3.9
	l-1.8,3.9l-2.1,3.9l-3.5,5.7l-3.9,5l-4.6,4.3l-4.6,3.5l-4.6,3.2l-5,1.8l-5,1.4l-2.5,0.4h-5l-2.1-0.4l-2.5-0.7l-2.1-0.7l-1.4,4.6
	l-1.8,4.3l-2.1,4.3l-2.5,3.9l-2.5,3.9l-3.2,3.5l-3.2,3.2l-3.5,3.2l-3.9,2.8l-3.9,2.1l-4.3,2.1l-4.3,1.8l-4.6,1.4l-4.6,1.1l-5,0.7
	h-55.3l-6-0.4l-5.7-0.7l-5.3-1.4l-5.3-1.8l-5-2.5l-5-2.8l-4.3-3.5l-4.3-3.5l-3.5-4.3l-3.2-4.3l-3.2-5l-2.1-5l-2.1-5.3l-1.4-5.3
	l-0.7-5.7l-0.4-6v-74.4h165.2v22.3l4.6-4.3l5-3.2l5-2.5l5-1.8l2.5-0.4l2.5-0.4l2.5-0.4l2.5,0.4l2.5,0.4l2.1,0.7l2.5,0.7l2.1,1.1
	l2.8,1.8l2.1,2.1l2.1,2.5l1.8,2.8l1.4,2.8l1.1,3.2l1.1,3.2l0.4,3.5L313,207.5L313,207.5z"/>
</svg>
