<?xml version="1.0" encoding="utf-8"?>
<!-- Generator: Adobe Illustrator 26.4.1, SVG Export Plug-In . SVG Version: 6.00 Build 0)  -->
<svg version="1.1" id="uuid-d4db0cd2-0b12-4a6c-b445-5c0daedcd628"
	 xmlns="http://www.w3.org/2000/svg" xmlns:xlink="http://www.w3.org/1999/xlink" x="0px" y="0px" viewBox="0 0 380 380"
	 style="enable-background:new 0 0 380 380;" xml:space="preserve">
<style type="text/css">
	.st0{fill:#FFC600;}
</style>
<circle cx="190" cy="190" r="190"/>
<g>
	<path class="st0" d="M312.6,199.9l-1.1-3.2l-1.1-3.2l-1.4-2.8l-1.8-2.8l-2.1-2.5l-2.1-2.1l-2.8-1.8l-2.1-1.1l-2.5-0.7l-2.1-0.7
		l-2.5-0.4l-2.5-0.4l-2.5,0.4l-2.5,0.4l-2.5,0.4l-5,1.8l-4.9,2.5l-4.9,3.2l-4.6,4.2v-22.3H97V243l0.4,6l0.7,5.7l1.4,5.3l2.1,5.3
		l2.1,4.9l3.2,5l3.2,4.2l3.5,4.2l4.2,3.5l4.2,3.5l4.9,2.8l4.9,2.5l5.3,1.8l5.3,1.4l5.7,0.7l6,0.4h55.1l4.9-0.7l4.6-1.1l4.6-1.4
		l4.2-1.8l4.2-2.1l3.9-2.1l3.9-2.8l3.5-3.2l3.2-3.2l3.2-3.5l2.5-3.9l2.5-3.9l2.1-4.2l1.8-4.2l1.4-4.6l2.1,0.7l2.5,0.7l2.1,0.4h4.9
		l2.5-0.4l4.9-1.4l4.9-1.8l4.6-3.2l4.6-3.5l4.6-4.2l3.9-4.9l3.5-5.7l2.1-3.9l1.8-3.9l1.4-3.9l1.4-4.2l0.7-3.9l0.4-3.5v-7.4
		L312.6,199.9L312.6,199.9z M301.3,211.6l-1.1,5.7l-2.1,5.7l-2.8,5.7l-3.5,5.3l-3.9,4.6l-4.2,3.5l-4.2,2.8l-2.1,1.1l-2.5,1.1
		l-2.1,0.4l-2.1,0.4l-2.1,0.4l-1.8-0.4l-1.8-0.7l-1.8-0.7l-1.4-0.7v-35.7l0.4-0.4l2.8-4.2l2.8-3.9l3.5-3.2l3.2-2.8l3.5-2.1l3.5-1.8
		l3.5-1.1l3.2-0.4l3.2,0.4l1.8,0.7l1.4,0.7l1.4,1.1l1.4,1.4l1.4,1.4l0.7,1.8l1.1,2.1l0.4,2.1l0.4,2.5l0.4,2.5L301.3,211.6
		L301.3,211.6z"/>
	<path class="st0" d="M201.2,110.4c-1.1,8.1-7.2,12.8-7.3,12.8c-1.8,1.3-2.2,3.8-0.9,5.5c0.8,1.1,2,1.6,3.2,1.6
		c0.8,0,1.6-0.2,2.3-0.8c0.4-0.3,8.9-6.5,10.5-18.1c1.2-9-2-18.4-9.7-28c-6.2-7.8-8.9-15.2-8.1-21.9c1.1-8.1,7.1-12.7,7.3-12.8
		c1.8-1.3,2.2-3.8,0.9-5.5c-1.3-1.8-3.8-2.2-5.5-0.9c-0.4,0.3-8.9,6.5-10.5,18.1c-1.2,9,2,18.4,9.7,28
		C199.4,96.3,202.1,103.7,201.2,110.4L201.2,110.4z"/>
	<path class="st0" d="M170.6,134.9c-0.7,5.8-5.1,9.1-5.1,9.1c-1.8,1.3-2.2,3.8-0.9,5.5c0.8,1.1,2,1.6,3.2,1.6c0.8,0,1.6-0.2,2.3-0.8
		c0.3-0.2,7.1-5.2,8.3-14.3c1-7.1-1.6-14.4-7.5-21.9c-4.5-5.7-6.5-11-5.9-15.8c0.7-5.7,5-9,5.1-9.1c1.8-1.3,2.1-3.8,0.9-5.5
		c-1.3-1.8-3.8-2.2-5.5-0.9c-0.3,0.2-7.1,5.2-8.3,14.3c-1,7.1,1.6,14.4,7.5,21.9C169.2,124.8,171.2,130.1,170.6,134.9L170.6,134.9z"
		/>
</g>
</svg>
