<?xml version="1.0" encoding="utf-8"?>
<!-- Generator: Adobe Illustrator 26.4.1, SVG Export Plug-In . SVG Version: 6.00 Build 0)  -->
<svg version="1.1" id="uuid-18b56312-195f-43f9-b512-3af8a88d79b0"
	 xmlns="http://www.w3.org/2000/svg" xmlns:xlink="http://www.w3.org/1999/xlink" x="0px" y="0px" viewBox="0 0 256.1 379.1"
	 style="enable-background:new 0 0 256.1 379.1;" xml:space="preserve">
<path d="M0,91.9c3.3-11.2,12.6-21.4,30.1-21.4c17.7,0,29.2,10.4,29.2,26c0,15.9-12.2,24.7-24.7,26.9v11.7H20.7v-20.6
	c14.3-0.5,23.2-5.4,23.2-16.6v-1.9c0-8.8-5.7-13-14.3-13c-9.2,0-14.9,5.8-17,13.8L0,91.9 M20.7,152.2h13.9v13.9H20.7V152.2z"/>
<path d="M102.1,21.4C105.4,10.2,114.7,0,132.3,0c17.7,0,29.2,10.4,29.2,26c0,15.9-12.2,24.7-24.7,26.9v11.7h-13.9V44.1
	c14.3-0.5,23.2-5.4,23.2-16.6v-1.9c0-8.8-5.7-13-14.3-13c-9.2,0-14.9,5.8-17,13.8L102.1,21.4 M122.8,81.6h13.9v13.9h-13.9
	L122.8,81.6L122.8,81.6z"/>
<path d="M196.8,100.3c3.3-11.2,12.6-21.4,30.1-21.4c17.7,0,29.2,10.4,29.2,26c0,15.9-12.2,24.7-24.7,26.9v11.7h-13.9V123
	c14.3-0.5,23.2-5.4,23.2-16.6v-1.9c0-8.8-5.7-13-14.3-13c-9.2,0-14.9,5.8-17,13.8L196.8,100.3 M217.5,160.6h13.9v13.9h-13.9V160.6z"
	/>
<path d="M130.2,247.3c30.5,0,55.2-24.8,55.2-55.2s-24.8-55.2-55.2-55.2S75,161.6,75,192.1S99.8,247.3,130.2,247.3L130.2,247.3z"/>
<polygon points="196.8,379.1 63.7,379.1 63.7,297.1 80.5,274.3 180,274.3 196.8,297.1 "/>
</svg>
