<?xml version="1.0" encoding="utf-8"?>
<!-- Generator: Adobe Illustrator 26.4.1, SVG Export Plug-In . SVG Version: 6.00 Build 0)  -->
<svg version="1.1" id="uuid-235e6872-7dbe-4948-b9e5-18128242952e"
	 xmlns="http://www.w3.org/2000/svg" xmlns:xlink="http://www.w3.org/1999/xlink" x="0px" y="0px" viewBox="0 0 395.2 95.9"
	 style="enable-background:new 0 0 395.2 95.9;" xml:space="preserve">
<path d="M358.8,11.5c-15.7,0-29.1,10-34.2,23.9h-80.7C238.4,15,219.7,0,197.6,0s-40.8,15-46.3,35.4H70.7
	c-5.1-14-18.5-23.9-34.2-23.9C16.3,11.5,0,27.8,0,47.9s16.3,36.4,36.4,36.4c15.7,0,29.1-10,34.2-23.9h80.7
	c5.5,20.4,24.2,35.4,46.3,35.4s40.8-15,46.3-35.4h80.7c5.1,14,18.5,23.9,34.2,23.9c20.1,0,36.4-16.3,36.4-36.4
	S378.9,11.5,358.8,11.5L358.8,11.5z M197.6,72.9c-13.8,0-24.9-11.2-24.9-24.9S183.9,23,197.6,23s24.9,11.2,24.9,24.9
	C222.6,61.7,211.4,72.9,197.6,72.9L197.6,72.9z"/>
</svg>
