<?xml version="1.0" encoding="utf-8"?>
<!-- Generator: Adobe Illustrator 26.4.1, SVG Export Plug-In . SVG Version: 6.00 Build 0)  -->
<svg version="1.1" id="uuid-814da52a-c919-4462-aea3-fc3a8dd8223f"
	 xmlns="http://www.w3.org/2000/svg" xmlns:xlink="http://www.w3.org/1999/xlink" x="0px" y="0px" viewBox="0 0 358.1 357.9"
	 style="enable-background:new 0 0 358.1 357.9;" xml:space="preserve">
<path d="M323.2,177.6c-15.8,0-29.7-7.7-38.4-19.5c-8.7,4.1-18.4,6.4-28.7,6.4c-37,0-67.1-30-67.1-67.1c0-9.9,2.2-19.3,6-27.7
	c-12.6-8.5-20.9-23-20.9-39.4c0-11.6,4.1-22.2,11-30.4c-2-0.1-4.1-0.1-6.1-0.1C80.2-0.1,0,80.1,0,179S80.2,358,179.1,358
	S358.1,277.8,358.1,179c0-5.4-0.3-10.7-0.7-16C348.8,172,336.6,177.6,323.2,177.6L323.2,177.6z M63.9,156.6
	c0-16.6,13.5-30.1,30.1-30.1s30.1,13.5,30.1,30.1s-13.5,30.1-30.1,30.1S63.9,173.2,63.9,156.6L63.9,156.6z M109.7,265
	c-10.4,0-18.7-8.4-18.7-18.7s8.4-18.7,18.7-18.7s18.7,8.4,18.7,18.7S120,265,109.7,265z M133.3,108.1c0-8.6,7-15.7,15.7-15.7
	s15.7,7,15.7,15.7s-7,15.7-15.7,15.7S133.3,116.7,133.3,108.1z M174.1,199.3c-8.6,0-15.7-7-15.7-15.7s7-15.7,15.7-15.7
	s15.7,7,15.7,15.7C189.8,192.3,182.8,199.3,174.1,199.3L174.1,199.3z M221.7,283.7c-14,0-25.3-11.3-25.3-25.3s11.3-25.3,25.3-25.3
	s25.3,11.3,25.3,25.3S235.6,283.7,221.7,283.7z"/>
<circle cx="236.5" cy="26.6" r="14.9"/>
<circle cx="251.4" cy="102.4" r="15.3"/>
<circle cx="324.9" cy="120" r="9.1"/>
</svg>
