<?xml version="1.0" encoding="utf-8"?>
<!-- Generator: Adobe Illustrator 26.4.1, SVG Export Plug-In . SVG Version: 6.00 Build 0)  -->
<svg version="1.1" id="uuid-22224717-ff90-465b-b1dc-a82fdef8e902"
	 xmlns="http://www.w3.org/2000/svg" xmlns:xlink="http://www.w3.org/1999/xlink" x="0px" y="0px" viewBox="0 0 378 378"
	 style="enable-background:new 0 0 378 378;" xml:space="preserve">
<path d="M189,56.7v18.9l37.8-37.8L189,0v18.9c-66.1,0-124.7,37.8-151.2,94.5l34,17C92.6,86.9,138,56.7,189,56.7z"/>
<path d="M189,321.3v-18.9l-37.8,37.8L189,378v-18.9c66.2,0,124.7-37.8,151.2-94.5l-34-17C285.4,291.1,240,321.3,189,321.3L189,321.3
	z"/>
<path d="M56.7,189h18.9l-37.8-37.8L0,189h18.9c0,66.2,37.8,124.7,94.5,151.2l17-34C86.9,285.4,56.7,240,56.7,189z"/>
<path d="M359.1,189c0-66.2-37.8-124.7-94.5-151.2l-17,34c43.5,20.8,73.7,66.2,73.7,117.2h-18.9l37.8,37.8L378,189H359.1L359.1,189z"
	/>
<circle cx="189" cy="189" r="75.6"/>
</svg>
