<?xml version="1.0" encoding="utf-8"?>
<!-- Generator: Adobe Illustrator 26.4.1, SVG Export Plug-In . SVG Version: 6.00 Build 0)  -->
<svg version="1.1" id="uuid-1915d6c4-9cfe-46ad-bd5c-751ede097035"
	 xmlns="http://www.w3.org/2000/svg" xmlns:xlink="http://www.w3.org/1999/xlink" x="0px" y="0px" viewBox="0 0 282.4 328.7"
	 style="enable-background:new 0 0 282.4 328.7;" xml:space="preserve">
<path d="M155.9,186.8c-4.9,0.2-9.8,0.2-14.7,0.2s-9.8-0.1-14.8-0.2c-41.5-1.1-74.5-7-98.3-15.3c-9.9-3.1-19.4-7.6-28.1-13.3v53.1
	c16.1,16.8,70,32.3,141.2,32.3s125.1-15.5,141.2-32.3v-53.1c-8.8,5.7-18.4,10.2-28.4,13.4C230.2,179.8,197.3,185.6,155.9,186.8
	L155.9,186.8z"/>
<path d="M0,84.1v53.1c14.9,15.5,62.3,30,125.9,32h2c1.9,0,3.7,0.1,5.6,0.1H149c1.9,0,3.7-0.1,5.6-0.1h2c63.6-2,111-16.5,125.9-32
	V84.1c-27.5,18.9-85.6,28.9-141.2,28.9S27.5,103,0,84.1L0,84.1z"/>
<path d="M281.6,48.2C275.3,23.9,226.6,0,141.2,0C56,0,7.4,23.8,0.8,48.1C0.3,48.9,0,49.8,0,50.8v13.1c16,16.7,69.6,32.2,141.2,32.2
	s125.2-15.4,141.2-32.2v-13C282.4,49.9,282.1,49,281.6,48.2L281.6,48.2z"/>
<path d="M0,231.5v46.3c0,0.9,0.2,1.8,0.7,2.5c6.7,27.7,66.3,48.3,140.5,48.3s133.6-20.5,140.5-48.1c0.5-0.8,0.7-1.8,0.7-2.7v-46.3
	c-23.3,16.4-71.5,29.4-141.2,29.4S23.3,248,0,231.5L0,231.5z"/>
</svg>
