<?xml version="1.0" encoding="utf-8"?>
<!-- Generator: Adobe Illustrator 26.4.1, SVG Export Plug-In . SVG Version: 6.00 Build 0)  -->
<svg version="1.1" id="uuid-a4bcc775-703e-4186-b4ff-7418d5ced313"
	 xmlns="http://www.w3.org/2000/svg" xmlns:xlink="http://www.w3.org/1999/xlink" x="0px" y="0px" viewBox="0 0 332 298.5"
	 style="enable-background:new 0 0 332 298.5;" xml:space="preserve">
<path d="M292.4,194.6c-2,4.6-4.2,9.2-6.8,13.5l24.8,24.7l-44.7,43.9l-24.7-24.6c-8.9,5-18.3,8.8-28.2,11.5l0,34.9l-35.8,0v-66.7
	c1.8,0.1,3.6,0.2,5.4,0.2c45.7,0,82.7-37,82.7-82.7s-37-82.7-82.7-82.7c-1.8,0-3.6,0.1-5.4,0.2V0h37.1l0,4.9L214,33.7
	c5,1.4,9.8,3,14.4,5c4.6,1.9,9.2,4.2,13.6,6.8l24.2-23.9L310.5,66l-24.2,23.9c5,8.8,8.8,18.2,11.5,27.9l34.3,0.1v62.5l-34.6-0.1
	C296,185.2,294.4,190,292.4,194.6L292.4,194.6z"/>
<path d="M113.3,91.4v43.7H157V91.4H113.3z M149.6,127.6h-28.8V98.8h28.8V127.6z M113.3,165.7v43.7H157v-43.7H113.3z M149.6,201.9
	h-28.8v-28.8h28.8V201.9z M58.5,131.3V175h43.7v-43.7L58.5,131.3L58.5,131.3z M94.8,167.6H66v-28.8h28.8V167.6z"/>
<path d="M157,17.1h-43.7v43.7H157V17.1z M102.2,57H58.5v43.7h43.7V57z M102.2,205.7H58.5v43.7h43.7V205.7z M43.7,91.4H0v43.7h43.7
	V91.4z M43.7,165.7H0v43.7h43.7V165.7z M157,240h-43.7v43.7H157V240z"/>
</svg>
