<?xml version="1.0" encoding="utf-8"?>
<!-- Generator: Adobe Illustrator 26.4.1, SVG Export Plug-In . SVG Version: 6.00 Build 0)  -->
<svg version="1.1" id="uuid-d425d3b0-d23e-4744-838b-8657bfb9db26"
	 xmlns="http://www.w3.org/2000/svg" xmlns:xlink="http://www.w3.org/1999/xlink" x="0px" y="0px" viewBox="0 0 388.5 206.1"
	 style="enable-background:new 0 0 388.5 206.1;" xml:space="preserve">
<style type="text/css">
	.st0{fill:#00A7B5;}
</style>
<path d="M386.4,143.1h0.1L341.3,42.6h-0.1c0-0.1-0.1-0.3-0.1-0.4c-8.5-29-79.9-42.3-146.6-42.3S56.4,13.2,47.9,42.2
	c-0.1,0.1-0.1,0.3-0.1,0.4h-0.1L2.5,143.1h0.1c-1.4,2.7-2.1,5.6-2.1,8.6c0,16.3,21.3,29.8,63.2,40.3c36.7,9.1,83.1,14.1,130.8,14.1
	s94.1-5,130.8-14.1c42-10.4,63.2-24,63.2-40.3C388.5,148.6,387.8,145.8,386.4,143.1L386.4,143.1z M281.2,61.8
	c-23.1,6.1-53.9,9.4-86.7,9.4s-63.6-3.3-86.7-9.4C84.4,55.6,78.6,49.3,78.5,48c0.1-0.7,1.9-3,7.5-5.9c4.5-2.4,11.4-5.1,21.8-7.9
	c23.1-6.1,53.9-9.4,86.7-9.4s63.6,3.3,86.7,9.4c10.5,2.7,17.4,5.5,21.9,7.9c5.6,2.9,7.4,5.2,7.5,5.9
	C310.3,49.3,304.6,55.7,281.2,61.8L281.2,61.8z"/>
<path class="st0" d="M122.7,154.7c0,12.5,10.2,22.7,22.7,22.7s22.7-10.2,22.7-22.7c0-0.3,0-0.7,0-1h52.8c0,0.3,0,0.6,0,1
	c0,12.5,10.2,22.7,22.7,22.7s22.7-10.2,22.7-22.7c0-8.3-4.5-15.6-11.2-19.5c6.7-3.9,11.2-11.2,11.2-19.5c0-12.5-10.2-22.7-22.7-22.7
	s-22.7,10.2-22.7,22.7c0,0.3,0,0.7,0,1h-52.8c0-0.3,0-0.6,0-1c0-12.5-10.2-22.7-22.7-22.7s-22.7,10.2-22.7,22.7
	c0,8.3,4.5,15.6,11.2,19.5C127.2,139.1,122.7,146.3,122.7,154.7z"/>
</svg>
