<?xml version="1.0" encoding="utf-8"?>
<!-- Generator: Adobe Illustrator 26.4.1, SVG Export Plug-In . SVG Version: 6.00 Build 0)  -->
<svg version="1.1" id="uuid-0275be2a-85a6-4c93-aebd-75dc97e4d3ce"
	 xmlns="http://www.w3.org/2000/svg" xmlns:xlink="http://www.w3.org/1999/xlink" x="0px" y="0px" viewBox="0 0 294.8 170"
	 style="enable-background:new 0 0 294.8 170;" xml:space="preserve">
<style type="text/css">
	.st0{fill:#00A7B5;}
</style>
<path class="st0" d="M273.2,88.6l-6.1-3.6l6.1-3.6c13.5-8,21.6-22,21.6-37.6C294.8,19.6,275.2,0,251,0s-43.7,19.6-43.7,43.7
	c0,0.4,0,0.9,0,1.4l0.2,4.9H87.2l0.2-5c0-0.4,0-0.9,0-1.3C87.5,19.6,67.9,0,43.7,0S0,19.6,0,43.7c0,15.6,8.1,29.7,21.6,37.6l6.1,3.6
	l-6.1,3.6C8.1,96.6,0,110.7,0,126.3C0,150.4,19.6,170,43.7,170s43.7-19.6,43.7-43.7c0-0.4,0-0.9,0-1.4l-0.2-4.9h120.3l-0.2,5
	c0,0.4,0,0.9,0,1.3c0,24.1,19.6,43.7,43.7,43.7s43.7-19.6,43.7-43.7C294.8,110.7,286.7,96.6,273.2,88.6L273.2,88.6z"/>
</svg>
