<?xml version="1.0" encoding="utf-8"?>
<!-- Generator: Adobe Illustrator 26.4.1, SVG Export Plug-In . SVG Version: 6.00 Build 0)  -->
<svg version="1.1" id="uuid-cee0b9d2-4cfc-4f49-ae08-c90b95b321ab"
	 xmlns="http://www.w3.org/2000/svg" xmlns:xlink="http://www.w3.org/1999/xlink" x="0px" y="0px" viewBox="0 0 388 206.2"
	 style="enable-background:new 0 0 388 206.2;" xml:space="preserve">
<path d="M386,143.2L340.8,42.7h-0.1c0-0.1-0.1-0.3-0.1-0.4C332.1,13.3,260.7,0,194,0S55.9,13.3,47.4,42.3c-0.1,0.1-0.1,0.3-0.1,0.4
	h-0.1L2,143.2h0.1c-1.4,2.7-2.1,5.6-2.1,8.6c0,16.3,21.3,29.8,63.2,40.3c36.7,9.1,83.1,14.1,130.8,14.1s94.1-5,130.8-14.1
	c42-10.4,63.2-24,63.2-40.3c0-3-0.7-5.8-2.1-8.6H386L386,143.2z M265.8,154.8c0,12.5-10.2,22.7-22.7,22.7s-22.7-10.2-22.7-22.7
	c0-0.3,0-0.7,0-1h-52.8c0,0.3,0,0.6,0,1c0,12.5-10.2,22.7-22.7,22.7s-22.7-10.2-22.7-22.7c0-8.3,4.5-15.6,11.2-19.5
	c-6.7-3.9-11.2-11.2-11.2-19.5c0-12.5,10.2-22.7,22.7-22.7s22.7,10.2,22.7,22.7c0,0.3,0,0.7,0,1h52.8c0-0.3,0-0.6,0-1
	c0-12.5,10.2-22.7,22.7-22.7s22.7,10.2,22.7,22.7c0,8.3-4.5,15.6-11.2,19.5C261.3,139.2,265.8,146.5,265.8,154.8z M280.7,61.9
	c-23.1,6.1-53.9,9.4-86.7,9.4s-63.6-3.3-86.7-9.4C83.9,55.8,78.1,49.4,78,48.2c0.1-0.7,1.9-3,7.5-5.9c4.5-2.4,11.4-5.1,21.8-7.9
	c23.1-6.1,53.9-9.4,86.7-9.4s63.6,3.3,86.7,9.4c10.5,2.7,17.4,5.5,21.9,7.9c5.6,2.9,7.4,5.2,7.5,5.9
	C309.8,49.4,304.1,55.8,280.7,61.9L280.7,61.9z"/>
</svg>
