<?xml version="1.0" encoding="utf-8"?>
<!-- Generator: Adobe Illustrator 26.4.1, SVG Export Plug-In . SVG Version: 6.00 Build 0)  -->
<svg version="1.1" id="b060bc39-00b9-44e5-ae63-04f3da8c0c5b"
	 xmlns="http://www.w3.org/2000/svg" xmlns:xlink="http://www.w3.org/1999/xlink" x="0px" y="0px" viewBox="0 0 47 85"
	 style="enable-background:new 0 0 47 85;" xml:space="preserve">
<style type="text/css">
	.st0{fill-rule:evenodd;clip-rule:evenodd;fill:#FC5D0D;}
	.st1{fill-rule:evenodd;clip-rule:evenodd;}
</style>
<g>
	<path class="st0" d="M6.6,19.9h33.7c2.4,0,4.3,1.9,4.3,4.3l0,0V85l0,0H2.4l0,0V24.2C2.4,21.8,4.3,19.9,6.6,19.9z"/>
	<polygon points="20.3,42.4 9,39.4 7.9,43.2 10.7,44 10.7,49.3 17,49.3 17,45.7 19.2,46.3 	"/>
	<polygon class="st1" points="38.3,43.3 37.2,39.4 25.9,42.4 27,46.3 29.4,45.6 29.4,49.2 35.7,49.2 35.7,44 	"/>
	<path class="st1" d="M43.3,15.6h-4.7C38.3,7.1,31.3,0.3,22.8,0.3S7.3,7.1,6.9,15.6H3.7c-2.1,0-3.7,1.7-3.7,3.7v9
		C0,30.4,1.7,32,3.7,32h17.6c0.5,0,1,0.1,1.5,0.1l0,0c0.5,0,1,0,1.5-0.1h19c2.1,0,3.7-1.7,3.7-3.7v-9C47.1,17.2,45.4,15.6,43.3,15.6
		z"/>
	<rect x="10.7" y="58.2" width="25" height="4"/>
</g>
</svg>
