<?xml version="1.0" encoding="utf-8"?>
<!-- Generator: Adobe Illustrator 26.4.1, SVG Export Plug-In . SVG Version: 6.00 Build 0)  -->
<svg version="1.1" id="bc2906d3-e35c-4afa-a6c2-ce25399d3039"
	 xmlns="http://www.w3.org/2000/svg" xmlns:xlink="http://www.w3.org/1999/xlink" x="0px" y="0px" viewBox="0 0 49.8 50"
	 style="enable-background:new 0 0 49.8 50;" xml:space="preserve">
<style type="text/css">
	.st0{fill-rule:evenodd;clip-rule:evenodd;fill:#F93822;}
	.st1{fill:#FFFFFF;}
	.st2{fill-rule:evenodd;clip-rule:evenodd;fill:#FFFFFF;}
</style>
<g>
	<path class="st0" d="M-0.1,8.3L-0.1,8.3C-0.1,3.7,3.6,0,8.2,0h33.3c4.6,0,8.3,3.7,8.3,8.3l0,0v33.3c0,4.6-3.7,8.3-8.3,8.3l0,0H8.2
		c-4.6,0-8.3-3.7-8.3-8.3l0,0V8.3z"/>
	<rect x="12.4" y="31.5" class="st1" width="25" height="4"/>
	<polygon class="st1" points="22,15.7 10.7,12.7 9.6,16.5 12.4,17.3 12.4,22.6 18.7,22.6 18.7,19 20.9,19.6 	"/>
	<polygon class="st2" points="40,16.6 38.9,12.7 27.6,15.7 28.7,19.6 31.1,18.9 31.1,22.5 37.4,22.5 37.4,17.3 	"/>
</g>
</svg>
