<?xml version="1.0" encoding="utf-8"?>
<!-- Generator: Adobe Illustrator 26.4.1, SVG Export Plug-In . SVG Version: 6.00 Build 0)  -->
<svg version="1.1" id="b3381fd7-ae5e-4e65-bee9-19b14e3be85e"
	 xmlns="http://www.w3.org/2000/svg" xmlns:xlink="http://www.w3.org/1999/xlink" x="0px" y="0px" viewBox="0 0 50 50"
	 style="enable-background:new 0 0 50 50;" xml:space="preserve">
<style type="text/css">
	.st0{fill-rule:evenodd;clip-rule:evenodd;fill:#26D07C;}
	.st1{fill:#FFFFFF;}
	.st2{fill-rule:evenodd;clip-rule:evenodd;fill:#FFFFFF;}
</style>
<g>
	<path class="st0" d="M0,8.3L0,8.3C0,3.7,3.7,0,8.3,0h33.3C46.2,0,50,3.7,50,8.3v33.3c0,4.6-3.7,8.3-8.3,8.3H8.3
		C3.7,50,0,46.2,0,41.6L0,8.3z"/>
	<rect x="12.5" y="12.3" class="st1" width="6.3" height="6.3"/>
	<rect x="31.2" y="12.2" class="st1" width="6.3" height="6.3"/>
	<path class="st2" d="M12.3,25.1L12.3,25.1c0,7,5.7,12.7,12.7,12.7s12.7-5.7,12.7-12.7c0,0,0,0,0,0h-6.4c0,3.5-2.8,6.4-6.4,6.4
		c-3.5,0-6.4-2.8-6.4-6.4H12.3z"/>
</g>
</svg>
