<?xml version="1.0" encoding="utf-8"?>
<!-- Generator: Adobe Illustrator 26.4.1, SVG Export Plug-In . SVG Version: 6.00 Build 0)  -->
<svg version="1.1" id="uuid-4db7fec3-3664-474c-a116-94774252f2c5"
	 xmlns="http://www.w3.org/2000/svg" xmlns:xlink="http://www.w3.org/1999/xlink" x="0px" y="0px" viewBox="0 0 279.9 297.9"
	 style="enable-background:new 0 0 279.9 297.9;" xml:space="preserve">
<path d="M-0.2,116.9h10.6V80.3c0-42.2,20-66.4,60.7-66.4s60.7,24.1,60.7,66.4v19.2H92.6V77.6c0-18.9-7.2-26-20.4-26
	s-20.4,7.2-20.4,26v39.2h58.1v20.7H51.8v20.9h58.1v20.7H51.8v41.1c0,18.9,7.2,25.6,20.4,25.6s20.4-6.8,20.4-25.6v-23.8h39.2v21.1
	c0,42.2-20,66.4-60.7,66.4s-60.7-24.1-60.7-66.4V179H-0.2v-20.6h10.6v-20.7H-0.2L-0.2,116.9L-0.2,116.9z"/>
<path d="M199.7,19.6V0h33.9v19.6c29.4,6,44.5,28.7,44.5,64.5v8.3h-39.2v-11c0-18.9-7.5-26-20.7-26s-20.7,7.2-20.7,26
	c0,54.3,81.1,57,81.1,132.4c0,35.8-15.5,58.8-44.9,64.9v19.2h-33.9v-19.2c-29.8-6-44.9-29-44.9-64.9v-18.1h39.2v20.7
	c0,18.9,8.3,25.6,21.5,25.6s21.4-6.7,21.4-25.6c0-54.3-81.1-57-81.1-132.4C156,48.6,170.7,26,199.7,19.6L199.7,19.6z"/>
</svg>
