<?xml version="1.0" encoding="utf-8"?>
<!-- Generator: Adobe Illustrator 26.4.1, SVG Export Plug-In . SVG Version: 6.00 Build 0)  -->
<svg version="1.1" id="uuid-c40dea0b-4e5f-426a-bb0a-bc807d7fc9a7"
	 xmlns="http://www.w3.org/2000/svg" xmlns:xlink="http://www.w3.org/1999/xlink" x="0px" y="0px" viewBox="0 0 314.5 340.6"
	 style="enable-background:new 0 0 314.5 340.6;" xml:space="preserve">
<path d="M270.3,24.1c0.2-4.7,0.4-9.3,0.4-14.1L270.7,0H43.4l0.1,10.1c0,4.7,0.2,9.4,0.4,14.1H0.2l0.1,10.1
	c0.2,43.4,25.5,77.7,40.6,94.2c19.1,21,41.9,36.2,57.8,38.9c8.5,8.2,17.6,14.6,27.1,19c3.2,28.8-0.4,56.6-10.7,82.7H74.4v71.6h165.4
	V269h-41c-12.4-27.7-16-55.5-10.7-82.6c9.7-4.4,19-10.8,27.6-19.2c14.3-3.1,37.2-18.7,56-38.7c15.9-16.8,42.5-51.5,42.8-94.3
	l0.1-10.1L270.3,24.1L270.3,24.1z M55.6,114.9c-11.9-13.1-31.1-38.7-34.8-70.8h24.7c3.8,31.8,12.5,61.3,25.6,85.8
	C66.2,125.8,61,120.8,55.6,114.9L55.6,114.9z M219.8,289v31.6H94.4V289H219.8z M146.4,192.4c0,0.6,9,0.8,9.7,0.8
	c2.8,0,5.5-0.1,8.3-0.3c1-0.1,1.6-0.1,1.9,0.1c0.4,0.3,0.4,1,0.3,2.3c-0.2,6.1-1.1,12.1-1,18.3c0.2,10.6,1.5,21.2,3.9,31.5
	c0.9,4,2,8,3.2,12c0.4,1.2,3.3,12,4.2,12h-40.6C144.9,244.5,148.3,218.9,146.4,192.4L146.4,192.4z M203.5,151
	c-1,1.1-2.1,2.2-3.2,3.3c-11.4,11-26.6,18.6-42.6,18.8c-20.7,0.2-37.6-11.4-50.8-26.3c-0.6-0.7-1.2-1.3-1.7-2
	c-4.7-5.4-8.7-11.3-12.4-17.4C82.1,109.6,75.1,90,70.4,69.9c-3.9-16.4-6-33.1-6.6-49.9h186.7c-1.6,40.8-11.8,78.6-29,107.4
	C216.3,136,210.3,143.7,203.5,151L203.5,151z M257.4,114.5c-4.4,4.7-8.7,8.8-12.8,12.4c12-23.6,20.4-52,24-82.8h25.2
	C289.9,75.4,269.8,101.2,257.4,114.5L257.4,114.5z"/>
</svg>
