<?xml version="1.0" encoding="utf-8"?>
<!-- Generator: Adobe Illustrator 26.4.1, SVG Export Plug-In . SVG Version: 6.00 Build 0)  -->
<svg version="1.1" id="uuid-03ba5896-c757-4b4a-8afb-bca5b910dca4"
	 xmlns="http://www.w3.org/2000/svg" xmlns:xlink="http://www.w3.org/1999/xlink" x="0px" y="0px" viewBox="0 0 157.1 290"
	 style="enable-background:new 0 0 157.1 290;" xml:space="preserve">
<path d="M151.2,0.1L113.6,0C71.3,0,44,28,44,71.4v32.9H6.2c-3.3,0-5.9,2.6-5.9,5.9v47.7c0,3.3,2.6,5.9,5.9,5.9H44v120.3
	c0,3.3,2.6,5.9,5.9,5.9h49.3c3.3,0,5.9-2.6,5.9-5.9V163.8h44.2c3.3,0,5.9-2.6,5.9-5.9l0-47.7c0-1.6-0.6-3.1-1.7-4.2
	s-2.6-1.7-4.2-1.7h-44.2V76.4c0-13.4,3.2-20.2,20.7-20.2l25.3,0c3.3,0,5.9-2.6,5.9-5.9V6C157.1,2.7,154.4,0.1,151.2,0.1L151.2,0.1z"
	/>
</svg>
