<?xml version="1.0" encoding="utf-8"?>
<!-- Generator: Adobe Illustrator 26.4.1, SVG Export Plug-In . SVG Version: 6.00 Build 0)  -->
<svg version="1.1" id="uuid-382344b3-8b69-498b-b13f-88b3ca0cf7dc"
	 xmlns="http://www.w3.org/2000/svg" xmlns:xlink="http://www.w3.org/1999/xlink" x="0px" y="0px" viewBox="0 0 252.4 270.1"
	 style="enable-background:new 0 0 252.4 270.1;" xml:space="preserve">
<path d="M41.5,120.3h53.6V158H41.5v109H0V3h109.8v37.7H41.5L41.5,120.3L41.5,120.3z M126.4,66.4c0-42.2,22.3-66.4,63-66.4
	s63,24.1,63,66.4v137.3c0,42.2-22.3,66.4-63,66.4s-63-24.1-63-66.4V66.4z M167.9,206.3c0,18.9,8.3,26,21.5,26s21.5-7.2,21.5-26V63.7
	c0-18.9-8.3-26-21.5-26s-21.5,7.2-21.5,26V206.3z"/>
</svg>
