<?xml version="1.0" encoding="utf-8"?>
<!-- Generator: Adobe Illustrator 26.4.1, SVG Export Plug-In . SVG Version: 6.00 Build 0)  -->
<svg version="1.1" id="uuid-5d9eee05-9d9a-47f0-aeec-b473bdb5aef6"
	 xmlns="http://www.w3.org/2000/svg" xmlns:xlink="http://www.w3.org/1999/xlink" x="0px" y="0px" viewBox="0 0 342.3 342.3"
	 style="enable-background:new 0 0 342.3 342.3;" xml:space="preserve">
<style type="text/css">
	.st0{stroke:#FFFFFF;stroke-width:2;stroke-miterlimit:10;}
	.st1{stroke:#FFFFFF;stroke-miterlimit:10;}
</style>
<polygon points="113,296.5 155.2,186.2 42.5,221.6 60.1,240.3 4.8,292.4 22.4,311.2 40,329.9 95.4,277.8 "/>
<path class="st0" d="M171.2,0C76.8,0,0,76.8,0,171.2h25.7C25.7,91,91,25.7,171.2,25.7S316.6,91,316.6,171.2s-65.2,145.4-145.4,145.4
	v25.7c94.4,0,171.2-76.8,171.2-171.2S265.5,0,171.2,0z"/>
<path class="st1" d="M171.2,64.8c-58.7,0-106.4,47.7-106.4,106.4h16c0-49.9,40.6-90.4,90.4-90.4s90.4,40.6,90.4,90.4
	s-40.6,90.4-90.4,90.4v16c58.7,0,106.4-47.7,106.4-106.4S229.8,64.8,171.2,64.8L171.2,64.8z"/>
<path class="st1" d="M171.2,119c-28.7,0-52.1,23.4-52.1,52.1h7.8c0-24.4,19.9-44.3,44.3-44.3s44.3,19.9,44.3,44.3
	s-19.9,44.3-44.3,44.3v7.8c28.7,0,52.1-23.4,52.1-52.1S199.9,119,171.2,119z"/>
</svg>
