<?xml version="1.0" encoding="utf-8"?>
<!-- Generator: Adobe Illustrator 26.4.1, SVG Export Plug-In . SVG Version: 6.00 Build 0)  -->
<svg version="1.1" id="friendlyalien" xmlns="http://www.w3.org/2000/svg" xmlns:xlink="http://www.w3.org/1999/xlink" x="0px"
	 y="0px" viewBox="0 0 72.1 72.6" style="enable-background:new 0 0 72.1 72.6;" xml:space="preserve">
<style type="text/css">
	.st0{fill:#26D07C;}
	.st1{fill-rule:evenodd;clip-rule:evenodd;fill:#FFC600;}
	.st2{fill-rule:evenodd;clip-rule:evenodd;}
	.st3{fill-rule:evenodd;clip-rule:evenodd;fill:#FFFFFF;}
	.st4{fill-rule:evenodd;clip-rule:evenodd;fill-opacity:0;}
	.st5{fill:none;stroke:#888B8D;stroke-width:3;stroke-linejoin:round;}
</style>
<g>
	<path class="st0" d="M57.5,43.7c0-5.5-2.1-10.5-5.6-14.3l5.2-4.4l-1.8-2.2l-5.4,4.6c-3.6-3-8.3-4.8-13.4-4.8s-9.7,1.8-13.4,4.8
		l-5.3-4.6L15.9,25l5.1,4.4c-3.5,3.8-5.7,8.8-5.7,14.3c0,9.1,5.8,16.9,14,19.8c0,0.1,0,0.1,0,0.2v7l0,0c0,0.5,0.4,0.9,0.9,0.9h12.5
		c0.5,0,0.9-0.4,0.9-0.9v-7c0-0.1,0-0.1,0-0.2C51.7,60.6,57.5,52.8,57.5,43.7z"/>
	<path class="st1" d="M11.8,22.8L11.8,22.8c0-2,1.7-3.7,3.7-3.7s3.7,1.7,3.7,3.7s-1.7,3.7-3.7,3.7l0,0
		C13.5,26.5,11.8,24.9,11.8,22.8L11.8,22.8z"/>
	<path class="st2" d="M28.6,41.4L28.6,41.4c0-0.1,0.1-0.2,0.2-0.2l0,0H43c0.1,0,0.2,0.1,0.2,0.2V43c0,0.1-0.1,0.2-0.2,0.2l0,0H28.8
		c-0.1,0-0.2-0.1-0.2-0.2V41.4z"/>
	<path class="st3" d="M18.5,41.6L18.5,41.6c0-4,3.3-7.3,7.3-7.3s7.3,3.3,7.3,7.3s-3.3,7.3-7.3,7.3S18.5,45.6,18.5,41.6L18.5,41.6z"
		/>
	<path class="st3" d="M39.6,41.6L39.6,41.6c0-4,3.3-7.3,7.3-7.3s7.3,3.3,7.3,7.3s-3.3,7.3-7.3,7.3l0,0
		C42.9,48.9,39.6,45.6,39.6,41.6z"/>
	<path class="st2" d="M24,41.6L24,41.6c0-1,0.8-1.8,1.8-1.8s1.8,0.8,1.8,1.8s-0.8,1.8-1.8,1.8l0,0C24.8,43.4,24,42.6,24,41.6z"/>
	<path class="st2" d="M45.1,41.6L45.1,41.6c0-1,0.8-1.8,1.8-1.8s1.8,0.8,1.8,1.8s-0.8,1.8-1.8,1.8l0,0
		C45.9,43.4,45.1,42.6,45.1,41.6z"/>
	<path class="st3" d="M31.6,53L31.6,53c0,2.6,2.1,4.8,4.8,4.8c2.6,0,4.8-2.1,4.8-4.8h-2.4c0,1.3-1.1,2.4-2.4,2.4
		c-1.3,0-2.4-1.1-2.4-2.4l0,0H31.6z"/>
	<path class="st1" d="M57.9,19.2L57.9,19.2c2,0.3,3.4,2.2,3.1,4.2s-2.2,3.4-4.2,3.1c-2-0.3-3.4-2.2-3.1-4.2
		C54,20.3,55.9,18.9,57.9,19.2L57.9,19.2z"/>
	<path class="st4" d="M1.6,36.4L1.6,36.4C1.6,17.4,17,2,36,2s34.4,15.4,34.4,34.4S55,70.8,36,70.8l0,0C17,70.7,1.6,55.4,1.6,36.4z"
		/>
	<path class="st5" d="M1.6,36.4L1.6,36.4C1.6,17.4,17,2,36,2s34.4,15.4,34.4,34.4S55,70.8,36,70.8l0,0C17,70.7,1.6,55.4,1.6,36.4z"
		/>
</g>
</svg>
