<?xml version="1.0" encoding="utf-8"?>
<!-- Generator: Adobe Illustrator 26.4.1, SVG Export Plug-In . SVG Version: 6.00 Build 0)  -->
<svg version="1.1" id="uuid-a1c72618-311d-4dc6-bede-56364a035719"
	 xmlns="http://www.w3.org/2000/svg" xmlns:xlink="http://www.w3.org/1999/xlink" x="0px" y="0px" viewBox="0 0 378.5 369.1"
	 style="enable-background:new 0 0 378.5 369.1;" xml:space="preserve">
<style type="text/css">
	.st0{fill-rule:evenodd;clip-rule:evenodd;}
</style>
<path class="st0" d="M189.2,0C84.7,0,0,84.7,0,189.2c0,83.6,54.2,154.5,129.4,179.5c9.5,1.7,12.9-4.1,12.9-9.1
	c0-4.5-0.2-16.4-0.3-32.2c-52.6,11.4-63.7-25.4-63.7-25.4c-8.6-21.9-21-27.7-21-27.7c-17.2-11.7,1.3-11.5,1.3-11.5
	c19,1.3,29,19.5,29,19.5c16.9,28.9,44.3,20.6,55.1,15.7c1.7-12.2,6.6-20.6,12-25.3c-42-4.8-86.2-21-86.2-93.5
	c0-20.7,7.4-37.5,19.5-50.8c-1.9-4.8-8.4-24,1.9-50.1c0,0,15.9-5.1,52,19.4c15.1-4.2,31.3-6.3,47.4-6.4c16.1,0.1,32.3,2.2,47.4,6.4
	c36.1-24.5,52-19.4,52-19.4c10.3,26.1,3.8,45.3,1.9,50.1c12.1,13.2,19.5,30.1,19.5,50.8c0,72.7-44.2,88.7-86.4,93.4
	c6.8,5.8,12.8,17.4,12.8,35c0,25.3-0.2,45.7-0.2,51.9c0,5.1,3.4,10.9,13,9.1c75.1-25.1,129.3-96,129.3-179.5
	C378.5,84.7,293.7,0,189.2,0L189.2,0z"/>
</svg>
