<?xml version="1.0" encoding="utf-8"?>
<!-- Generator: Adobe Illustrator 26.4.1, SVG Export Plug-In . SVG Version: 6.00 Build 0)  -->
<svg version="1.1" id="uuid-c22f5426-e41e-4e48-b2c7-862aa270baf4"
	 xmlns="http://www.w3.org/2000/svg" xmlns:xlink="http://www.w3.org/1999/xlink" x="0px" y="0px" viewBox="0 0 365.8 365.8"
	 style="enable-background:new 0 0 365.8 365.8;" xml:space="preserve">
<path d="M312.2,53.6C277.7,19.1,231.8,0,182.9,0h0C134,0,88.1,19,53.6,53.6C19,88.1,0,134,0,182.9c0,100.9,82,182.9,182.9,182.9h0
	c48.9,0,94.8-19,129.3-53.6c34.5-34.5,53.6-80.5,53.6-129.3C365.8,134.1,346.7,88.1,312.2,53.6L312.2,53.6z M121.8,41
	c-8.9,10.5-16.1,22.5-21.4,35.5c-1.4,3.3-2.7,6.7-3.9,10c-7.9-3.8-15.6-8-23.1-12.7C87.3,59.9,103.8,48.8,121.8,41L121.8,41z
	 M55.2,95.8c10.7,6.8,21.8,12.9,33.4,18.2c-4,18-6.4,36.3-7.1,54.7H29C31.4,142.5,40.3,117.6,55.2,95.8L55.2,95.8z M29,197h52.5
	c0.7,18.4,3.1,36.7,7.1,54.7C77,257,65.7,263.1,55,270C40.2,248.2,31.3,223.3,29,197z M73.3,292.1c7.5-4.6,15.3-8.8,23.3-12.6
	c1.2,3.3,2.5,6.6,3.8,9.8c5.2,13.2,12.5,25.2,21.5,35.8C103.8,317.3,87.2,306.1,73.3,292.1L73.3,292.1z M168.7,327.8
	c-18.3-9.7-32.2-26.1-42.5-49.8c-1.3-2.9-2.4-5.9-3.5-9c14.9-4.8,30.3-7.9,46-9L168.7,327.8L168.7,327.8z M168.8,231.8
	c-18.2,1.1-36.1,4.4-53.5,9.8c-3-14.7-4.9-29.6-5.5-44.5h59V231.8z M168.8,168.8H110c0.6-14.9,2.4-29.9,5.4-44.5
	c17.4,5.4,35.3,8.7,53.4,9.8V168.8z M168.8,105.7c-15.7-1.1-31.1-4-46.1-8.8c1.1-3.2,2.3-6.3,3.6-9.3c10.2-23.6,24.2-40,42.5-49.6
	L168.8,105.7L168.8,105.7z M336.8,168.8h-52.4c-0.7-18.4-3.1-36.7-7.1-54.7c11.5-5.3,22.7-11.4,33.4-18.2
	C325.5,117.6,334.4,142.5,336.8,168.8L336.8,168.8z M292.4,73.8c-7.5,4.6-15.2,8.9-23.1,12.7c-1.2-3.3-2.4-6.7-3.9-10
	c-5.2-13-12.4-25-21.3-35.5C262,48.8,278.5,59.9,292.4,73.8z M256,197c-0.6,15-2.5,29.9-5.5,44.5c-17.4-5.4-35.3-8.7-53.5-9.8
	l0-34.7L256,197L256,197z M197.1,168.7V134c18.2-1.1,36.1-4.4,53.4-9.8c3,14.7,4.8,29.6,5.4,44.5H197.1L197.1,168.7z M197.1,38
	c18.3,9.7,32.3,26,42.4,49.5c1.3,3.1,2.5,6.2,3.6,9.4c-15,4.8-30.4,7.7-46.1,8.8L197.1,38L197.1,38z M239.5,278
	c-10.2,23.7-24.2,40.1-42.5,49.8l0-67.7c15.7,1.1,31.1,4.1,46,8.9C241.9,272.1,240.8,275.1,239.5,278L239.5,278z M243.9,325.1
	c9-10.6,16.3-22.7,21.5-35.8c1.3-3,2.6-6.2,3.8-9.8c8,3.8,15.8,8,23.3,12.6C278.6,306.1,262,317.3,243.9,325.1L243.9,325.1z
	 M310.8,270c-10.7-6.9-22-13-33.5-18.2c4-18,6.4-36.3,7.1-54.7h52.5C334.5,223.3,325.6,248.2,310.8,270z"/>
</svg>
