<?xml version="1.0" encoding="utf-8"?>
<!-- Generator: Adobe Illustrator 26.4.1, SVG Export Plug-In . SVG Version: 6.00 Build 0)  -->
<svg version="1.1" id="uuid-3426fb37-22b8-4301-83b1-47c9e74229cb"
	 xmlns="http://www.w3.org/2000/svg" xmlns:xlink="http://www.w3.org/1999/xlink" x="0px" y="0px" viewBox="0 0 461 309"
	 style="enable-background:new 0 0 461 309;" xml:space="preserve">
<g>
	<path d="M461,82.2c0,21.3-17.3,38.7-38.7,38.7H321.8c-22.1,0-40.3-16.4-43.3-37.6c-0.3-2-0.5-4-0.5-6.1c0-5.1,0.9-10,2.5-14.5
		c5.4-15.3,19-26.7,35.5-28.8c1.7-13.6,10.5-24.9,22.5-30.3c4.8-2.2,10.2-3.4,15.8-3.4c2.4,0,4.6,0.3,6.9,0.7
		c10.3,1.9,19.3,7.8,25,16.1c2.7-0.6,5.5-0.9,8.4-0.9c18,0,33.1,12.3,37.4,28.9C448.7,49.1,461,64.2,461,82.2L461,82.2z"/>
	<path d="M154,206.8c-4.3-16.6-19.4-28.9-37.4-28.9c-2.9,0-5.7,0.3-8.4,0.9c-5.7-8.3-14.7-14.2-25-16.1c-2.2-0.4-4.5-0.7-6.9-0.7
		c-5.7,0-11,1.2-15.8,3.4c-12,5.4-20.8,16.8-22.5,30.3c-16.5,2.2-30.1,13.6-35.5,28.8C0.9,229.1,0,234,0,239.1
		c0,2.1,0.2,4.1,0.5,6.1c3,21.3,21.2,37.6,43.3,37.6h100.5c21.3,0,38.7-17.3,38.7-38.7C182.9,226.2,170.7,211.1,154,206.8L154,206.8
		z"/>
</g>
<path d="M391.5,156.3c0-0.4,0-0.9,0-1.3c0-0.8,0-1.7,0-2.5c0-1-0.1-2-0.1-3c0-0.2,0-0.5,0-0.7c-0.2-4.9-0.7-9.8-1.4-14.6h-24.6
	c0.6,3.3,1.1,6.7,1.4,10.1h-37.3c-0.1-3.4-0.4-6.8-0.7-10.1h-24.4l0,0c0.3,3.3,0.6,6.7,0.7,10.1h-54V30c7.2,2.6,13.9,7.4,20.1,14
	L299.2,16C282.5,8.8,264.5,4.6,246,3.8c-0.1,0-0.1,0-0.2,0c-1.1,0-2.2-0.1-3.3-0.1c-0.5,0-1.1,0-1.6,0c-0.6,0-1.2,0-1.9,0l-0.1,0
	l-0.1,0c-0.6,0-1.2,0-1.9,0c-0.5,0-1.1,0-1.6,0c-1.1,0-2.2,0.1-3.3,0.1c-0.1,0-0.1,0-0.2,0C193.7,5.5,158,21.2,130.9,48.3
	c-7.6,7.6-14.4,16-20.1,24.8c0,0.1,0,0.2,0,0.2c-8.7,13.3-15.2,27.8-19.3,43h0.1c-0.3,1.3-0.7,2.5-1,3.8h-0.1
	c-1.7,7.1-2.9,14.4-3.6,21.8l26.7,26.7h34.8c0.1,2.1,0.2,4.3,0.4,6.4l28.3,28.3c-2.2-10.9-3.7-22.6-4.3-34.7h54v114.2
	c-9.6-3.4-18.4-10.8-26-21.2l-31.1,31.1c19.1,9.8,40.2,15.4,62.2,16.4c0.1,0,0.1,0,0.2,0c1.1,0,2.2,0.1,3.3,0.1c0.5,0,1.1,0,1.6,0
	c0.6,0,1.2,0,1.9,0l0.1,0l0.1,0c0.6,0,1.2,0,1.9,0c0.5,0,1.1,0,1.6,0c1.1,0,2.2-0.1,3.3-0.1c0.1,0,0.1,0,0.2,0
	c38.1-1.7,73.8-17.4,100.9-44.5c7.6-7.6,14.4-16,20.1-24.8c0-0.1,0-0.2,0-0.2c8.7-13.3,15.2-27.8,19.3-43h-0.1
	c0.3-1.3,0.7-2.5,1-3.8h0.1c2.2-9.3,3.6-18.8,4.1-28.5c0-0.2,0-0.5,0-0.7c0-1,0.1-2,0.1-3c0-0.8,0-1.7,0-2.5c0-0.4,0-0.9,0-1.3
	c0,0,0-0.1,0-0.1C391.5,156.4,391.5,156.3,391.5,156.3L391.5,156.3z M170.3,54.3c-12.8,24.7-20.4,56.2-21.9,89.9h-37.3
	c4.1-42.7,29.1-79.3,64.7-99.5C173.9,47.8,172,51,170.3,54.3L170.3,54.3z M226.7,99.9v44.3h-54c1.5-30.5,8.6-58,19.2-78.5
	c0-0.1,0-0.1,0-0.2c9.3-18,21.3-30.7,34.8-35.6V99.9z M251,282.8V168.7h54c-1.5,30.5-8.6,58-19.2,78.5c0,0.1,0,0.1,0,0.2
	C276.6,265.3,264.5,278,251,282.8L251,282.8z M302,268.1c1.9-3.1,3.7-6.3,5.5-9.6c12.8-24.7,20.4-56.2,21.9-89.9h37.3
	C362.6,211.4,337.6,248,302,268.1L302,268.1z"/>
</svg>
