<?xml version="1.0" encoding="utf-8"?>
<!-- Generator: Adobe Illustrator 26.4.1, SVG Export Plug-In . SVG Version: 6.00 Build 0)  -->
<svg version="1.1" id="uuid-161abd4e-7f60-477a-9d60-8b71e9028804"
	 xmlns="http://www.w3.org/2000/svg" xmlns:xlink="http://www.w3.org/1999/xlink" x="0px" y="0px" viewBox="0 0 350 319.5"
	 style="enable-background:new 0 0 350 319.5;" xml:space="preserve">
<polygon points="350,299 350,319.5 0,319.4 0,298.9 20.5,298.9 20.5,238.8 82,238.8 82,298.9 102.6,298.9 102.6,197.8 164.1,197.8 
	164.1,298.9 184.6,298.9 184.6,156.8 246.1,156.8 246.1,298.9 266.6,298.9 266.6,115.8 328.2,115.8 328.2,299 "/>
<polygon points="54.4,175.5 282.5,41.8 278.4,57.4 298.2,62.7 311.3,13.1 261.7,0 256.5,19.8 272.3,24 44.1,157.8 "/>
</svg>
