<?xml version="1.0" encoding="utf-8"?>
<!-- Generator: Adobe Illustrator 26.4.1, SVG Export Plug-In . SVG Version: 6.00 Build 0)  -->
<svg version="1.1" id="uuid-7447be8e-e723-4756-83d0-b471c5814b2e"
	 xmlns="http://www.w3.org/2000/svg" xmlns:xlink="http://www.w3.org/1999/xlink" x="0px" y="0px" viewBox="0 0 338.2 281.2"
	 style="enable-background:new 0 0 338.2 281.2;" xml:space="preserve">
<path d="M9.9,48.5C9.9,21.8,31.7,0,58.4,0s48.5,21.8,48.5,48.5S85.2,97,58.4,97S9.9,75.3,9.9,48.5z M279.7,97
	c26.7,0,48.5-21.8,48.5-48.5S306.5,0,279.7,0s-48.5,21.8-48.5,48.5S253,97,279.7,97z M323.4,120.7h-87.7l-14.4,19.9l-0.1,0.1v0
	l-37.7,52.2h-28.9l-52.2-72.2l-87.8,0L0,140.7v140.5h116.9v-82.6l20.4,28.3l0,0v0h63.5l0.1,0.1l20.4-28.2v82.4h116.9V140.7
	L323.4,120.7L323.4,120.7z"/>
</svg>
