<?xml version="1.0" encoding="utf-8"?>
<!-- Generator: Adobe Illustrator 26.4.1, SVG Export Plug-In . SVG Version: 6.00 Build 0)  -->
<svg version="1.1" id="uuid-e7473fda-436c-4c9b-9b9b-a86b09159200"
	 xmlns="http://www.w3.org/2000/svg" xmlns:xlink="http://www.w3.org/1999/xlink" x="0px" y="0px" viewBox="0 0 394.3 286.8"
	 style="enable-background:new 0 0 394.3 286.8;" xml:space="preserve">
<rect x="158.1" y="104" width="78.2" height="78.2"/>
<polygon points="133.9,183.7 133.8,207.9 88.4,207.7 88.4,219.8 46.7,195.5 88.6,171.5 88.5,183.5 "/>
<polygon points="275.7,112.7 263,92.2 301.5,68.3 295.2,58.1 343.4,56.5 320.6,99 314.3,88.8 "/>
<path d="M0,286.8h24.2v-24.2H0V286.8z M51,286.8h26.8v-24.2H51V286.8z M104.5,286.8h26.8v-24.2h-26.8V286.8z M158.1,286.8h24.2
	v-24.2h-24.2V286.8z M158.1,235.8h24.2V209h-24.2V235.8z M51,128.7h26.8v-24.2H51V128.7z M104.5,128.7h26.8v-24.2h-26.8V128.7z
	 M12.1,128.7h12.1v-24.2H0v24.2H12.1L12.1,128.7z M0,235.8h24.2V209H0C0,209,0,235.8,0,235.8z M0,182.3h24.2v-26.8H0
	C0,155.5,0,182.3,0,182.3z"/>
<path d="M263,182.3h26.8v-24.2H263V182.3z M316.6,182.3h26.8v-24.2h-26.8V182.3z M370.1,182.3h24.2v-24.2l-24.2,0V182.3L370.1,182.3
	z M370.1,131.3h24.2v-26.8h-24.2V131.3z M370.1,77.7h24.2V51h-24.2V77.7z M370.1,24.2h24.2V0h-24.2L370.1,24.2L370.1,24.2z
	 M263,24.2h26.8V0H263V24.2z M316.6,24.2h26.8V0h-26.8V24.2z M212.1,24.2l24.2,0V0h-24.2V24.2L212.1,24.2z M212.1,77.7h24.2V51
	h-24.2V77.7z"/>
</svg>
