<?xml version="1.0" encoding="utf-8"?>
<!-- Generator: Adobe Illustrator 26.4.1, SVG Export Plug-In . SVG Version: 6.00 Build 0)  -->
<svg version="1.1" id="uuid-970443f1-2b9d-4429-a855-ec42297e757f"
	 xmlns="http://www.w3.org/2000/svg" xmlns:xlink="http://www.w3.org/1999/xlink" x="0px" y="0px" viewBox="0 0 248.7 319.6"
	 style="enable-background:new 0 0 248.7 319.6;" xml:space="preserve">
<path d="M195,199.3v-29.1L177.2,146H71.5l-17.8,24.2v29.1H0l12.1,120h224.5l12.1-120H195L195,199.3z M124.3,281.2
	c-12.1,0-21.9-9.8-21.9-21.9c0-12.1,9.8-21.9,21.9-21.9s21.9,9.8,21.9,21.9C146.3,271.4,136.5,281.2,124.3,281.2z M65.7,58.7
	C65.7,26.3,92,0,124.3,0S183,26.3,183,58.7s-26.3,58.7-58.7,58.7S65.7,91,65.7,58.7z"/>
</svg>
