<?xml version="1.0" encoding="utf-8"?>
<!-- Generator: Adobe Illustrator 26.4.1, SVG Export Plug-In . SVG Version: 6.00 Build 0)  -->
<svg version="1.1" id="uuid-21e8cf69-ea8c-4cf8-a555-92e94985fc0b"
	 xmlns="http://www.w3.org/2000/svg" xmlns:xlink="http://www.w3.org/1999/xlink" x="0px" y="0px" viewBox="0 0 355.4 335.5"
	 style="enable-background:new 0 0 355.4 335.5;" xml:space="preserve">
<circle cx="121.9" cy="136.2" r="12.1"/>
<circle cx="230.7" cy="136.2" r="12.1"/>
<path d="M355.4,221v-24.2h-32v-49.7C323.4,66,257.4,0,176.3,0S29.2,66,29.2,147.1v49.7H0V221h29.2v28.6l-24.5,8.9l8.3,22.7l16.3-5.9
	v59.9h24.2v-68.7l44-16c9.6,10.2,23.2,16.6,38.3,16.6c16.3,0,30.9-7.5,40.6-19.1c9.7,11.7,24.3,19.1,40.6,19.1
	c15.5,0,29.4-6.7,39-17.4l43.3,15.7v69.8h24.2v-61l19.1,7l8.3-22.7l-27.4-10V221L355.4,221L355.4,221z M53.4,240.8V221h30.1
	c0.4,2.8,0.9,5.6,1.7,8.3L53.4,240.8z M216.9,243c-8.5,0-16.5-3.8-22-10.4l-6.3-7.6l9.3-16.1h-43.3L164,225l-6.3,7.6
	c-5.5,6.6-13.5,10.4-22,10.4c-15.7,0-28.5-12.8-28.5-28.5S120,186,135.7,186h81.2c15.7,0,28.5,12.8,28.5,28.5S232.6,243,216.9,243
	L216.9,243z M299.2,239.8l-31.5-11.5c0.7-2.4,1.1-4.8,1.4-7.3h30.1L299.2,239.8L299.2,239.8z M299.2,196.8h-32.7
	c-7.3-20.4-26.8-35-49.6-35h-81.2c-22.9,0-42.3,14.6-49.6,35H53.4v-49.7c0-67.8,55.1-122.9,122.9-122.9s122.9,55.1,122.9,122.9
	L299.2,196.8L299.2,196.8z"/>
</svg>
