<?xml version="1.0" encoding="utf-8"?>
<!-- Generator: Adobe Illustrator 26.4.1, SVG Export Plug-In . SVG Version: 6.00 Build 0)  -->
<svg version="1.1" id="uuid-c4755c75-648d-42bb-9b14-a1f58a84384e"
	 xmlns="http://www.w3.org/2000/svg" xmlns:xlink="http://www.w3.org/1999/xlink" x="0px" y="0px" viewBox="0 0 303.5 323"
	 style="enable-background:new 0 0 303.5 323;" xml:space="preserve">
<style type="text/css">
	.st0{fill-rule:evenodd;clip-rule:evenodd;}
</style>
<path class="st0" d="M243,18.8l2.5,0.2l5.3,0.9l5,1.1l4.8,1.8l4.6,2.3l4.3,2.5l4.1,3.2l3.6,3.4l3.4,3.6l3,4.1l2.7,4.1l2.1,4.8
	l1.8,4.8l1.4,5l0.7,5l0.2,2.7l0.2,2.7l-0.2,2.7l-0.2,2.5l-0.7,5.3l-1.4,5l-1.8,4.8l-2.1,4.6l-2.7,4.3l-3,4.1l-3.4,3.7l-3.6,3.4
	l-4.1,3l-4.3,2.7l-4.6,2.3l-4.8,1.6l-5,1.4l-5.3,0.9H243l-2.7,0.2l-2.7-0.2h-2.8l-5.3-0.9l-5-1.4l-4.8-1.6l-4.6-2.3l-4.3-2.7l-3.9-3
	l-3.9-3.4l-3.4-3.7l-3-4.1l-2.5-4.3l-2.3-4.6l-1.8-4.8l-1.1-5l-0.9-5.3l-0.2-2.5v-5.5l0.2-2.7l0.9-5l1.1-5l1.8-4.8l2.3-4.8l2.5-4.1
	l3-4.1l3.4-3.6l3.9-3.4l3.9-3.2l4.3-2.5l4.6-2.3l4.8-1.8l5-1.1l5.3-0.9l2.8-0.2L243,18.8L243,18.8z M193,149.4l-16,21.7V323h126.5
	V171.1l-16-21.7L193,149.4L193,149.4z"/>
<path class="st0" d="M125.1,64.7V0H21.2v64.7H0v110h146.3v-110H125.1L125.1,64.7z M87.6,105.9v1.7l-0.3,1.8l-0.6,1.6l-0.6,1.5
	l-0.9,1.5l-1,1.3l-1.2,1.2l-1.2,1.2v20.5l-0.1,0.9v0.9l-0.6,1.6l-0.7,1.6l-1.2,1.2l-1.2,1.2l-1.6,0.7l-1.6,0.6l-0.9,0.1h-1.7
	l-0.9-0.1l-1.6-0.6l-1.5-0.7l-1.3-1.2l-1-1.2l-0.9-1.6l-0.4-1.6l-0.1-0.9l-0.1-0.9v-20.5l-1.2-1.2l-1.2-1.2l-1-1.3l-0.7-1.5
	l-0.7-1.5l-0.4-1.6l-0.3-1.8l-0.1-1.7v-1.5L59,103l0.3-1.3l0.6-1.3l0.6-1.3l0.7-1.2l0.9-1.2l0.9-1l1-0.9l1.2-0.9l1.2-0.7l1.3-0.6
	l1.3-0.4l1.3-0.4l1.5-0.1l1.5-0.1l1.5,0.1l1.5,0.1l1.5,0.4l1.3,0.4l1.2,0.6l1.3,0.7l1,0.9l1,0.9l1,1l0.7,1.2l0.7,1.2l0.7,1.3
	l0.4,1.3l0.3,1.3l0.3,1.5L87.6,105.9L87.6,105.9z M107.7,29.6v35.1h-69V17.4h69C107.7,17.4,107.7,29.6,107.7,29.6z"/>
</svg>
