<?xml version="1.0" encoding="utf-8"?>
<!-- Generator: Adobe Illustrator 26.4.1, SVG Export Plug-In . SVG Version: 6.00 Build 0)  -->
<svg version="1.1" id="uuid-bdd59b9a-b184-4298-9c61-5740b9e02870"
	 xmlns="http://www.w3.org/2000/svg" xmlns:xlink="http://www.w3.org/1999/xlink" x="0px" y="0px" viewBox="0 0 250 340.6"
	 style="enable-background:new 0 0 250 340.6;" xml:space="preserve">
<polygon points="113.8,172.7 69.2,135.3 84.8,116.8 110.8,138.6 162.2,77.3 180.8,92.8 "/>
<path d="M125,0C56.1,0,0,56.1,0,125c0,47.1,26.2,88.2,64.8,109.5v57.7h23.9v48.4h72.6v-48.4h23.9v-57.7
	C223.8,213.2,250,172.1,250,125C250,56.1,193.9,0,125,0L125,0z M137.1,316.4h-24.2v-24.2h24.2V316.4z M185.2,205.8
	c-7.4,5.5-15.5,10-24.2,13.3v48.9H89v-48.9c-8.7-3.3-16.8-7.8-24.2-13.3C40.2,187.4,24.2,158,24.2,125C24.2,69.4,69.4,24.2,125,24.2
	S225.8,69.4,225.8,125C225.8,158,209.8,187.4,185.2,205.8L185.2,205.8z"/>
</svg>
