<?xml version="1.0" encoding="utf-8"?>
<!-- Generator: Adobe Illustrator 26.4.1, SVG Export Plug-In . SVG Version: 6.00 Build 0)  -->
<svg version="1.1" id="uuid-757b1098-0436-4775-a2e7-8ce698248903"
	 xmlns="http://www.w3.org/2000/svg" xmlns:xlink="http://www.w3.org/1999/xlink" x="0px" y="0px" viewBox="0 0 249.8 387.7"
	 style="enable-background:new 0 0 249.8 387.7;" xml:space="preserve">
<polygon points="249.8,373.1 249.7,387.7 0,387.7 0,373 14.6,373 14.6,330.2 58.5,330.2 58.5,373.1 73.2,373.1 73.2,300.9 
	117.1,300.9 117.1,373.1 131.7,373.1 131.7,271.7 175.6,271.7 175.6,373.1 190.3,373.1 190.3,242.4 234.2,242.4 234.2,373.1 "/>
<polygon points="149.8,97.8 123.7,43.9 97.7,97.8 110.7,97.8 110.7,136.3 123.7,136.3 136.7,136.3 136.7,97.8 "/>
<path d="M123.7,0C74.5,0,34.5,40,34.5,89.2c0,33.6,18.7,62.9,46.2,78.1v41.2h17.1V243h51.8v-34.5h17.1v-41.2
	c27.5-15.2,46.2-44.5,46.2-78.1C212.9,40,172.9,0,123.7,0L123.7,0z M132.3,225.8h-17.3v-17.3h17.3V225.8z M166.7,146.8
	c-5.2,3.9-11,7.1-17.3,9.5v34.9H98v-34.9c-6.2-2.4-12-5.6-17.3-9.5c-17.6-13.1-29-34.1-29-57.7c0-39.7,32.3-71.9,71.9-71.9
	s71.9,32.3,71.9,71.9C195.6,112.8,184.2,133.7,166.7,146.8L166.7,146.8z"/>
</svg>
