<?xml version="1.0" encoding="utf-8"?>
<!-- Generator: Adobe Illustrator 26.4.1, SVG Export Plug-In . SVG Version: 6.00 Build 0)  -->
<svg version="1.1" id="uuid-0e6b2707-d4d7-498a-a57f-c3433b394224"
	 xmlns="http://www.w3.org/2000/svg" xmlns:xlink="http://www.w3.org/1999/xlink" x="0px" y="0px" viewBox="0 0 384.1 425.1"
	 style="enable-background:new 0 0 384.1 425.1;" xml:space="preserve">
<path d="M311.8,214.6c15.9-22.7,24.4-49.7,24.4-78c0-36.5-14.2-70.8-40-96.6c-25.8-25.8-60.1-40-96.6-40s-70.8,14.2-96.6,40
	c-25.8,25.8-40,60.1-40,96.6s14.2,70.8,40,96.6c25.8,25.8,60.1,40,96.6,40c28.3,0,55.3-8.6,78-24.4l72.3,72.3l34.2-34.2L311.8,214.6
	L311.8,214.6z M199.6,249.1c-62.1,0-112.4-50.3-112.4-112.4S137.5,24.2,199.6,24.2S312,74.5,312,136.6S261.7,249.1,199.6,249.1
	L199.6,249.1z"/>
<polygon points="214.2,425.1 192.7,337.9 134.7,391.7 87.6,310.9 9.5,332.8 3,309.6 99.1,282.5 140.4,353.4 206.4,292.2 
	228.6,382.4 304.4,321.1 319.6,339.9 "/>
<polygon points="264.5,107.9 193,193.2 174.5,177.6 174.5,177.6 145.2,153 160.7,134.5 190,159.1 246,92.4 "/>
</svg>
