<?xml version="1.0" encoding="utf-8"?>
<!-- Generator: Adobe Illustrator 26.4.1, SVG Export Plug-In . SVG Version: 6.00 Build 0)  -->
<svg version="1.1" id="uuid-f0bc2387-dd79-4c4e-8372-d326255f6cd6"
	 xmlns="http://www.w3.org/2000/svg" xmlns:xlink="http://www.w3.org/1999/xlink" x="0px" y="0px" viewBox="0 0 345.6 278.6"
	 style="enable-background:new 0 0 345.6 278.6;" xml:space="preserve">
<path d="M325.3,216.3v-92.6H184.8V82.8c17.5-5.2,30.3-21.4,30.3-40.5c0-23.3-19-42.3-42.3-42.3s-42.3,19-42.3,42.3
	c0,19.2,12.8,35.4,30.3,40.5v40.9H20.3v92.6C8.4,221.1,0,232.7,0,246.3c0,17.8,14.5,32.3,32.3,32.3s32.3-14.5,32.3-32.3
	c0-13.6-8.4-25.2-20.3-30v-68.6h116.5v68.6c-11.9,4.8-20.3,16.4-20.3,30c0,17.8,14.5,32.3,32.3,32.3s32.3-14.5,32.3-32.3
	c0-13.6-8.4-25.2-20.3-30v-68.6h116.5v68.6c-11.9,4.8-20.3,16.4-20.3,30c0,17.8,14.5,32.3,32.3,32.3s32.3-14.5,32.3-32.3
	C345.6,232.7,337.2,221.1,325.3,216.3L325.3,216.3z M150.5,42.3c0-12.3,10-22.3,22.3-22.3c12.3,0,22.3,10,22.3,22.3
	s-10,22.3-22.3,22.3S150.5,54.6,150.5,42.3L150.5,42.3z"/>
</svg>
