<?xml version="1.0" encoding="utf-8"?>
<!-- Generator: Adobe Illustrator 26.4.1, SVG Export Plug-In . SVG Version: 6.00 Build 0)  -->
<svg version="1.1" id="uuid-1e6ad0b1-6090-4ea6-93c8-012b7ed1c0bc"
	 xmlns="http://www.w3.org/2000/svg" xmlns:xlink="http://www.w3.org/1999/xlink" x="0px" y="0px" viewBox="0 0 358.1 366.1"
	 style="enable-background:new 0 0 358.1 366.1;" xml:space="preserve">
<path d="M5,100.8c0-13.6,11.1-24.6,24.6-24.6s24.6,11.1,24.6,24.6s-11.1,24.6-24.6,24.6S5,114.4,5,100.8z M59.4,189.4v-41.8l0,0
	l-1.6-2.1l-1.9-2.6l0,0l-4-5.4H7.5L0,147.6v41.8L59.4,189.4L59.4,189.4z"/>
<path d="M338.5,113.3V71.5L331,61.3h-44.4l-7.5,10.2v41.8L338.5,113.3L338.5,113.3L338.5,113.3z M308.8,49.3
	c13.6,0,24.6-11.1,24.6-24.6S322.4,0,308.8,0s-24.6,11.1-24.6,24.6S295.2,49.3,308.8,49.3L308.8,49.3z"/>
<path d="M353.8,137.5h-25.1c2.2,7.7,3.8,15.7,4.6,23.9h-37.5c-0.4-8.1-1.1-16.1-2.1-23.9h-24.4c1.2,7.7,2,15.7,2.4,23.9h-54.1V47.1
	c14.7,5.2,27.7,19.8,37.4,40.5V63.6l4.7-6.4l6.5-8.8c-2.9-5.3-4.9-11.1-5.7-17.4c-17.3-6.7-35.8-10.1-54.9-10.1
	c-40.8,0-79.1,15.9-107.9,44.7c-7.6,7.6-14.4,16-20.1,24.8c0.7,3.4,1.1,6.8,1.1,10.4c0,8.6-2.2,16.7-6.1,23.7l6.5,8.8l3.2,4.4
	c9.5-32.7,31.6-60,60.7-76.3c-2,3.2-4,6.6-5.8,10.2c-12.8,24.7-20.4,56.2-21.9,89.9H83.5v24.2H115c1.5,33.6,9.1,65.2,21.9,89.9
	c1.8,3.6,3.8,7,5.8,10.2c-27.8-15.6-49.2-41.2-59.4-72H58.1c6.9,25.4,20.3,48.7,39.4,67.8c15.6,15.6,34,27.4,54.1,35l4.7-6.4
	l6.5-8.8c-3.9-7-6.1-15.1-6.1-23.7c0-4.6,0.6-9,1.8-13.2c-10.7-20.6-17.7-48.1-19.2-78.8h54.1v44.6c3.9-1,7.9-1.5,12.1-1.5
	s8.2,0.5,12.1,1.5v-44.6h54.1c-1.5,30.7-8.5,58.2-19.2,78.8c1.2,4.2,1.8,8.6,1.8,13.2c0,8.6-2.2,16.7-6.1,23.7l6.5,8.8l4.7,6.4
	c20.1-7.6,38.5-19.4,54.1-35c28.8-28.8,44.7-67.2,44.7-107.9C358.1,161.2,356.7,149.1,353.8,137.5L353.8,137.5z M193.4,161.4h-54.1
	c2.8-57.5,25.2-104,54.1-114.2V161.4z M268.2,285.6c2-3.2,4-6.6,5.8-10.2c12.8-24.7,20.4-56.2,21.9-89.9h37.5
	C329.3,228.6,304.1,265.5,268.2,285.6L268.2,285.6z"/>
<path d="M197.5,300.8c0.1,0,0.1,0,0.2,0.1c0.4,0.1,0.9,0.3,1.3,0.4c0,0,0.1,0,0.1,0c0.5,0.1,1,0.2,1.5,0.3c0,0,0.1,0,0.1,0
	c0.4,0.1,0.9,0.2,1.3,0.2c0.1,0,0.3,0,0.4,0.1c0.4,0,0.7,0.1,1.1,0.1c0.1,0,0.3,0,0.4,0c0.5,0,1,0,1.5,0c0.5,0,1,0,1.5,0
	c0.1,0,0.3,0,0.4,0c0.4,0,0.7-0.1,1.1-0.1c0.1,0,0.3,0,0.4-0.1c0.4-0.1,0.9-0.1,1.3-0.2c0,0,0.1,0,0.1,0c0.5-0.1,1-0.2,1.5-0.3
	c0,0,0.1,0,0.1,0c0.5-0.1,0.9-0.3,1.3-0.4c0.1,0,0.1,0,0.2-0.1c1.4-0.5,2.8-1.1,4.1-1.9l0,0v0c7.5-4.2,12.5-12.3,12.5-21.5
	c0-10.8-7-20-16.7-23.3c-0.1,0-0.1,0-0.2-0.1c-0.4-0.1-0.9-0.3-1.3-0.4c0,0-0.1,0-0.1,0c-0.5-0.1-1-0.2-1.5-0.3c0,0-0.1,0-0.1,0
	c-0.4-0.1-0.9-0.2-1.3-0.2c-0.1,0-0.3,0-0.4-0.1c-0.4,0-0.7-0.1-1.1-0.1c-0.1,0-0.3,0-0.4,0c-0.5,0-1,0-1.5,0s-1,0-1.5,0
	c-0.1,0-0.3,0-0.4,0c-0.4,0-0.7,0.1-1.1,0.1c-0.1,0-0.3,0-0.4,0.1c-0.4,0.1-0.9,0.1-1.3,0.2c0,0-0.1,0-0.1,0c-0.5,0.1-1,0.2-1.5,0.3
	c0,0-0.1,0-0.1,0c-0.5,0.1-0.9,0.3-1.3,0.4c-0.1,0-0.1,0-0.2,0.1c-9.7,3.3-16.7,12.5-16.7,23.3S187.8,297.5,197.5,300.8L197.5,300.8
	z M234.4,323.4l-6.8-9.2h-44.4l-6.8,9.2l0,0l-0.7,1v41.8h59.4v-41.8L234.4,323.4L234.4,323.4L234.4,323.4z"/>
</svg>
