<?xml version="1.0" encoding="utf-8"?>
<!-- Generator: Adobe Illustrator 26.4.1, SVG Export Plug-In . SVG Version: 6.00 Build 0)  -->
<svg version="1.1" id="uuid-f28872f9-3d6e-4e8f-aab1-a5685ef80732"
	 xmlns="http://www.w3.org/2000/svg" xmlns:xlink="http://www.w3.org/1999/xlink" x="0px" y="0px" viewBox="0 0 410.1 358.3"
	 style="enable-background:new 0 0 410.1 358.3;" xml:space="preserve">
<circle cx="205" cy="178.2" r="18.2"/>
<path d="M155,4.2c1.5,4.4,2.4,9.1,2.4,13.9c0,3.5-0.4,7-1.3,10.2H254c-0.8-3.3-1.3-6.7-1.3-10.2c0-4.9,0.8-9.6,2.4-13.9H155L155,4.2
	z M48.9,149.1l52.5-90.9c-7.9-2.7-14.7-7.7-19.8-14.1L28,137C36.1,138.9,43.3,143.2,48.9,149.1L48.9,149.1z M328.5,44.1
	c-5,6.5-11.9,11.4-19.8,14.1l52.5,90.9c5.6-5.9,12.8-10.2,20.9-12.1L328.5,44.1L328.5,44.1z M361.2,207.2l-53.4,92.4
	c8,2.5,14.9,7.3,20,13.7l54.2-93.9C374,217.4,366.7,213.1,361.2,207.2L361.2,207.2z M102.3,299.6l-53.4-92.4
	c-5.6,5.9-12.8,10.2-20.9,12.1l54.2,93.9C87.4,307,94.3,302.2,102.3,299.6L102.3,299.6z M254.5,352.1c-1.1-3.8-1.8-7.9-1.8-12.1
	s0.6-8.3,1.8-12.1h-98.9c1.1,3.8,1.8,7.9,1.8,12.1s-0.6,8.3-1.8,12.1H254.5z"/>
<path d="M295,36.3c-10,0-18.2-8.1-18.2-18.2S285,0,295,0s18.2,8.1,18.2,18.2S305.1,36.3,295,36.3z M115,36.3
	c-10,0-18.2-8.1-18.2-18.2S105,0,115,0s18.2,8.1,18.2,18.2S125,36.3,115,36.3z M295,358.2c-10,0-18.2-8.1-18.2-18.2
	s8.1-18.2,18.2-18.2s18.2,8.1,18.2,18.2S305.1,358.2,295,358.2z M115,358.2c-10,0-18.2-8.1-18.2-18.2s8.1-18.2,18.2-18.2
	s18.2,8.1,18.2,18.2S125,358.2,115,358.2z M18.2,196.3c-10,0-18.2-8.1-18.2-18.2S8.1,160,18.2,160s18.2,8.1,18.2,18.2
	C36.3,188.2,28.2,196.3,18.2,196.3z M391.9,196.3c-10,0-18.2-8.1-18.2-18.2s8.1-18.2,18.2-18.2s18.2,8.1,18.2,18.2
	C410.1,188.2,401.9,196.3,391.9,196.3z"/>
<path d="M325.3,165.3L325.3,165.3l-24.2,0v0c0,60.1-48.9,108.9-108.9,108.9v24.2C265.6,298.4,325.3,238.7,325.3,165.3L325.3,165.3z
	 M192.2,250v-24.2c33.4,0,60.5-27.1,60.5-60.5v0h24.2v0C276.9,212,238.9,250,192.2,250L192.2,250z M84.8,191H109
	c0-60.1,48.9-108.9,108.9-108.9h0V57.9h0C144.5,57.9,84.8,117.6,84.8,191L84.8,191z M217.9,106.3L217.9,106.3l0,24.2h0
	c-33.4,0-60.5,27.1-60.5,60.5h-24.2C133.2,144.3,171.2,106.3,217.9,106.3L217.9,106.3z"/>
</svg>
