<?xml version="1.0" encoding="utf-8"?>
<!-- Generator: Adobe Illustrator 26.4.1, SVG Export Plug-In . SVG Version: 6.00 Build 0)  -->
<svg version="1.1" id="uuid-fda75664-e097-4e69-a922-40a21f7d272c"
	 xmlns="http://www.w3.org/2000/svg" xmlns:xlink="http://www.w3.org/1999/xlink" x="0px" y="0px" viewBox="0 0 324.1 291.9"
	 style="enable-background:new 0 0 324.1 291.9;" xml:space="preserve">
<path d="M-0.4,0v292h324.5V0H-0.4z M21.5,21.9h232.6v24.7H21.5V21.9z M302.2,270.1H21.5V68.5h280.7V270.1z M302.2,46.6H276V21.9
	h26.2V46.6z"/>
<path d="M48.1,178.7v-18.7l63.3-40.4v24.9L70.7,169v0.6l40.7,24.6v24.9L48.1,178.7L48.1,178.7z M212.7,194.2l40.7-24.6V169
	l-40.7-24.6v-24.9l63.3,40.4v18.7l-63.3,40.4V194.2L212.7,194.2z"/>
<polygon points="146.4,205.7 132.3,196 150.5,173.8 123.7,165.9 129,150.3 154.7,160.6 153.3,132.9 170.8,132.9 169.6,160.6 
	195.1,150.3 200.4,165.9 173.6,173.8 191.8,196 177.7,205.5 162,182.1 "/>
</svg>
