<?xml version="1.0" encoding="utf-8"?>
<!-- Generator: Adobe Illustrator 26.4.1, SVG Export Plug-In . SVG Version: 6.00 Build 0)  -->
<svg version="1.1" id="uuid-a1e8185a-da14-4ce9-a66a-e0120f655081"
	 xmlns="http://www.w3.org/2000/svg" xmlns:xlink="http://www.w3.org/1999/xlink" x="0px" y="0px" viewBox="0 0 270 279.6"
	 style="enable-background:new 0 0 270 279.6;" xml:space="preserve">
<path d="M146.1,116.2V84.9H92.9v194.7h53.1v-99.2c0-55.1,70.8-59.6,70.8,0v99.2H270V160C270,67,170.8,70.4,146.1,116.2L146.1,116.2z
	"/>
<rect x="4.4" y="84.9" width="53.1" height="194.7"/>
<ellipse cx="31" cy="31.2" rx="31" ry="31.2"/>
<path d="M270,160v119.7h-53.1v-99.2c0-59.6-70.8-55.1-70.8,0v99.2H92.9V84.9h53.1v31.2C170.8,70.4,270,67,270,160z M4.4,279.6h53.1
	V84.9H4.4V279.6z M31,0C13.9,0,0,14,0,31.2s13.9,31.2,31,31.2c17.1,0,31-14,31-31.2S48.1,0,31,0z"/>
</svg>
