<?xml version="1.0" encoding="utf-8"?>
<!-- Generator: Adobe Illustrator 26.4.1, SVG Export Plug-In . SVG Version: 6.00 Build 0)  -->
<svg version="1.1" id="uuid-5aa5aa4c-9ef3-4a99-8769-6b83791dc313"
	 xmlns="http://www.w3.org/2000/svg" xmlns:xlink="http://www.w3.org/1999/xlink" x="0px" y="0px" viewBox="0 0 407.5 259.9"
	 style="enable-background:new 0 0 407.5 259.9;" xml:space="preserve">
<path d="M390.6,187.8h-36.7V16.9L336.9,0H70.3L53.4,16.9l-0.1,0.1v7.3h0.1v163.6H17l0.1,0.1L0,205l7,7l23.7,23.7l24.2,24.2h297.4
	l24.2-24.2l23.7-23.7l7.3-7.3L390.6,187.8L390.6,187.8z M77.6,26.9v-2.7h252v163.6h-252V26.9z M342.3,235.7H64.9L41.2,212H366
	L342.3,235.7L342.3,235.7z"/>
<path d="M106.8,48.5h17.8v97.1h29.3v16.2h-47.1L106.8,48.5L106.8,48.5z M162.4,48.5h17.8v113.2h-17.8V48.5z M188.8,48.5h18
	l11.6,87.8h0.3l11.6-87.8h16.3l-17.1,113.2h-23.6L188.8,48.5L188.8,48.5z M255.2,48.5h48.5v16.2H273v29.9h24.4v16.2H273v34.8h30.7
	v16.2h-48.5V48.5z"/>
</svg>
