<?xml version="1.0" encoding="utf-8"?>
<!-- Generator: Adobe Illustrator 26.4.1, SVG Export Plug-In . SVG Version: 6.00 Build 0)  -->
<svg version="1.1" id="uuid-0b93ea91-11d5-4cc7-bb90-013ff00b8ef8"
	 xmlns="http://www.w3.org/2000/svg" xmlns:xlink="http://www.w3.org/1999/xlink" x="0px" y="0px" viewBox="0 0 309.2 384.9"
	 style="enable-background:new 0 0 309.2 384.9;" xml:space="preserve">
<path d="M154.6,243.4c26.8,0,48.5-21.8,48.5-48.5s-21.8-48.5-48.5-48.5s-48.5,21.8-48.5,48.5S127.9,243.4,154.6,243.4L154.6,243.4z
	 M213,384.9H96.2v-97.8l14.7-20h87.4l14.7,20L213,384.9L213,384.9z"/>
<path d="M204.7,142.2c6.3-19.4,24.6-33.5,46.1-33.5c26.8,0,48.5,21.8,48.5,48.5s-21.8,48.5-48.5,48.5c-8.6,0-16.6-2.3-23.7-6.2
	c0.1-1.6,0.2-3.1,0.2-4.7C227.3,174.2,218.6,155.5,204.7,142.2L204.7,142.2z M309.2,249.5v97.8h-72v-68.2l-26.7-36.3h-1.4
	c3.6-4.1,6.7-8.6,9.4-13.4h76L309.2,249.5L309.2,249.5z"/>
<path d="M9.9,157.3c0-26.8,21.8-48.5,48.5-48.5c21.5,0,39.8,14.1,46.1,33.5c-13.9,13.3-22.6,31.9-22.6,52.6c0,1.6,0.1,3.2,0.2,4.7
	c-7,3.9-15.1,6.2-23.7,6.2C31.7,205.8,9.9,184,9.9,157.3L9.9,157.3z M72,347.3H0v-97.8l14.7-20h76c2.6,4.8,5.8,9.3,9.4,13.4h-1.4
	L72,279.2V347.3L72,347.3z"/>
<path d="M152,0c-26,0-47.1,21.1-47.1,47.1s47.1,73.7,47.1,73.7S199,73.1,199,47.1S178,0,152,0L152,0z M152,70.6
	c-13,0-23.6-10.6-23.6-23.6S139,23.5,152,23.5c13,0,23.6,10.6,23.6,23.6S165,70.6,152,70.6L152,70.6z"/>
</svg>
