<?xml version="1.0" encoding="utf-8"?>
<!-- Generator: Adobe Illustrator 26.4.1, SVG Export Plug-In . SVG Version: 6.00 Build 0)  -->
<svg version="1.1" id="uuid-304997f3-0452-407e-b96c-abb91bb46cc5"
	 xmlns="http://www.w3.org/2000/svg" xmlns:xlink="http://www.w3.org/1999/xlink" x="0px" y="0px" viewBox="0 0 387.7 359.7"
	 style="enable-background:new 0 0 387.7 359.7;" xml:space="preserve">
<path d="M387.7,108l-34.7-60h-55.3L270,0h-69.3L173,47.9h-55.3L90,95.9H34.7L0,155.9l34.7,60H90l20.7,35.8L83,299.7l34.7,60H187
	l27.7-47.9H270l27.7-47.9H353l34.7-60L360,155.9L387.7,108L387.7,108z M100.4,173.8L90,191.7H48.6l-20.7-35.8l20.7-35.8H90
	l10.3,17.9l10.3,17.9L100.4,173.8L100.4,173.8z M173,335.5h-41.4L111,299.7l20.7-35.8H173l10.3,17.9l10.3,17.9L173,335.5L173,335.5z
	 M183.4,125.9L173,143.8h-41.4l-10.3-17.9L111,108l20.7-35.8H173L183.4,90l10.3,17.9L183.4,125.9L183.4,125.9z M256,287.6h-41.4
	l-10.3-17.9L194,251.8l10.3-17.9l10.3-17.9H256l10.3,17.9l10.3,17.9L256,287.6L256,287.6z M266.4,173.8L256,191.7h-41.4l-10.3-17.9
	L194,155.9l10.3-17.9l10.3-17.9H256l10.3,17.9l10.3,17.9L266.4,173.8L266.4,173.8z M266.4,77.9L256,95.9h-41.4l-10.3-17.9L194,60
	l20.7-35.8H256L276.7,60L266.4,77.9L266.4,77.9z M339.1,239.7h-41.4l-10.3-17.9L277,203.8l10.3-17.9l10.3-17.9h41.4l20.7,35.8
	L339.1,239.7L339.1,239.7z M339.1,143.8h-41.4l-10.3-17.9L277,108L287.3,90l10.3-17.9h41.4l20.7,35.8L339.1,143.8L339.1,143.8z"/>
</svg>
