<?xml version="1.0" encoding="utf-8"?>
<!-- Generator: Adobe Illustrator 26.4.1, SVG Export Plug-In . SVG Version: 6.00 Build 0)  -->
<svg version="1.1" id="uuid-4ee42bf2-5b64-4f32-8d39-85018a161321"
	 xmlns="http://www.w3.org/2000/svg" xmlns:xlink="http://www.w3.org/1999/xlink" x="0px" y="0px" viewBox="0 0 390.3 257.8"
	 style="enable-background:new 0 0 390.3 257.8;" xml:space="preserve">
<path d="M328.6,95.5c-9.2-35.5-41.5-61.7-79.8-61.7c-6.1,0-12.1,0.7-17.9,1.9C218.7,18,199.6,5.4,177.6,1.5
	c-4.8-0.9-9.7-1.5-14.7-1.5c-12.1,0-23.5,2.7-33.8,7.3C103.5,18.9,84.8,43,81.1,72c-35.2,4.6-64.2,28.9-75.7,61.5
	c-3.4,9.7-5.4,20.1-5.4,31c0,4.4,0.4,8.8,1,13.1c6.4,45.3,45.2,80.3,92.3,80.3h214.5c45.5,0,82.5-36.9,82.5-82.5
	C390.3,137,364.1,104.7,328.6,95.5L328.6,95.5z M79.8,182.8C65.5,182.8,54,171.3,54,157s11.5-25.8,25.8-25.8s25.8,11.5,25.8,25.8
	S94,182.8,79.8,182.8z M176.7,182.8h-51.5v-51.5h51.5V182.8z M228.9,193.5L192.5,157l36.4-36.4l36.4,36.4L228.9,193.5L228.9,193.5z
	 M307.7,182.8c-14.2,0-25.8-11.5-25.8-25.8s11.5-25.8,25.8-25.8s25.8,11.5,25.8,25.8S321.9,182.8,307.7,182.8L307.7,182.8z"/>
</svg>
