<?xml version="1.0" encoding="utf-8"?>
<!-- Generator: Adobe Illustrator 26.4.1, SVG Export Plug-In . SVG Version: 6.00 Build 0)  -->
<svg version="1.1" id="uuid-f1959103-2bba-4dbe-bd8b-96e860077fbb"
	 xmlns="http://www.w3.org/2000/svg" xmlns:xlink="http://www.w3.org/1999/xlink" x="0px" y="0px" viewBox="0 0 314.7 324"
	 style="enable-background:new 0 0 314.7 324;" xml:space="preserve">
<path d="M231.2,245l83.5,0.2l0.2-221H209.7V0H105v24.2H-0.2V245h83.7v24.2h14.1L78.4,324H104l19.2-54.8h68.3l19.2,54.8h25.6
	l-19.2-54.8h14.1L231.2,245L231.2,245z M24.3,220.9V48.4h266.2v172.5C290.5,220.9,24.3,220.9,24.3,220.9z"/>
<g>
	<circle cx="69.7" cy="134.5" r="19.8"/>
	<circle cx="245.1" cy="134.5" r="19.8"/>
	<rect x="104.6" y="114.7" width="39.6" height="39.6"/>
	<rect x="164.7" y="114.7" transform="matrix(0.7071 -0.7071 0.7071 0.7071 -41.0813 169.8459)" width="39.6" height="39.6"/>
</g>
</svg>
