<?xml version="1.0" encoding="utf-8"?>
<!-- Generator: Adobe Illustrator 26.4.1, SVG Export Plug-In . SVG Version: 6.00 Build 0)  -->
<svg version="1.1" id="a964f720-f676-441a-9cc4-0e276e1b4946"
	 xmlns="http://www.w3.org/2000/svg" xmlns:xlink="http://www.w3.org/1999/xlink" x="0px" y="0px" viewBox="0 0 45.5 60.3"
	 style="enable-background:new 0 0 45.5 60.3;" xml:space="preserve">
<style type="text/css">
	.st0{fill-rule:evenodd;clip-rule:evenodd;fill:#26D07C;}
	.st1{fill-rule:evenodd;clip-rule:evenodd;fill:#FFFFFF;}
	.st2{fill:#F7F7F7;}
</style>
<g>
	<path class="st0" d="M4.6,0h36.3c2.5,0,4.6,2.1,4.6,4.6v55.6l0,0H0l0,0V4.6C0,2.1,2.1,0,4.6,0z"/>
	<path class="st1" d="M8.1,16.9L8.1,16.9c0-3.2,2.6-5.8,5.8-5.8c3.2,0,5.8,2.6,5.8,5.8c0,3.2-2.6,5.8-5.8,5.8
		C10.7,22.8,8.1,20.2,8.1,16.9C8.1,17,8.1,17,8.1,16.9z"/>
	<path class="st1" d="M25.8,16.9L25.8,16.9c0-3.2,2.6-5.8,5.8-5.8c3.2,0,5.8,2.6,5.8,5.8c0,3.2-2.6,5.8-5.8,5.8
		C28.4,22.8,25.8,20.2,25.8,16.9z"/>
	<rect x="8.1" y="30.1" class="st2" width="29.3" height="2.3"/>
</g>
</svg>
