<?xml version="1.0" encoding="utf-8"?>
<!-- Generator: Adobe Illustrator 26.4.1, SVG Export Plug-In . SVG Version: 6.00 Build 0)  -->
<svg version="1.1" id="a27b6762-0248-40ca-b3aa-145818c987d5"
	 xmlns="http://www.w3.org/2000/svg" xmlns:xlink="http://www.w3.org/1999/xlink" x="0px" y="0px" viewBox="0 0 45.5 60.3"
	 style="enable-background:new 0 0 45.5 60.3;" xml:space="preserve">
<style type="text/css">
	.st0{fill-rule:evenodd;clip-rule:evenodd;fill:#FC5D0D;}
	.st1{fill-rule:evenodd;clip-rule:evenodd;fill:#FFFFFF;}
	.st2{fill:#F7F7F7;}
</style>
<g>
	<path class="st0" d="M4.6,0h36.3c2.5,0,4.6,2.1,4.6,4.6v55.7l0,0H0l0,0V4.6C0,2.1,2,0,4.6,0z"/>
	<path class="st1" d="M8.1,17L8.1,17c0-3.2,2.6-5.8,5.8-5.8s5.8,2.6,5.8,5.8s-2.6,5.8-5.8,5.8S8.1,20.2,8.1,17L8.1,17z"/>
	<path class="st1" d="M25.7,17L25.7,17c0-3.2,2.6-5.8,5.8-5.8s5.8,2.6,5.8,5.8s-2.6,5.8-5.8,5.8S25.7,20.2,25.7,17L25.7,17z"/>
	<rect x="8.1" y="30.1" class="st2" width="29.3" height="2.3"/>
</g>
</svg>
