<?xml version="1.0" encoding="utf-8"?>
<!-- Generator: Adobe Illustrator 26.4.1, SVG Export Plug-In . SVG Version: 6.00 Build 0)  -->
<svg version="1.1" id="uuid-96fd8e2c-ed9b-4004-973d-102ebe993fab"
	 xmlns="http://www.w3.org/2000/svg" xmlns:xlink="http://www.w3.org/1999/xlink" x="0px" y="0px" viewBox="0 0 296.9 353.8"
	 style="enable-background:new 0 0 296.9 353.8;" xml:space="preserve">
<path d="M195.4,122.1V94.2l101.5-40.8L169.1,0v122.7l-1,2.4l-48.9,114.7l-35.3-83L0,353.8h294.1l-97.4-228.7L195.4,122.1
	L195.4,122.1z M81.9,327.5H39.7l44.2-103.7l20.7,48.5l1-0.4L81.9,327.5L81.9,327.5z M254.3,327.5H110.4l32.7-76.8l17.4,17.4
	l24.1-24.1l24.8,24.8l13.3-15.4L254.3,327.5L254.3,327.5z M208.1,230.3l-23.4-23.4L160.6,231l-6.3-6.3l28.1-66.1l28.9,67.9
	L208.1,230.3L208.1,230.3z"/>
</svg>
