<?xml version="1.0" encoding="utf-8"?>
<!-- Generator: Adobe Illustrator 26.4.1, SVG Export Plug-In . SVG Version: 6.00 Build 0)  -->
<svg version="1.1" id="uuid-9c97631d-ad7d-4c28-8ee5-eda8150ce5af"
	 xmlns="http://www.w3.org/2000/svg" xmlns:xlink="http://www.w3.org/1999/xlink" x="0px" y="0px" viewBox="0 0 318.3 380.1"
	 style="enable-background:new 0 0 318.3 380.1;" xml:space="preserve">
<path d="M228.3,169.2l-12-28.2H179l-12.2,28.2l-37.7,87.5l-38.3-89.8L0,380.1h318.3L228.3,169.2L228.3,169.2z M197.4,168.9
	l31.3,73.5l-3.5,4.1l-25.3-25.3l-26.1,26.1l-6.8-6.8L197.4,168.9L197.4,168.9z M88.6,351.7H43l47.8-112.2l22.4,52.6l1-0.4
	L88.6,351.7L88.6,351.7z M155,268.6l18.9,18.9l26.1-26.1l26.9,26.9l14.4-16.7l34.2,80.2H119.5L155,268.6L155,268.6z"/>
<path d="M197.4,27.7c7.7,0,13.9-6.2,13.9-13.9S205.1,0,197.4,0s-13.9,6.2-13.9,13.9S189.8,27.7,197.4,27.7z M240.4,16.3l-29.5,15.2
	H184l-29.5-15.2l-6,10.8l31.6,17.1v90.2h15.3V77.5h4.1v56.9h15.3V44.2l31.6-17.1L240.4,16.3L240.4,16.3z"/>
</svg>
