<?xml version="1.0" encoding="utf-8"?>
<!-- Generator: Adobe Illustrator 26.4.1, SVG Export Plug-In . SVG Version: 6.00 Build 0)  -->
<svg version="1.1" id="uuid-1b550919-1718-4eb9-a4f5-c24bf5dd199a"
	 xmlns="http://www.w3.org/2000/svg" xmlns:xlink="http://www.w3.org/1999/xlink" x="0px" y="0px" viewBox="0 0 332.8 334.8"
	 style="enable-background:new 0 0 332.8 334.8;" xml:space="preserve">
<path d="M271.9,246.5l-45.7-45.7c5.1-7.5,8.7-16,10.4-25.2h27.8c5.3,13,18,22.2,32.9,22.2c19.5,0,35.4-15.9,35.4-35.4
	S316.9,127,297.3,127c-15.4,0-28.5,9.8-33.4,23.5h-27.3c-1.7-9.2-5.4-17.7-10.4-25.2l52-52c4.4,1.9,9.1,2.8,13.9,2.8
	c9.1,0,18.1-3.5,25.1-10.4l0,0c13.8-13.8,13.8-36.3,0-50.1C303.3,2,280.8,2,267,15.8c-6.7,6.7-10.4,15.6-10.4,25.1
	c0,5.3,1.2,10.5,3.4,15.2l-51.6,51.6c-7.5-5.1-16-8.7-25.2-10.4V68.3c13-5.3,22.2-18,22.2-32.9C205.5,15.9,189.6,0,170,0
	s-35.4,15.9-35.4,35.4c0,15.4,9.8,28.5,23.5,33.4v28.4c-9.2,1.7-17.7,5.4-25.2,10.4l-36-36c1.8-4.3,2.8-9,2.8-13.9
	c0-9.5-3.7-18.4-10.4-25.1l0,0C82.7,26,73.8,22.3,64.3,22.3S46,26,39.3,32.7c-6.7,6.7-10.4,15.6-10.4,25.1s3.7,18.4,10.4,25.1
	c6.7,6.7,15.6,10.4,25.1,10.4c5.3,0,10.5-1.2,15.2-3.4l35.6,35.6c-5.1,7.5-8.7,16-10.4,25.2H75.8c-5.3-13-18-22.2-32.9-22.2
	c-19.5,0-35.4,15.9-35.4,35.4s15.9,35.4,35.4,35.4c15.4,0,28.5-9.8,33.4-23.5h28.4c1.7,9.2,5.4,17.7,10.4,25.2l-65.9,65.9
	c-4.3-1.8-9-2.8-13.9-2.8c-9.5,0-18.4,3.7-25.1,10.4l0,0C3.7,281,0,289.9,0,299.4s3.7,18.4,10.4,25.1c6.7,6.7,15.6,10.4,25.1,10.4
	s18.4-3.7,25.1-10.4c6.7-6.7,10.4-15.6,10.4-25.1c0-5.3-1.2-10.5-3.4-15.2l65.5-65.5c7.5,5.1,16,8.7,25.2,10.4v27.6
	c-13,5.3-22.2,18-22.2,32.9c0,19.5,15.9,35.4,35.4,35.4s35.4-15.9,35.4-35.4c0-15.4-9.8-28.5-23.5-33.4v-27.1
	c9.2-1.7,17.7-5.4,25.2-10.4l46,46c-1.8,4.3-2.8,9-2.8,13.9c0,9.5,3.7,18.4,10.4,25.1l0,0c6.9,6.9,16,10.4,25.1,10.4
	s18.1-3.5,25.1-10.4c13.8-13.8,13.8-36.3,0-50.1C301.2,242.6,285,240.3,271.9,246.5L271.9,246.5z M297.3,152.2
	c5.7,0,10.3,4.6,10.3,10.3s-4.6,10.3-10.3,10.3s-10.3-4.6-10.3-10.3S291.7,152.2,297.3,152.2z M284.7,33.6c2-2,4.6-3,7.3-3
	s5.3,1,7.3,3c4,4,4,10.5,0,14.6c-4,4-10.5,4-14.6,0c-1.9-1.9-3-4.5-3-7.3S282.8,35.5,284.7,33.6L284.7,33.6z M71.6,65
	c-1.9,1.9-4.5,3-7.3,3S59,67,57.1,65c-1.9-1.9-3-4.5-3-7.3s1.1-5.3,3-7.3c1.9-1.9,4.5-3,7.3-3s5.3,1.1,7.3,3l0,0
	c1.9,1.9,3,4.5,3,7.3S73.6,63.1,71.6,65L71.6,65z M43,174.1c-5.7,0-10.3-4.6-10.3-10.3s4.6-10.3,10.3-10.3s10.3,4.6,10.3,10.3
	S48.7,174.1,43,174.1z M42.7,306.7c-1.9,1.9-4.5,3-7.3,3s-5.3-1.1-7.3-3c-1.9-1.9-3-4.5-3-7.3s1.1-5.3,3-7.3l0,0
	c1.9-1.9,4.5-3,7.3-3s5.3,1.1,7.3,3c1.9,1.9,3,4.5,3,7.3S44.7,304.7,42.7,306.7L42.7,306.7z M170,25.1c5.7,0,10.3,4.6,10.3,10.3
	s-4.6,10.3-10.3,10.3s-10.3-4.6-10.3-10.3S164.3,25.1,170,25.1z M171.4,299.9c-5.7,0-10.3-4.6-10.3-10.3s4.6-10.3,10.3-10.3
	s10.3,4.6,10.3,10.3S177.1,299.9,171.4,299.9z M170.7,205.1c-23.2,0-42-18.8-42-42s18.8-42,42-42s42,18.8,42,42
	S193.9,205.1,170.7,205.1z M294.3,285.8c-4,4-10.5,4-14.6,0l0,0c-1.9-1.9-3-4.5-3-7.3s1.1-5.3,3-7.3c4-4,10.5-4,14.6,0
	C298.3,275.3,298.3,281.8,294.3,285.8L294.3,285.8z"/>
</svg>
