<?xml version="1.0" encoding="utf-8"?>
<!-- Generator: Adobe Illustrator 26.4.1, SVG Export Plug-In . SVG Version: 6.00 Build 0)  -->
<svg version="1.1" id="uuid-78e0f3b9-525d-4455-bc90-7d0c73353d01"
	 xmlns="http://www.w3.org/2000/svg" xmlns:xlink="http://www.w3.org/1999/xlink" x="0px" y="0px" viewBox="0 0 368.5 368.5"
	 style="enable-background:new 0 0 368.5 368.5;" xml:space="preserve">
<style type="text/css">
	.st0{fill:#FC5D0D;}
	.st1{fill:#FFFFFF;}
</style>
<path class="st0" d="M51.1,0h266.3c28.2,0,51.1,22.9,51.1,51.1v266.3c0,28.2-22.9,51.1-51.1,51.1H51.1C22.9,368.5,0,345.6,0,317.4
	V51.1C0,22.9,22.9,0,51.1,0z"/>
<g>
	<path class="st1" d="M184,240.8c28.8,0,43.6-17,43.8-46.8v-24.7h-27.7v26.6c0,13.3-5.8,18-15.2,18c-9.2,0-15.2-4.7-15.2-18V95.2
		c0-13.3,5.8-18.5,15.2-18.3c9.2,0,15.2,5.2,15.2,18.5v20h27.7v-18c0-29.8-14.8-46.8-43.6-46.8c-28.8,0-43.6,17-43.8,46.8v96.8
		C140.4,223.6,155.2,240.8,184,240.8L184,240.8z"/>
	<rect x="140.4" y="268.1" class="st1" width="87.4" height="49.4"/>
</g>
</svg>
