<?xml version="1.0" encoding="utf-8"?>
<!-- Generator: Adobe Illustrator 26.4.1, SVG Export Plug-In . SVG Version: 6.00 Build 0)  -->
<svg version="1.1" id="uuid-e56873ca-1e20-4122-a38c-a9eb6fbce502"
	 xmlns="http://www.w3.org/2000/svg" xmlns:xlink="http://www.w3.org/1999/xlink" x="0px" y="0px" viewBox="0 0 379.5 117.8"
	 style="enable-background:new 0 0 379.5 117.8;" xml:space="preserve">
<polygon points="16.7,32.5 16.7,117.8 0,117.8 0,0 23.2,0 42.2,70.5 42.2,0 58.7,0 58.7,117.8 39.7,117.8 "/>
<polygon points="90.5,49.6 116,49.6 116,66.5 90.5,66.5 90.5,101 122.5,101 122.5,117.8 72,117.8 72,0 122.5,0 122.5,16.8 
	90.5,16.8 "/>
<polygon points="175,55 168.3,117.8 142.9,117.8 129.8,0 147.8,0 157.7,92.9 166.6,0 184.4,0 193.7,93.6 203.3,0 219.5,0 
	206.3,117.8 181.8,117.8 "/>
<path d="M272.1,55c8.2-3.9,11.9-11.6,11.9-23.7v-4.2c0-18.2-8.2-27.1-27.4-27.1h-27.9v117.8h29.1c18.5,0,28.1-9.8,28.1-27.9v-9.6
	C285.9,67.8,282.1,58.9,272.1,55L272.1,55z M247.2,16.8h8.9c6.6,0,9.4,3.7,9.4,12.1v6.6c0,9.4-4.2,12.5-11.1,12.5h-7.2V16.8z
	 M267.4,89.4c0,8.8-3.4,11.6-9.6,11.6h-10.6V64.8h8.2c8.4,0,11.9,3.4,11.9,14.3V89.4L267.4,89.4z"/>
<rect x="297" width="18.5" height="117.8"/>
<polygon points="347.5,49.6 372.9,49.6 372.9,66.5 347.5,66.5 347.5,101 379.5,101 379.5,117.8 329,117.8 329,0 379.5,0 379.5,16.8 
	347.5,16.8 "/>
</svg>
