<?xml version="1.0" encoding="utf-8"?>
<!-- Generator: Adobe Illustrator 26.4.1, SVG Export Plug-In . SVG Version: 6.00 Build 0)  -->
<svg version="1.1" id="uuid-1cdc405f-be32-44a4-af4e-e7b6dcc08d12"
	 xmlns="http://www.w3.org/2000/svg" xmlns:xlink="http://www.w3.org/1999/xlink" x="0px" y="0px" viewBox="0 0 382.1 253.5"
	 style="enable-background:new 0 0 382.1 253.5;" xml:space="preserve">
<path d="M143.1,203.9L143.1,203.9L143.1,203.9z"/>
<path d="M98.6,0v60.8c-3.9-0.4-8-0.7-12.2-0.7C32.8,60.2,0,97.7,0,156.8s32.8,96.7,86.4,96.7h43.8v-17.2H86.4
	c-41.9,0-64.1-30.1-64.1-72.7v-13.5c0-42.6,22.1-72.7,64.1-72.7c38.2,0,61.7,24.5,61.7,64.5v13.7c0,23.8-6.1,31.7-15.6,31.7
	c-6.3,0-9.8-4.4-9.8-12.3v-63.6H98.5v15.8h-2.8c-1.9-10.5-8.2-17.7-19.6-17.7c-20.3,0-31.9,15.4-31.9,48.5s11.6,48.5,31.9,48.5
	c13.3,0,20.7-8.4,22.8-20h2.8c0.9,11.9,10.3,20,26.8,20c2.7,0,5.2-0.2,7.7-0.7l0,0h245.8V0H98.6z M98.5,172.7
	c0,7.9-6.3,13.7-13.7,13.7c-9.6,0-15.4-6.5-15.4-18.2v-20.5c0-11.6,5.8-18.2,15.4-18.2c7.5,0,13.7,5.8,13.7,13.7V172.7L98.5,172.7z
	 M323.8,24.2l-71.8,71.9h-20.4l-73.6-71.9L323.8,24.2L323.8,24.2z M357.9,181.6H164.2c3.5-8.8,5.4-20,5.4-33.6
	c0-41.6-18-69.2-46.8-81.1V24.2h0.5l98.3,96.1H262l96-96.1L357.9,181.6L357.9,181.6z"/>
</svg>
