<?xml version="1.0" encoding="utf-8"?>
<!-- Generator: Adobe Illustrator 26.4.1, SVG Export Plug-In . SVG Version: 6.00 Build 0)  -->
<svg version="1.1" id="uuid-b7a319ce-77ea-4c80-9109-f6a01e9ea373"
	 xmlns="http://www.w3.org/2000/svg" xmlns:xlink="http://www.w3.org/1999/xlink" x="0px" y="0px" viewBox="0 0 305 313"
	 style="enable-background:new 0 0 305 313;" xml:space="preserve">
<path d="M253,98.9V0H0v263.2C0,290.7,22.3,313,49.8,313h203.4c28.6,0,51.8-23.2,51.8-51.8V98.9H253z M233,98.9V293H49.8
	C33.4,293,20,279.6,20,263.2V20h213V98.9z M285,261.2c0,17.5-14.3,31.8-31.8,31.8H253V118.9h32V261.2z"/>
<path d="M206,169H47.4v-24.2H206V169z M206,217.4H47.4v-24.2H206V217.4z M206,264.2H47.4V240H206V264.2z"/>
<polygon points="47.4,48 47.4,72.2 47.4,96.4 47.4,120.6 206,120.6 206,96.4 206,72.2 206,48 "/>
</svg>
