<?xml version="1.0" encoding="utf-8"?>
<!-- Generator: Adobe Illustrator 26.4.1, SVG Export Plug-In . SVG Version: 6.00 Build 0)  -->
<svg version="1.1" id="uuid-f58a9324-4308-4625-a786-16299fa8946a"
	 xmlns="http://www.w3.org/2000/svg" xmlns:xlink="http://www.w3.org/1999/xlink" x="0px" y="0px" viewBox="0 0 336.8 346"
	 style="enable-background:new 0 0 336.8 346;" xml:space="preserve">
<style type="text/css">
	.st0{fill:#B51F2D;}
</style>
<path class="st0" d="M23.5,220.3c-27.4,28.9-26.8,74.9,1.3,103c28.1,28,73.1,27.4,100.5-1.5c27.4-28.9,26.8-75-1.3-103
	C95.9,190.7,50.9,191.4,23.5,220.3L23.5,220.3z"/>
<path class="st0" d="M319.9,160.9l0.4-0.2l7.6,30.6l-32.9,14l-15.7-27.1l1.2-0.5c-11.6,2.2-23.7,2.4-35.8,0.2L229,205.1l-32.8-13.9
	l7.6-30.6l0.7,0.3c-9.9-7.1-18.2-15.9-24.9-25.7l0.1,0.1l-29.9,7.8l-13.6-33.7l26.4-16.2l0.5,1.2c-2.1-11.9-2.2-24.3-0.1-36.7
	l-26.5-16.1l13.6-33.7l29.8,7.7l-0.4,0.9c4.1-6,8.8-11.6,14-16.5H22C9.9,0,0,10.1,0,22.6v147.7l20.3,15l-0.7,0.8
	c10-6.8,21-11.5,32.3-14.2h-0.2l4-30.8l35-0.6l4.8,30.6l-1.2,0c11.4,2.3,22.5,6.7,32.6,13.1l24-18.9l25.1,25l-17.8,25.1l-0.6-0.7
	c6.6,10.2,11.1,21.3,13.7,32.9v-0.1l30.1,4l0.5,35.8l-29.9,4.9l0-1.1c-2.3,11.7-6.6,23-12.9,33.4L175,346h139.8
	c12.2,0,22-10.1,22-22.7V145.9C331.7,151.6,326,156.6,319.9,160.9L319.9,160.9z"/>
<path class="st0" d="M234.7,144.3c36.8,15.7,79.1-2.3,94.5-40.2c15.3-37.9-2.1-81.2-39-96.9c-36.8-15.7-79.1,2.3-94.4,40.2
	C180.4,85.3,197.9,128.6,234.7,144.3L234.7,144.3z"/>
</svg>
