<svg id="eXbtkFPzpGT1" xmlns="http://www.w3.org/2000/svg" xmlns:xlink="http://www.w3.org/1999/xlink" viewBox="0 0 237.4 244.1" shape-rendering="geometricPrecision" text-rendering="geometricPrecision" style="background-color:transparent"><style><![CDATA[#eXbtkFPzpGT5_tr {animation: eXbtkFPzpGT5_tr__tr 3000ms linear infinite normal forwards}@keyframes eXbtkFPzpGT5_tr__tr { 0% {transform: translate(184.099998px,54.549999px) rotate(0deg)} 100% {transform: translate(184.099998px,54.549999px) rotate(-180deg)}} #eXbtkFPzpGT6_tr {animation: eXbtkFPzpGT6_tr__tr 3000ms linear infinite normal forwards}@keyframes eXbtkFPzpGT6_tr__tr { 0% {transform: translate(53.400002px,190.25px) rotate(0deg)} 100% {transform: translate(53.400002px,190.25px) rotate(180deg)}}]]></style><path d="M222.5,242.2h-207.6c-7.3,0-13.2-5.9-13.2-13.2v-214C1.7,7.7,7.6,1.8,14.9,1.8h207.7c7.3,0,13.2,5.9,13.2,13.2v214.1c-.1,7.2-6,13.1-13.3,13.1Z" fill="#b5152b"/><path d="M88.7,225.5c-19.1,20.1-50.3,20.5-69.8,1s-19.9-51.5-.9-71.5c19-20.1,50.3-20.5,69.8-1.1c19.6,19.5,20,51.5.9,71.6" fill="#b5152b"/><path d="M230.4,74.2c-10.6,26.3-40,38.8-65.6,27.9s-37.7-41-27.1-67.3s40-38.8,65.6-27.9s37.8,41,27.1,67.3" fill="#b5152b"/><g id="eXbtkFPzpGT5_tr" transform="translate(184.099998,54.549999) rotate(0)"><path d="M239.3,97l18.6,7.8l14-33.7-18.4-7.7c.8-5.9.8-11.7.1-17.6l18.3-7.5-14-33.7-18.4,7.5c-1.8-2.4-3.8-4.6-5.8-6.7-2.1-2.1-4.3-4.1-6.7-5.9l7.6-18.1-34-14.1-7.4,18c-5.9-.8-11.8-.8-17.7-.1l-7.4-17.9L134.4,-19l7.4,17.9c-2.4,1.8-4.6,3.7-6.7,5.8-2.1,2-4,4.2-5.9,6.6L111,3.6L97.1,37.2l18,7.6c-.8,5.9-.8,11.8-.1,17.6L96.3,70l13.9,33.8l18.7-7.6c1.8,2.4,3.8,4.6,5.8,6.7c2.1,2.1,4.3,4.1,6.7,5.9l-7.9,19l33.8,14l7.8-18.8c5.9.8,11.8.8,17.7.1l7.8,18.7l33.8-13.6-7.8-18.8c2.3-1.8,4.6-3.7,6.6-5.8c2.3-2.1,4.2-4.3,6.1-6.6v0Zm-73.5,2.2c-24.6-10.2-36.3-38.4-26.1-63s38.4-36.3,63-26.1s36.3,38.4,26.1,63-38.4,36.3-63,26.1v0Z" transform="translate(-184.099998,-54.549999)" fill="#fff"/></g><g id="eXbtkFPzpGT6_tr" transform="translate(53.400002,190.25) rotate(0)"><path d="M88.5,250.1l14.3,14.2l25.6-26-14.2-14c2.9-5.1,5.1-10.6,6.7-16.3h19.8l-.2-36.5h-19.8c-.8-2.9-1.8-5.7-2.9-8.4s-2.5-5.4-4-8l13.8-14-26.2-25.8-13.6,14c-5.1-2.9-10.6-5.2-16.3-6.7l-.1-19.3h-36.5l.1,19.3c-2.9.8-5.7,1.7-8.3,2.8-2.7,1.1-5.3,2.4-7.9,3.9l-14-13.9-25.5,25.9L-7,155.1c-2.9,5.2-5.2,10.6-6.7,16.3h-20.2l.2,36.5h20.2c.8,2.9,1.8,5.7,2.9,8.4c1.2,2.7,2.5,5.4,4,7.9L-21,239L5.1,264.6l14.3-14.5c5.2,3,10.7,5.2,16.4,6.8l.2,20.3h36.5l-.2-20.4c2.8-.8,5.6-1.7,8.3-2.8s5.3-2.4,7.9-3.9v0ZM19.6,224.5c-19-18.7-19.2-49.2-.6-68.2s49.2-19.2,68.2-.6s19.2,49.2.6,68.2-49.2,19.3-68.2.6v0Z" transform="translate(-53.400002,-190.25)" fill="#fff"/></g></svg>