<?xml version="1.0" encoding="utf-8"?>
<!-- Generator: Adobe Illustrator 26.4.1, SVG Export Plug-In . SVG Version: 6.00 Build 0)  -->
<svg version="1.1" id="uuid-ef62cafd-771d-4cd7-a395-4832b24f3142"
	 xmlns="http://www.w3.org/2000/svg" xmlns:xlink="http://www.w3.org/1999/xlink" x="0px" y="0px" viewBox="0 0 360.7 364.6"
	 style="enable-background:new 0 0 360.7 364.6;" xml:space="preserve">
<path d="M356,208.8c-11.3-7.6-24.5-5.5-36.3,1.3s-79.3,64.5-79.3,64.5l-66.4,0c-3.1,0-6.4-3.5-6.4-6.6c0-3.6,3.2-6.4,6.4-6.4h40.7
	c14.2,0,30.2-9.3,30.2-25.8c0-17.5-15.9-25.8-30.2-25.8c-24.7,0-29.5,0.1-29.5,0.1c-9.9,0-19.9-0.6-27.6-4.7
	c-10.3-5.3-22.2-8.3-34.8-8.3c-21.3,0-40.3,8.5-53.4,21.9L0,287.4l77.3,77.3l25.8-25.8h130.4c13,0,25.5-4.8,35.2-13.4l88.3-99
	C362.3,221.7,362,212.9,356,208.8L356,208.8z"/>
<path d="M277.9,103.6l19.9,0.1V67.7l-19.7,0c-1.5-5.6-3.7-11-6.6-16.1l13.9-13.7L260,12.4l-13.9,13.7c-2.6-1.5-5.2-2.8-7.8-3.9
	c-2.7-1.1-5.4-2.1-8.3-2.8L230.1,0h-36.3l0.1,19.2c-5.6,1.5-11,3.7-16.1,6.6l-13.5-13.5l-25.7,25.2L152.1,51
	c-1.5,2.5-2.8,5.1-3.9,7.8c-1.1,2.6-2.1,5.4-2.9,8.2l-19.5-0.1v35.9l19.3,0.1c1.5,5.6,3.7,11,6.6,16.1l-14.2,14l25.4,25.5l14.2-14
	c2.6,1.5,5.2,2.8,7.9,3.9c2.7,1.1,5.5,2.1,8.3,2.8v20.3l36.1,0l0-20.1c5.7-1.5,11.1-3.7,16.2-6.6l14.2,14.1l25.7-25.2l-14.2-14.2
	c1.5-2.5,2.8-5.1,3.9-7.8C276.2,109.1,277.1,106.4,277.9,103.6L277.9,103.6z M211.8,133.3c-26.2,0-47.5-21.3-47.5-47.5
	s21.3-47.5,47.5-47.5s47.5,21.3,47.5,47.5S238.1,133.3,211.8,133.3z"/>
</svg>
