<?xml version="1.0" encoding="utf-8"?>
<!-- Generator: Adobe Illustrator 26.4.1, SVG Export Plug-In . SVG Version: 6.00 Build 0)  -->
<svg version="1.1" id="uuid-6038d6d8-397a-43be-8890-1e1380d62de1"
	 xmlns="http://www.w3.org/2000/svg" xmlns:xlink="http://www.w3.org/1999/xlink" x="0px" y="0px" viewBox="0 0 377.7 377.7"
	 style="enable-background:new 0 0 377.7 377.7;" xml:space="preserve">
<g>
	<ellipse transform="matrix(0.1602 -0.9871 0.9871 0.1602 131.6504 206.2697)" cx="187" cy="25.8" rx="25.8" ry="25.8"/>
	<path d="M118.6,70.8c12.3-7.1,16.5-22.9,9.4-35.2c-7.1-12.3-22.9-16.5-35.2-9.4s-16.5,22.9-9.4,35.2
		C90.5,73.7,106.3,77.9,118.6,70.8z"/>
	<path d="M33.8,131.2c12.3,7.1,28.1,2.9,35.2-9.4c7.1-12.3,2.9-28.1-9.4-35.2c-12.3-7.1-28.1-2.9-35.2,9.4S21.5,124.1,33.8,131.2z"
		/>
	<path d="M51.5,190.6c0-14.2-11.5-25.8-25.8-25.8S0,176.4,0,190.6s11.5,25.8,25.8,25.8S51.5,204.9,51.5,190.6z"/>
	<path d="M35.6,249.6c-12.3,7.1-16.5,22.9-9.4,35.2c7.1,12.3,22.9,16.5,35.2,9.4c12.3-7.1,16.5-22.9,9.4-35.2
		C63.7,246.7,48,242.5,35.6,249.6z"/>
	<path d="M121.7,308.7c-12.3-7.1-28.1-2.9-35.2,9.4c-7.1,12.3-2.9,28.1,9.4,35.2c12.3,7.1,28.1,2.9,35.2-9.4
		C138.3,331.5,134.1,315.8,121.7,308.7L121.7,308.7z"/>
	<path d="M190.6,326.1c-14.2,0-25.8,11.5-25.8,25.8c0,14.2,11.5,25.8,25.8,25.8s25.8-11.5,25.8-25.8
		C216.4,337.7,204.9,326.1,190.6,326.1z"/>
	<path d="M259.1,306.9c-12.3,7.1-16.5,22.9-9.4,35.2c7.1,12.3,22.9,16.5,35.2,9.4s16.5-22.9,9.4-35.2
		C287.1,304,271.4,299.7,259.1,306.9z"/>
	<path d="M343.9,246.5c-12.3-7.1-28.1-2.9-35.2,9.4c-7.1,12.3-2.9,28.1,9.4,35.2c12.3,7.1,28.1,2.9,35.2-9.4
		C360.4,269.4,356.2,253.6,343.9,246.5z"/>
	<circle cx="351.9" cy="187" r="25.8"/>
	<path d="M342.1,128.1c12.3-7.1,16.5-22.9,9.4-35.2s-22.9-16.5-35.2-9.4c-12.3,7.1-16.5,22.9-9.4,35.2S329.7,135.2,342.1,128.1
		L342.1,128.1z"/>
	<path d="M255.9,69c12.3,7.1,28.1,2.9,35.2-9.4c7.1-12.3,2.9-28.1-9.4-35.2c-12.3-7.1-28.1-2.9-35.2,9.4
		C239.4,46.2,243.6,61.9,255.9,69z"/>
</g>
<path d="M236.8,241.9L283,242l0.1-136.5h-58.3V92h-72v13.4H94.5v136.4h46.4v13.4h4.9l-10.6,30.4h29l10.6-30.4h27.9l10.6,30.4h29
	l-10.6-30.4h4.9L236.8,241.9L236.8,241.9z M122.1,214.5v-81.6h133.6v81.6H122.1z"/>
</svg>
