<?xml version="1.0" encoding="utf-8"?>
<!-- Generator: Adobe Illustrator 26.4.1, SVG Export Plug-In . SVG Version: 6.00 Build 0)  -->
<svg version="1.1" id="uuid-4717b53d-9098-45dc-ab10-1c98d85f7b82"
	 xmlns="http://www.w3.org/2000/svg" xmlns:xlink="http://www.w3.org/1999/xlink" x="0px" y="0px" viewBox="0 0 315 324"
	 style="enable-background:new 0 0 315 324;" xml:space="preserve">
<path d="M231.3,245l83.5,0.2l0.2-221H209.8V0H105.2v24.2H-0.1V245h83.7v24.2h14.1L78.5,324h25.6l19.2-54.8h68.3l19.2,54.8h25.6
	l-19.2-54.8h14.1L231.3,245L231.3,245z M24.4,220.9V48.4h266.2v172.5H24.4L24.4,220.9z"/>
<polygon points="236.4,67.6 176.7,72.4 188.3,89.2 161.1,109.6 157.3,112.8 157.5,116.6 162.6,178 129.6,174.3 128.6,174.3 
	127.9,174.5 78.6,201.5 129,179.9 166.9,187.8 172.2,189 172.2,183 173.5,120.7 199.2,105 210.6,121.7 "/>
</svg>
