<?xml version="1.0" encoding="utf-8"?>
<!-- Generator: Adobe Illustrator 26.4.1, SVG Export Plug-In . SVG Version: 6.00 Build 0)  -->
<svg version="1.1" id="uuid-761f3f14-c000-45a7-8c1b-b8e70da01169"
	 xmlns="http://www.w3.org/2000/svg" xmlns:xlink="http://www.w3.org/1999/xlink" x="0px" y="0px" viewBox="0 0 309.2 318.8"
	 style="enable-background:new 0 0 309.2 318.8;" xml:space="preserve">
<path d="M154.6,134.6c26.8,0,48.5-21.8,48.5-48.5s-21.8-48.5-48.5-48.5s-48.5,21.8-48.5,48.5S127.9,134.6,154.6,134.6L154.6,134.6z"
	/>
<polygon points="213,318.8 96.2,318.8 96.2,178.3 110.9,158.3 198.3,158.3 213,178.3 "/>
<path d="M204.7,33.5C211,14.1,229.3,0,250.8,0c26.8,0,48.5,21.8,48.5,48.5S277.6,97,250.8,97c-8.6,0-16.6-2.3-23.7-6.2
	c0.1-1.6,0.2-3.1,0.2-4.7C227.3,65.4,218.6,46.7,204.7,33.5L204.7,33.5z"/>
<path d="M9.9,48.5C9.9,21.8,31.7,0,58.4,0c21.5,0,39.8,14.1,46.1,33.5C90.6,46.7,81.9,65.4,81.9,86.1c0,1.6,0.1,3.2,0.2,4.7
	C75.1,94.8,67,97,58.4,97C31.7,97,9.9,75.3,9.9,48.5z"/>
<path d="M309.2,140.7v140.5h-72V170.4l-26.7-36.3h-1.4c3.6-4.1,6.7-8.6,9.4-13.4h76L309.2,140.7L309.2,140.7z"/>
<path d="M72,281.2H0V140.7l14.7-20h76c2.6,4.8,5.8,9.3,9.4,13.4h-1.4L72,170.4V281.2L72,281.2z"/>
</svg>
