<?xml version="1.0" encoding="utf-8"?>
<!-- Generator: Adobe Illustrator 26.4.1, SVG Export Plug-In . SVG Version: 6.00 Build 0)  -->
<svg version="1.1" id="uuid-eff4500b-273a-4876-a298-02c2e2577845"
	 xmlns="http://www.w3.org/2000/svg" xmlns:xlink="http://www.w3.org/1999/xlink" x="0px" y="0px" viewBox="0 0 265.4 321.1"
	 style="enable-background:new 0 0 265.4 321.1;" xml:space="preserve">
<path d="M205.4,68.4c0,9.9-2,19.4-5.6,28.1c2.4,0.4,4.8,0.5,7.2,0.5c26.7,0,48.5-21.8,48.5-48.5S233.8,0,207,0
	c-11.4,0-21.9,4-30.3,10.6C194.2,23.9,205.4,44.9,205.4,68.4L205.4,68.4z M250.7,120.7h-58.9l23.5,32v128.5h50.1V140.7L250.7,120.7
	L250.7,120.7z"/>
<path d="M102.5,30.5c8.3-6.6,18.8-10.6,30.3-10.6c26.7,0,48.5,21.8,48.5,48.5s-21.8,48.5-48.5,48.5c-2.5,0-4.9-0.2-7.2-0.5
	c3.6-8.6,5.7-18.1,5.7-28.1C131.1,64.8,119.9,43.8,102.5,30.5L102.5,30.5z M176.4,140.6h-58.9l23.5,32v128.5h50.1V160.7L176.4,140.6
	L176.4,140.6z"/>
<path d="M58.4,136.8c26.8,0,48.5-21.8,48.5-48.5S85.2,39.8,58.4,39.8S9.9,61.6,9.9,88.3S31.7,136.8,58.4,136.8z M116.9,321.1H0
	V180.6l14.7-20h87.4l14.7,20L116.9,321.1L116.9,321.1z"/>
</svg>
