<?xml version="1.0" encoding="utf-8"?>
<!-- Generator: Adobe Illustrator 26.4.1, SVG Export Plug-In . SVG Version: 6.00 Build 0)  -->
<svg version="1.1" id="b78a0a3c-c037-44ff-b69b-1e9eedbec40d"
	 xmlns="http://www.w3.org/2000/svg" xmlns:xlink="http://www.w3.org/1999/xlink" x="0px" y="0px" viewBox="0 0 55.5 65.5"
	 style="enable-background:new 0 0 55.5 65.5;" xml:space="preserve">
<style type="text/css">
	.st0{fill-rule:evenodd;clip-rule:evenodd;fill:#FC5D0D;}
	.st1{fill-rule:evenodd;clip-rule:evenodd;fill:#888B8D;}
	.st2{fill-rule:evenodd;clip-rule:evenodd;fill:#0072CE;}
	.st3{fill-rule:evenodd;clip-rule:evenodd;fill:#00A7B5;}
	.st4{fill-rule:evenodd;clip-rule:evenodd;fill:#F7F7F7;}
	.st5{fill-rule:evenodd;clip-rule:evenodd;fill:#434343;}
	.st6{fill-rule:evenodd;clip-rule:evenodd;fill:#F93822;}
</style>
<g>
	<path class="st0" d="M14.2,0C9,0,4.6,3.5,3.3,8.3l-3,1.7l0,0l0,0l0,0l0,0l0,0l0,0l0,0l0,0l0,0l0,0l0,0l0,0l0,0l0,0l0,0l0,0l2.6,1.5
		c0.3,6,5.2,10.7,11.3,10.7c6.3,0,11.3-5.1,11.3-11.3S20.4,0,14.2,0z"/>
	<path class="st1" d="M13.7,52.5L13.7,52.5c0-0.3,0.2-0.5,0.5-0.5l0,0h2.1c0.3,0,0.5,0.2,0.5,0.5l0,0V65c0,0.3-0.2,0.5-0.5,0.5h-2.1
		c-0.3,0-0.5-0.2-0.5-0.5V52.5z"/>
	<path class="st1" d="M24.5,52.5L24.5,52.5c0-0.3,0.2-0.5,0.5-0.5l0,0h2.1c0.3,0,0.5,0.2,0.5,0.5l0,0V65c0,0.3-0.2,0.5-0.5,0.5l0,0
		H25c-0.3,0-0.5-0.2-0.5-0.5V52.5z"/>
	<path class="st2" d="M0.1,34L0.1,34c0-12,9.8-21.8,21.8-21.8S43.7,22,43.7,34s-9.8,21.8-21.8,21.8S0.1,46,0.1,34L0.1,34z"/>
	<polygon class="st3" points="55.5,17.3 55.4,17.2 55.3,17 55.2,16.9 55.1,16.7 55,16.6 54.8,16.5 54.7,16.5 54.5,16.4 54.3,16.4 
		54.1,16.3 39.5,16.3 24.8,16.3 24.6,16.4 24.4,16.4 24.2,16.5 24.1,16.5 23.9,16.6 23.8,16.7 23.7,16.9 23.6,17 23.5,17.2 
		23.5,17.3 23.4,17.5 23.4,17.9 23.4,18.1 23.5,18.2 23.6,18.4 38.3,43.6 38.4,43.8 38.5,43.9 38.6,44 35.6,49.1 35.6,49.2 
		35.6,49.3 35.5,49.4 35.5,49.4 35.5,49.5 35.6,49.6 35.6,49.6 35.6,49.7 35.7,49.8 35.7,49.8 35.7,49.9 35.9,49.9 35.9,50 36,50 
		36.1,50 48.1,50 48.2,49.9 48.3,49.9 48.3,49.9 48.4,49.9 48.5,49.8 48.5,49.8 48.6,49.7 48.6,49.7 48.6,49.6 48.7,49.5 48.7,49.5 
		48.7,49.4 48.7,49.3 48.7,49.2 48.6,49.2 48.6,49.1 43.1,39.4 55.3,18.4 55.4,18.2 55.5,18.1 55.5,17.9 55.5,17.5 	"/>
	<path class="st4" d="M9,8.5L9,8.5c0-1.6,1.3-2.9,2.9-2.9s2.9,1.3,2.9,2.9s-1.3,2.9-2.9,2.9l0,0C10.2,11.4,9,10.1,9,8.5z"/>
	<path class="st5" d="M9.5,8.5L9.5,8.5c0-1,0.8-1.9,1.9-1.9s1.9,0.8,1.9,1.9c0,1-0.8,1.9-1.9,1.9l0,0C10.4,10.4,9.5,9.6,9.5,8.5z"/>
	<polygon class="st6" points="13.5,65.6 13.5,65.6 13.5,65.6 13.5,65.5 13.6,65.5 13.6,65.5 13.6,65.5 13.6,65.5 13.6,65.5 
		13.6,65.4 13.6,65.4 13.6,65.4 13.6,63.4 13.6,61.4 13.6,61.4 13.6,61.4 13.6,61.4 13.6,61.4 13.6,61.3 13.6,61.3 13.6,61.3 
		13.5,61.3 13.5,61.3 13.5,61.3 13.5,61.3 13.4,61.3 13.4,61.3 13.4,61.3 13.4,61.3 10,63.3 9.9,63.3 9.9,63.3 9.9,63.3 9.9,63.3 
		9.9,63.3 9.9,63.4 9.9,63.4 9.9,63.4 9.9,63.4 9.9,63.5 9.9,63.5 9.9,63.5 9.9,63.5 9.9,63.5 9.9,63.6 10,63.6 13.4,65.5 
		13.4,65.6 13.4,65.6 13.4,65.6 	"/>
	<polygon class="st6" points="24.3,65.6 24.3,65.6 24.3,65.6 24.4,65.5 24.4,65.5 24.4,65.5 24.4,65.5 24.4,65.5 24.4,65.5 
		24.4,65.4 24.4,65.4 24.5,65.4 24.5,63.4 24.5,61.4 24.4,61.4 24.4,61.4 24.4,61.4 24.4,61.4 24.4,61.3 24.4,61.3 24.4,61.3 
		24.4,61.3 24.3,61.3 24.3,61.3 24.3,61.3 24.2,61.3 24.2,61.3 24.2,61.3 24.2,61.3 20.8,63.3 20.8,63.3 20.8,63.3 20.7,63.3 
		20.7,63.3 20.7,63.3 20.7,63.4 20.7,63.4 20.7,63.4 20.7,63.4 20.7,63.5 20.7,63.5 20.7,63.5 20.7,63.5 20.8,63.5 20.8,63.6 
		20.8,63.6 24.2,65.5 24.2,65.6 24.2,65.6 24.2,65.6 	"/>
</g>
</svg>
