<?xml version="1.0" encoding="utf-8"?>
<!-- Generator: Adobe Illustrator 26.4.1, SVG Export Plug-In . SVG Version: 6.00 Build 0)  -->
<svg version="1.1" id="b58928ba-cdc5-49c7-a41f-f78c31a7b1c2"
	 xmlns="http://www.w3.org/2000/svg" xmlns:xlink="http://www.w3.org/1999/xlink" x="0px" y="0px" viewBox="0 0 46.7 80.3"
	 style="enable-background:new 0 0 46.7 80.3;" xml:space="preserve">
<style type="text/css">
	.st0{fill-rule:evenodd;clip-rule:evenodd;fill:#26D07C;}
	.st1{fill-rule:evenodd;clip-rule:evenodd;}
</style>
<g>
	<path class="st0" d="M7.4,25.7h32.9c2.3,0,4.2,1.9,4.2,4.2l0,0v50.4l0,0H3.3l0,0V29.8C3.3,27.5,5.1,25.7,7.4,25.7L7.4,25.7z"/>
	<path class="st1" d="M10.6,41L10.6,41c0-2.9,2.4-5.3,5.3-5.3c2.9,0,5.3,2.4,5.3,5.3c0,2.9-2.4,5.3-5.3,5.3
		C13,46.3,10.6,43.9,10.6,41L10.6,41z"/>
	<rect x="13.8" y="52.9" width="20.6" height="4.6"/>
	<path class="st1" d="M40,33.3l-1.9-1.9l-5,5.1h-6.2v6.3l-3.2,3.3l1.9,1.9l2.6-2.6c0.1,0,0.2,0,0.3,0h7.4l0,0c0.8,0,1.5-0.7,1.5-1.5
		v-7.3h-0.5L40,33.3z"/>
</g>
<path class="st1" d="M45.7,17.3h-6.8c0.1-0.5,0.1-1.1,0.1-1.6C39,7,32,0,23.4,0S7.7,7,7.7,15.7c0,0.6,0,1.1,0.1,1.6H1
	c-0.9,0-1.4,1.1-0.6,1.6l10.5,8.2l11.9,9.3c0.4,0.3,0.9,0.3,1.3,0l11.9-9.3l10.5-8.2C47.1,18.4,46.7,17.3,45.7,17.3z"/>
</svg>
