<?xml version="1.0" encoding="utf-8"?>
<!-- Generator: Adobe Illustrator 26.4.1, SVG Export Plug-In . SVG Version: 6.00 Build 0)  -->
<svg version="1.1" id="uuid-a7156b97-19ca-4b75-907e-fe39b4976dbc"
	 xmlns="http://www.w3.org/2000/svg" xmlns:xlink="http://www.w3.org/1999/xlink" x="0px" y="0px" viewBox="0 0 279.5 366.6"
	 style="enable-background:new 0 0 279.5 366.6;" xml:space="preserve">
<path d="M192.1,294l87.5-57.4V134.9h-24.2v88.6l-70.5,46.3h-33v-24.2h25.7l53.5-35.1V35.1L177.6,0h-75.7L48.4,35.1v175.3l53.5,35.1
	h25.7v24.2h-33l-70.5-46.3v-88.6H0v101.7L87.5,294h40.2v24.2H72.6v48.4h134.3v-48.4h-55V294L192.1,294L192.1,294z M72.6,197.4v-14.2
	h36.3v-24.2H72.6v-24.2h36.3v-24.2H72.6V86.6h36.3V62.4H72.6V48.2l36.6-24h61.2l36.6,24v14.5h-36.3v24.2h36.3v23.9h-36.3v24.2h36.3
	v24.2h-36.3v24.2h36.3v14.2l-36.6,24h-61.2L72.6,197.4L72.6,197.4z"/>
</svg>
