<?xml version="1.0" encoding="utf-8"?>
<!-- Generator: Adobe Illustrator 26.4.1, SVG Export Plug-In . SVG Version: 6.00 Build 0)  -->
<svg version="1.1" id="uuid-fb6711e8-c4cb-4365-ace4-337d74db50cf"
	 xmlns="http://www.w3.org/2000/svg" xmlns:xlink="http://www.w3.org/1999/xlink" x="0px" y="0px" viewBox="0 0 355 354"
	 style="enable-background:new 0 0 355 354;" xml:space="preserve">
<path d="M314.4,139.7c-3.1-11.6-7.7-22.7-13.6-33.1l28.7-28.3L277,25.5l-28.7,28.3c-5.3-3-10.7-5.7-16.1-8
	c-5.5-2.3-11.2-4.3-17.1-5.9l0.1-40h-74.9l0.2,39.6c-11.6,3.1-22.8,7.6-33.3,13.5L79.4,25.3l-53,52.1l27.8,27.9
	c-3,5.2-5.7,10.6-8.1,16c-2.3,5.4-4.3,11.1-5.9,16.9L0,138v74.1l39.8,0.2c3.1,11.7,7.7,22.8,13.6,33.2l-29.3,28.9L76.6,327
	l29.3-28.9c5.3,3.1,10.8,5.8,16.2,8c5.6,2.3,11.3,4.3,17.1,5.9V354l74.5,0l0-41.4c11.7-3.1,23.2-7.8,33.7-13.7L216,267.2
	c-11.8,5.1-24.8,7.9-38.5,7.9c-54.2,0-98.1-43.9-98.1-98.1s43.9-98.1,98.1-98.1s98.1,43.9,98.1,98.1c0,13.3-2.6,26-7.4,37.5l32,32
	c2.9-5.1,5.6-10.3,7.9-15.7c2.3-5.5,4.3-11.1,5.9-17l41.1,0.1v-74.2L314.4,139.7L314.4,139.7z"/>
<path d="M304.5,260.1c-5.5,0-10.8,1.1-15.7,3L223.7,198c1.9-4.9,3-10.2,3-15.7c0-23.8-19.3-43-43-43c-6,0-11.6,1.2-16.8,3.4
	l29.6,29.6l-23.5,23.5l-29.3-29.3c-1.9,4.9-3,10.2-3,15.8c0,23.8,19.3,43,43,43c5.5,0,10.7-1,15.5-2.9l65.2,65.2
	c-1.9,4.8-2.9,10-2.9,15.5c0,23.8,19.3,43,43,43c6,0,11.6-1.2,16.8-3.4l-29.6-29.6l23.5-23.5l29.3,29.3c1.9-4.9,3-10.2,3-15.8
	C347.5,279.3,328.3,260.1,304.5,260.1L304.5,260.1z"/>
</svg>
