<?xml version="1.0" encoding="utf-8"?>
<!-- Generator: Adobe Illustrator 26.4.1, SVG Export Plug-In . SVG Version: 6.00 Build 0)  -->
<svg version="1.1" id="uuid-a61f7328-76d2-4d26-8aa7-d00092abc824"
	 xmlns="http://www.w3.org/2000/svg" xmlns:xlink="http://www.w3.org/1999/xlink" x="0px" y="0px" viewBox="0 0 380 380"
	 style="enable-background:new 0 0 380 380;" xml:space="preserve">
<style type="text/css">
	.st0{fill:#0072CE;}
</style>
<path class="st0" d="M190,0C85.1,0,0,85.1,0,190s85.1,190,190,190s190-85.1,190-190S294.9,0,190,0z M215.9,289.9
	c0,14.8-8.9,26.1-30.6,26.1s-30.6-11.3-30.6-26.1v-8.2c0-14.8,8.9-26.1,30.6-26.1s30.6,11.3,30.6,26.1V289.9z M208.7,207.1v24.7
	h-48.1v-52.6c36.1-1.4,54.3-11,54.3-36.4v-4.8c0-17.5-11.3-26.8-27.8-26.8c-17.9,0-29.9,12.4-34,29.2L111.2,123
	c7.9-27.5,30.9-55,77.6-55c48.1,0,80,28.9,80,70.8C268.8,177.2,241,202,208.7,207.1L208.7,207.1z"/>
</svg>
