<?xml version="1.0" encoding="utf-8"?>
<!-- Generator: Adobe Illustrator 26.4.1, SVG Export Plug-In . SVG Version: 6.00 Build 0)  -->
<svg version="1.1" id="uuid-92d0c64c-0ff0-40ea-9b47-05ee9df72458"
	 xmlns="http://www.w3.org/2000/svg" xmlns:xlink="http://www.w3.org/1999/xlink" x="0px" y="0px" viewBox="0 0 324.7 290.4"
	 style="enable-background:new 0 0 324.7 290.4;" xml:space="preserve">
<path d="M289.8,20.9h-55.4c-42.3,0-77.3,13.8-103.9,41.1C82.3,111.3,76,189.3,75.2,214.9h24.2c0.9-23.3,7-93.8,48.4-136
	c22-22.4,51.1-33.8,86.6-33.8h55.4L289.8,20.9L289.8,20.9z"/>
<polygon points="285.5,212.1 268.4,229.2 278.4,239.2 51.2,239.2 51.2,46.3 61.2,56.3 78.3,39.2 39.2,0 0,39.2 17.1,56.3 27.1,46.3 
	27.1,263.4 39.2,263.4 51.2,263.4 278.4,263.4 268.4,273.3 285.5,290.4 324.7,251.3 "/>
<polygon points="289.7,250.5 290.5,251.3 289.7,252.1 "/>
</svg>
