<?xml version="1.0" encoding="utf-8"?>
<!-- Generator: Adobe Illustrator 26.4.1, SVG Export Plug-In . SVG Version: 6.00 Build 0)  -->
<svg version="1.1" id="uuid-f82c1afa-6b9d-4ea5-a0a2-d7785ee42a74"
	 xmlns="http://www.w3.org/2000/svg" xmlns:xlink="http://www.w3.org/1999/xlink" x="0px" y="0px" viewBox="0 0 258.2 369"
	 style="enable-background:new 0 0 258.2 369;" xml:space="preserve">
<path d="M52.3,3C25.6,3,3.8,24.8,3.8,51.5s21.8,48.5,48.5,48.5s48.5-21.8,48.5-48.5S79.1,3,52.3,3z M52.3,75.9
	C38.9,75.9,28,65,28,51.5s10.9-24.3,24.3-24.3s24.3,10.9,24.3,24.3S65.7,75.9,52.3,75.9z"/>
<circle cx="52.3" cy="320.5" r="36.4"/>
<path d="M158.1,271.9V369h97.1v-97.1H158.1z M231,344.8h-48.7v-48.7H231V344.8z"/>
<rect x="170.2" y="15.1" transform="matrix(0.7071 -0.7071 0.7071 0.7071 24.0961 161.2401)" width="72.9" height="72.9"/>
<polygon points="66.4,148.4 42.3,148.5 42.4,193.9 30.4,194 54.7,235.6 78.7,193.8 66.6,193.8 "/>
<polygon points="218.6,148.4 194.4,148.5 194.6,193.9 182.6,194 206.9,235.6 230.8,193.8 218.8,193.8 "/>
</svg>
