<?xml version="1.0" encoding="utf-8"?>
<!-- Generator: Adobe Illustrator 26.4.1, SVG Export Plug-In . SVG Version: 6.00 Build 0)  -->
<svg version="1.1" id="uuid-cc73ed31-2c70-42da-bc63-36b5f0014b8a"
	 xmlns="http://www.w3.org/2000/svg" xmlns:xlink="http://www.w3.org/1999/xlink" x="0px" y="0px" viewBox="0 0 356.4 356.4"
	 style="enable-background:new 0 0 356.4 356.4;" xml:space="preserve">
<path d="M352,82.6c-2.4-8.5-5.8-16.6-10.1-24.1l-18,18l-50.8,50.8l-44-44l50.8-50.8l18-18c-7.6-4.2-15.6-7.6-24.1-10.1
	c-10-2.9-20.5-4.4-31.3-4.4c-62.8,0-114,51.1-114,114c0,10.9,1.5,21.4,4.4,31.3L0,278.2l78.2,78.2l132.9-132.9
	c10,2.9,20.5,4.4,31.3,4.4c62.8,0,114-51.1,114-114C356.4,103.1,354.9,92.6,352,82.6L352,82.6z M78.2,322.2l-44-44l105.6-105.6
	l44,44L78.2,322.2L78.2,322.2z M242.4,203.7c-49.5,0-89.8-40.3-89.8-89.8s40.3-89.8,89.8-89.8c3.7,0,7.3,0.2,10.9,0.7l-58.4,58.4
	l78.2,78.2l58.4-58.4c0.4,3.6,0.7,7.2,0.7,10.9C332.2,163.5,291.9,203.7,242.4,203.7z"/>
</svg>
