<?xml version="1.0" encoding="utf-8"?>
<!-- Generator: Adobe Illustrator 26.4.1, SVG Export Plug-In . SVG Version: 6.00 Build 0)  -->
<svg version="1.1" id="uuid-de4aa758-dc72-4bf6-af04-17b609f0b36d"
	 xmlns="http://www.w3.org/2000/svg" xmlns:xlink="http://www.w3.org/1999/xlink" x="0px" y="0px" viewBox="0 0 321.2 321.2"
	 style="enable-background:new 0 0 321.2 321.2;" xml:space="preserve">
<path d="M248.9,214.6c15.9-22.7,24.4-49.7,24.4-78c0-36.5-14.2-70.8-40-96.6c-25.8-25.8-60.1-40-96.6-40S65.8,14.2,40,40
	C14.2,65.8,0,100.1,0,136.6s14.2,70.8,40,96.6c25.8,25.8,60.1,40,96.6,40c28.3,0,55.3-8.6,78-24.4l72.3,72.3l34.2-34.2L248.9,214.6z
	 M136.6,249.1c-62.1,0-112.4-50.3-112.4-112.4S74.5,24.2,136.6,24.2s112.4,50.3,112.4,112.4S198.7,249.1,136.6,249.1z"/>
<path d="M118.5,136.6c0,10,8.1,18.1,18.1,18.1s18.1-8.1,18.1-18.1s-8.1-18.1-18.1-18.1S118.5,126.6,118.5,136.6z M185.1,136.6
	c0,10,8.1,18.1,18.1,18.1s18.1-8.1,18.1-18.1s-8.1-18.1-18.1-18.1S185.1,126.6,185.1,136.6z M51.9,136.6c0,10,8.1,18.1,18.1,18.1
	s18.1-8.1,18.1-18.1S80,118.5,70,118.5S51.9,126.6,51.9,136.6z"/>
</svg>
