<?xml version="1.0" encoding="utf-8"?>
<!-- Generator: Adobe Illustrator 26.4.1, SVG Export Plug-In . SVG Version: 6.00 Build 0)  -->
<svg version="1.1" id="uuid-6a90a664-71e5-440f-a417-cf3e88b245cb"
	 xmlns="http://www.w3.org/2000/svg" xmlns:xlink="http://www.w3.org/1999/xlink" x="0px" y="0px" viewBox="0 0 347.9 259.5"
	 style="enable-background:new 0 0 347.9 259.5;" xml:space="preserve">
<path d="M65.1,247.5h24.2v-24.2H65.1V247.5z M113.5,247.5h24.2v-24.2h-24.2V247.5z"/>
<path d="M319.1,201.9L319.1,201.9c-15.9,0-28.8,12.9-28.8,28.8l0,0c0,15.9,12.9,28.8,28.8,28.8l0,0c15.9,0,28.8-12.9,28.8-28.8l0,0
	C347.9,214.8,335,201.9,319.1,201.9L319.1,201.9z"/>
<path d="M202.7,27.3c0-15.9-12.9-28.8-28.8-28.8s-28.8,12.9-28.8,28.8c0,11.6,6.8,21.6,16.7,26.1v52H16.7v99.1
	C6.8,209.1,0,219.1,0,230.7l0,0c0,15.9,12.9,28.8,28.8,28.8l0,0c15.9,0,28.8-12.9,28.8-28.8l0,0c0-11.6-6.8-21.6-16.7-26.1v-74.9
	h121v74.9c-9.9,4.6-16.7,14.6-16.7,26.1l0,0c0,15.9,12.9,28.8,28.8,28.8s28.8-12.9,28.8-28.8l0,0c0-11.6-6.8-21.6-16.7-26.1V53.4
	C195.9,48.9,202.7,38.9,202.7,27.3L202.7,27.3z"/>
<path d="M210.2,105.4h24.2v24.2h-24.2V105.4z M258.6,129.6h24.2v-24.2h-24.2V129.6z M331.2,105.4H307v24.2h24.2V105.4z M331.2,153.5
	H307v24.2h24.2V153.5z"/>
</svg>
