<?xml version="1.0" encoding="utf-8"?>
<!-- Generator: Adobe Illustrator 26.4.1, SVG Export Plug-In . SVG Version: 6.00 Build 0)  -->
<svg version="1.1" id="afd56e6d-23d0-4200-96fd-804e871319ab"
	 xmlns="http://www.w3.org/2000/svg" xmlns:xlink="http://www.w3.org/1999/xlink" x="0px" y="0px" viewBox="0 0 60.4 58.8"
	 style="enable-background:new 0 0 60.4 58.8;" xml:space="preserve">
<style type="text/css">
	.st0{fill:#26D07C;}
	.st1{fill:#00A7B5;}
	.st2{fill-rule:evenodd;clip-rule:evenodd;fill-opacity:0;}
	.st3{fill-rule:evenodd;clip-rule:evenodd;fill:#1F2A44;}
	.st4{fill:#FFFFFF;}
</style>
<g>
	<path class="st0" d="M30.1,0c-5.2,0-9.5,4.2-9.5,9.5c0,4.6,3.3,8.5,7.7,9.3v3.1c0,0.2,0.2,0.4,0.4,0.4h2.8c0.2,0,0.4-0.2,0.4-0.4
		v-3.1c4.4-0.8,7.7-4.7,7.7-9.3l0,0C39.6,4.3,35.3,0,30.1,0z M30.1,13c-1.9,0-3.5-1.6-3.5-3.5S28.2,6,30.1,6l0,0
		c0.9,0,1.8,0.4,2.5,1c0.7,0.7,1,1.5,1,2.5C33.6,11.5,32,13,30.1,13z"/>
	<path class="st1" d="M59.7,26.2c-0.4-0.4-0.9-0.6-1.5-0.6h-3.3v-1.1c0-1.8-1.5-3.3-3.3-3.3H8.5c-1.8,0-3.3,1.5-3.3,3.3v1H2.1
		c-1.2,0-2.1,1-2.1,2.1v18.2c0,1.2,1,2.1,2.1,2.1h3.1v1.2c0,1.8,1.5,3.3,3.3,3.3h12.2V58c0,0.5,0.4,0.8,0.8,0.8h17.8
		c0.5,0,0.8-0.4,0.8-0.8v-5.5h11.6c1.8,0,3.3-1.5,3.3-3.3V48h3.3c1.2,0,2.1-1,2.1-2.1V27.7C60.3,27.1,60.1,26.6,59.7,26.2z M3.1,45
		V28.5h2.2V45H3.1z M57.3,45h-2.4V28.5h2.4V45z"/>
	<path class="st2" d="M1.6,27.7L1.6,27.7c0-0.4,0.3-0.6,0.6-0.6h4.9c0.4,0,0.6,0.3,0.6,0.6v18.2c0,0.4-0.3,0.6-0.6,0.6H2.2
		c-0.4,0-0.6-0.3-0.6-0.6V27.7z"/>
	<path class="st2" d="M13.4,33.5L13.4,33.5c0-3.6,2.9-6.5,6.5-6.5s6.5,2.9,6.5,6.5S23.5,40,19.9,40l0,0C16.3,40,13.4,37.1,13.4,33.5
		L13.4,33.5z"/>
	<path class="st2" d="M34,33.5L34,33.5c0-3.6,2.9-6.5,6.5-6.5s6.5,2.9,6.5,6.5S44.1,40,40.5,40l0,0C36.9,40,34,37.1,34,33.5z"/>
	<path class="st3" d="M18,46.5L18,46.5c0-0.2,0.2-0.4,0.4-0.4l0,0h24.3c0.2,0,0.4,0.2,0.4,0.4v2.8c0,0.2-0.2,0.4-0.4,0.4l0,0H18.3
		c-0.2,0-0.4-0.2-0.4-0.4l0,0L18,46.5z"/>
	<path class="st2" d="M23.6,9.5L23.6,9.5c0-3.6,2.9-6.5,6.5-6.5s6.5,2.9,6.5,6.5S33.7,16,30.1,16l0,0C26.5,16,23.6,13.1,23.6,9.5z"
		/>
	<path class="st2" d="M52.7,27.7L52.7,27.7c0-0.4,0.3-0.6,0.6-0.6l0,0h4.9c0.4,0,0.6,0.3,0.6,0.6l0,0v18.2c0,0.4-0.3,0.6-0.6,0.6
		l0,0h-4.9c-0.4,0-0.6-0.3-0.6-0.6l0,0V27.7z"/>
	<path class="st4" d="M19.9,43c-5.2,0-9.5-4.2-9.5-9.5s4.2-9.5,9.5-9.5c5.2,0,9.5,4.2,9.5,9.5l0,0C29.4,38.8,25.2,43,19.9,43z
		 M19.9,30c-1.9,0-3.5,1.6-3.5,3.5S18,37,19.9,37c1.9,0,3.5-1.6,3.5-3.5c0-0.9-0.4-1.8-1-2.5C21.7,30.4,20.9,30,19.9,30z"/>
	<path class="st4" d="M40.5,43c-5.2,0-9.5-4.2-9.5-9.5s4.2-9.5,9.5-9.5c5.2,0,9.5,4.2,9.5,9.5S45.8,43,40.5,43z M40.5,30
		c-1.9,0-3.5,1.6-3.5,3.5s1.6,3.5,3.5,3.5s3.5-1.6,3.5-3.5c0-0.9-0.4-1.8-1-2.5C42.3,30.4,41.4,30,40.5,30z"/>
</g>
</svg>
