<?xml version="1.0" encoding="utf-8"?>
<!-- Generator: Adobe Illustrator 26.4.1, SVG Export Plug-In . SVG Version: 6.00 Build 0)  -->
<svg version="1.1" id="ac609ade-dca8-4de1-bf52-7dedc3ef3479"
	 xmlns="http://www.w3.org/2000/svg" xmlns:xlink="http://www.w3.org/1999/xlink" x="0px" y="0px" viewBox="0 0 60.4 58.8"
	 style="enable-background:new 0 0 60.4 58.8;" xml:space="preserve">
<style type="text/css">
	.st0{fill:#FC5D0D;}
	.st1{fill:#FFC600;}
	.st2{fill-rule:evenodd;clip-rule:evenodd;fill-opacity:0;}
	.st3{fill:#F93822;}
	.st4{fill-rule:evenodd;clip-rule:evenodd;fill:#FC5D0D;}
</style>
<g>
	<path class="st0" d="M30.1,0c-5.2,0-9.5,4.2-9.5,9.5c0,4.6,3.3,8.5,7.7,9.3v4.1c0,0.2,0.2,0.4,0.4,0.4h2.8c0.2,0,0.4-0.2,0.4-0.4
		v-4.1c4.4-0.8,7.7-4.7,7.7-9.3l0,0C39.6,4.3,35.3,0,30.1,0z M30.1,13c-1.9,0-3.5-1.6-3.5-3.5S28.2,6,30.1,6l0,0
		c0.9,0,1.8,0.4,2.5,1c0.7,0.7,1,1.5,1,2.5C33.6,11.5,32,13,30.1,13z"/>
	<path class="st1" d="M58.2,25.5h-3.3v-1.1c0-1.8-1.5-3.3-3.3-3.3H8.5l0,0c-1.8,0-3.3,1.5-3.3,3.3v1.1H2.1c-1.2,0-2.1,1-2.1,2.1
		v18.2c0,1.2,1,2.1,2.1,2.1h3.1v1.2c0,1.8,1.5,3.3,3.3,3.3h12.2V58c0,0.5,0.4,0.8,0.8,0.8h17.8c0.5,0,0.8-0.4,0.8-0.8v-5.5h11.6
		c1.8,0,3.3-1.5,3.3-3.3V48h3.3c1.2,0,2.1-1,2.1-2.1V27.7l0,0C60.3,26.5,59.4,25.5,58.2,25.5z M3.1,45V28.5h2.2V45H3.1z M57.3,45
		h-2.4V28.5h2.4V45z"/>
	<path class="st2" d="M13.4,33.5L13.4,33.5c0-3.6,2.9-6.5,6.5-6.5s6.5,2.9,6.5,6.5S23.5,40,19.9,40l0,0C16.3,40,13.4,37.1,13.4,33.5
		z"/>
	<path class="st3" d="M19.9,43c-5.2,0-9.5-4.2-9.5-9.5s4.2-9.5,9.5-9.5c5.2,0,9.5,4.2,9.5,9.5l0,0C29.4,38.8,25.2,43,19.9,43z
		 M19.9,30c-1.9,0-3.5,1.6-3.5,3.5S18,37,19.9,37c1.9,0,3.5-1.6,3.5-3.5c0-0.9-0.4-1.8-1-2.5C21.7,30.4,20.9,30,19.9,30z"/>
	<path class="st2" d="M34,33.5L34,33.5c0-3.6,2.9-6.5,6.5-6.5s6.5,2.9,6.5,6.5S44.1,40,40.5,40l0,0C36.9,40,34,37.1,34,33.5z"/>
	<path class="st3" d="M40.5,43c-5.2,0-9.5-4.2-9.5-9.5c0-5.2,4.2-9.5,9.5-9.5c5.2,0,9.5,4.2,9.5,9.5S45.8,43,40.5,43z M40.5,30
		c-1.9,0-3.5,1.6-3.5,3.5s1.6,3.5,3.5,3.5s3.5-1.6,3.5-3.5c0-0.9-0.4-1.8-1-2.5C42.3,30.4,41.4,30,40.5,30z"/>
	<path class="st4" d="M18,46.5L18,46.5c0-0.2,0.2-0.4,0.4-0.4l0,0h24.3c0.2,0,0.4,0.2,0.4,0.4l0,0v2.8c0,0.2-0.2,0.4-0.4,0.4l0,0
		H18.3c-0.2,0-0.4-0.2-0.4-0.4l0,0L18,46.5z"/>
	<path class="st2" d="M23.6,9.5L23.6,9.5c0-3.6,2.9-6.5,6.5-6.5s6.5,2.9,6.5,6.5S33.7,16,30.1,16l0,0C26.5,16,23.6,13.1,23.6,9.5
		L23.6,9.5z"/>
</g>
</svg>
