<?xml version="1.0" encoding="utf-8"?>
<!-- Generator: Adobe Illustrator 26.4.1, SVG Export Plug-In . SVG Version: 6.00 Build 0)  -->
<svg version="1.1" id="uuid-06623b52-57d2-4511-82fa-ab9a113fb338"
	 xmlns="http://www.w3.org/2000/svg" xmlns:xlink="http://www.w3.org/1999/xlink" x="0px" y="0px" viewBox="0 0 241.9 446.2"
	 style="enable-background:new 0 0 241.9 446.2;" xml:space="preserve">
<path d="M241.9,271.6l-48.4-48.4v-76.8h-0.1l0.1,0L120.9,0L48.3,146.3l0.1,0h-0.1v76.9L0,271.6H0v77.8h241.9L241.9,271.6
	L241.9,271.6z M48.3,325.2H24.1v-43.6l24.2-24.2V325.2z M120.9,55l45.6,91.4H75.3L120.9,55L120.9,55z M169.3,325.2H72.5V170.6h96.8
	V325.2L169.3,325.2z M217.7,325.2h-24.2v-67.8l24.2,24.2V325.2L217.7,325.2z"/>
<path d="M102.4,211.1c0.1-12.6,6.4-19.8,18.6-19.8s18.5,7.2,18.5,19.8v7.6h-11.7v-8.4c0-5.6-2.5-7.8-6.5-7.8c-4-0.1-6.5,2.1-6.5,7.7
	v42.7c0,5.6,2.5,7.6,6.5,7.6c4,0,6.5-2,6.5-7.6v-11.3h11.7v10.5c-0.1,12.6-6.4,19.8-18.6,19.8s-18.5-7.2-18.5-19.7L102.4,211.1
	L102.4,211.1z"/>
<rect x="102.4" y="283.6" width="37" height="20.9"/>
<rect x="108.8" y="373.6" width="24.2" height="72.6"/>
<rect x="66.5" y="373.6" width="24.2" height="48.4"/>
<rect x="24.1" y="373.6" width="24.2" height="24.2"/>
<rect x="151.2" y="373.6" width="24.2" height="48.4"/>
<rect x="193.5" y="373.6" width="24.2" height="24.2"/>
</svg>
