<?xml version="1.0" encoding="utf-8"?>
<!-- Generator: Adobe Illustrator 26.4.1, SVG Export Plug-In . SVG Version: 6.00 Build 0)  -->
<svg version="1.1" id="uuid-83aa5510-b2df-42e5-9771-90a7d658a9d0"
	 xmlns="http://www.w3.org/2000/svg" xmlns:xlink="http://www.w3.org/1999/xlink" x="0px" y="0px" viewBox="0 0 393.5 373.3"
	 style="enable-background:new 0 0 393.5 373.3;" xml:space="preserve">
<path d="M325.8,29.3c0,15.2-11.6,23.6-23.6,25.7v11.1H289V46.5c13.7-0.5,22.2-5.2,22.2-15.8v-1.8c0-8.4-5.4-12.4-13.7-12.4
	c-8.7,0-14.2,5.6-16.2,13.2l-12-4.8c3.2-10.6,12-20.4,28.7-20.4C314.8,4.5,325.8,14.3,325.8,29.3L325.8,29.3z M289,95.6h13.3V82.3
	H289V95.6z"/>
<rect x="149.6" y="263.4" width="94.4" height="24.2"/>
<path d="M381.4,154.6h-24.2v-36H228V96.3c13.3-9.7,22-25.4,22-43C250,23.9,226.1,0,196.8,0s-53.2,23.9-53.2,53.2
	c0,17.7,8.7,33.4,22,43v22.3H36.3v36H0v133h36.3v44.8h89.1v40.9h24.2v0H244v0h24.2v-40.9h89.1v-44.8h36.3v-133H381.4L381.4,154.6z
	 M36.3,263.4H24.2v-84.6h12.1V263.4z M196.8,24.2c16,0,29,13,29,29s-13,29-29,29s-29-13-29-29S180.8,24.2,196.8,24.2z M203.9,106
	v12.6h-14.2V106c2.3,0.3,4.7,0.5,7.1,0.5C199.2,106.5,201.5,106.3,203.9,106L203.9,106z M244,349.1h-94.4v-16.7H244V349.1z
	 M333.1,308.2H60.5V142.7h272.6V308.2L333.1,308.2z M369.3,263.4h-12.1v-84.6h12.1V263.4z"/>
<path d="M123.2,165.7c-23.2,0-42.1,18.9-42.1,42.1S99.9,250,123.2,250s42.1-18.9,42.1-42.1S146.4,165.7,123.2,165.7L123.2,165.7z
	 M123.2,225.8c-9.9,0-18-8.1-18-18s8.1-18,18-18s18,8.1,18,18S133.1,225.8,123.2,225.8z M270.4,165.7c-23.2,0-42.1,18.9-42.1,42.1
	s18.9,42.1,42.1,42.1s42.1-18.9,42.1-42.1S293.6,165.7,270.4,165.7L270.4,165.7z M270.4,225.8c-9.9,0-18-8.1-18-18s8.1-18,18-18
	s18,8.1,18,18S280.3,225.8,270.4,225.8z"/>
</svg>
