<?xml version="1.0" encoding="utf-8"?>
<!-- Generator: Adobe Illustrator 26.4.1, SVG Export Plug-In . SVG Version: 6.00 Build 0)  -->
<svg version="1.1" id="uuid-d3295253-f7f1-472a-b89c-438fbc10b57d"
	 xmlns="http://www.w3.org/2000/svg" xmlns:xlink="http://www.w3.org/1999/xlink" x="0px" y="0px" viewBox="0 0 249.9 298.6"
	 style="enable-background:new 0 0 249.9 298.6;" xml:space="preserve">
<path d="M213.7,110.6V0H36.2v101.6H66V87.7L54.7,76.3V63.8H66V29.8h117.8v80.8H0v188h249.9v-188H213.7z M139.9,201v35.1
	c0,8.2-6.7,14.9-14.9,14.9l0,0c-8.2,0-14.9-6.7-14.9-14.9V201c-6-4.5-9.9-11.7-9.9-19.8c0-13.7,11.1-24.8,24.8-24.8
	s24.8,11.1,24.8,24.8C149.8,189.3,145.9,196.5,139.9,201z"/>
</svg>
