<?xml version="1.0" encoding="utf-8"?>
<!-- Generator: Adobe Illustrator 26.4.1, SVG Export Plug-In . SVG Version: 6.00 Build 0)  -->
<svg version="1.1" id="uuid-5213c5d1-d245-454b-974c-8fa5b067e5d2"
	 xmlns="http://www.w3.org/2000/svg" xmlns:xlink="http://www.w3.org/1999/xlink" x="0px" y="0px" viewBox="0 0 376.2 376.9"
	 style="enable-background:new 0 0 376.2 376.9;" xml:space="preserve">
<style type="text/css">
	.st0{fill-rule:evenodd;clip-rule:evenodd;}
</style>
<path class="st0" d="M137.9,0c-20.8,0-37.6,16.9-37.6,37.7c0,20.8,16.8,37.7,37.6,37.7h37.6V37.7C175.6,16.9,158.7,0,137.9,0
	C137.9,0,137.9,0,137.9,0 M137.9,100.5H37.6C16.8,100.5,0,117.4,0,138.2c0,20.8,16.8,37.7,37.6,37.7h100.3
	c20.8,0,37.6-16.9,37.6-37.7C175.6,117.4,158.7,100.5,137.9,100.5L137.9,100.5z M376.2,138.2c0-20.8-16.8-37.7-37.6-37.7
	c-20.8,0-37.6,16.9-37.6,37.7v37.7h37.6C359.3,175.9,376.2,159,376.2,138.2z M275.9,138.2V37.7C275.9,16.9,259,0,238.3,0
	c-20.8,0-37.6,16.9-37.6,37.7v100.5c0,20.8,16.8,37.7,37.6,37.7C259,175.9,275.9,159,275.9,138.2L275.9,138.2z M238.2,376.9
	c20.8,0,37.6-16.9,37.6-37.7c0-20.8-16.8-37.7-37.6-37.7h-37.6v37.7C200.6,360,217.4,376.9,238.2,376.9L238.2,376.9z M238.2,276.4
	h100.3c20.8,0,37.6-16.9,37.6-37.7c0-20.8-16.8-37.7-37.6-37.7H238.3c-20.8,0-37.6,16.9-37.6,37.7
	C200.6,259.5,217.4,276.4,238.2,276.4L238.2,276.4L238.2,276.4z M0,238.7c0,20.8,16.8,37.7,37.6,37.7c20.8,0,37.6-16.9,37.6-37.7
	V201H37.6C16.8,201,0,217.9,0,238.7z M100.3,238.7v100.5c0,20.8,16.8,37.7,37.6,37.7c20.8,0,37.6-16.9,37.6-37.7V238.7
	c0-20.8-16.8-37.7-37.6-37.7C117.1,201,100.3,217.9,100.3,238.7C100.3,238.7,100.3,238.7,100.3,238.7"/>
</svg>
