<?xml version="1.0" encoding="utf-8"?>
<!-- Generator: Adobe Illustrator 26.4.1, SVG Export Plug-In . SVG Version: 6.00 Build 0)  -->
<svg version="1.1" id="uuid-ea0ef100-4d74-4c5d-af4d-081ad97f03bc"
	 xmlns="http://www.w3.org/2000/svg" xmlns:xlink="http://www.w3.org/1999/xlink" x="0px" y="0px" viewBox="0 0 282.7 381.7"
	 style="enable-background:new 0 0 282.7 381.7;" xml:space="preserve">
<ellipse transform="matrix(0.1602 -0.9871 0.9871 0.1602 83.9699 169.0818)" cx="141.4" cy="35.2" rx="35.2" ry="35.2"/>
<circle cx="141.4" cy="346.5" r="35.2"/>
<rect x="106.2" y="97.2" width="70.4" height="70.4"/>
<rect x="106.2" y="203.8" transform="matrix(0.7071 -0.7071 0.7071 0.7071 -127.5603 169.9361)" width="70.4" height="70.4"/>
<path d="M64.8,358.2H0V237.6h64.8V261H23.4v73.8h41.5L64.8,358.2L64.8,358.2z M282.7,261h-64.8v-23.4h41.5v-83.7h-41.5v-23.4h64.8
	V261L282.7,261z M64.8,154.5H0V23.5h64.8v23.4H23.4v84.2h41.5L64.8,154.5L64.8,154.5z"/>
</svg>
