<?xml version="1.0" encoding="utf-8"?>
<!-- Generator: Adobe Illustrator 26.4.1, SVG Export Plug-In . SVG Version: 6.00 Build 0)  -->
<svg version="1.1" id="uuid-87776119-0e85-4074-8d5e-9ef08494b73d"
	 xmlns="http://www.w3.org/2000/svg" xmlns:xlink="http://www.w3.org/1999/xlink" x="0px" y="0px" viewBox="0 0 425.1 298.5"
	 style="enable-background:new 0 0 425.1 298.5;" xml:space="preserve">
<path d="M390.5,180.3l34.6,0.1v-62.5l-34.3-0.1c-2.6-9.8-6.5-19.1-11.5-27.9L403.6,66l-44.2-44.4l-24.2,23.9
	c-4.4-2.6-9-4.8-13.6-6.8c-4.6-1.9-9.5-3.6-14.4-5l0.1-28.8l0-4.9H244l0,2.7l0.2,30.7c-9.8,2.6-19.2,6.4-28.1,11.4l-23.4-23.5
	L148,65.3l23.4,23.5c-2.6,4.4-4.8,8.9-6.8,13.5c-1.9,4.5-3.6,9.3-5,14.3l-31.8-0.2l-2.1,0v62.5l4.5,0l29,0.2
	c2.6,9.8,6.5,19.2,11.5,28l-24.7,24.3l44.2,44.4l24.7-24.3c4.5,2.6,9.1,4.9,13.7,6.8c4.7,2,9.5,3.6,14.4,5v35.3l62.8,0l0-34.9
	c9.9-2.6,19.3-6.5,28.2-11.5l24.7,24.6l44.7-43.9l-24.8-24.7c2.5-4.3,4.8-8.9,6.8-13.5C387.4,190,389.1,185.2,390.5,180.3
	L390.5,180.3z M275.5,232c-45.7,0-82.7-37-82.7-82.7s37-82.7,82.7-82.7s82.7,37,82.7,82.7S321.1,232,275.5,232z"/>
<path d="M67.5,282.8l-0.2-0.2h0.5C67.8,282.5,67.5,282.8,67.5,282.8z M77.7,64.4h45.5l-0.1-21.3l0-2.9h-99v24.2L77.7,64.4L77.7,64.4
	z M53.6,112.9h45.5L99,91.6l0-2.9H0v24.2L53.6,112.9L53.6,112.9z M53.6,161.3h45.5L99,140l0-2.9H0v24.2H53.6z M53.6,209.8h45.5
	L99,188.5l0-2.9H0v24.2H53.6z M77.5,258.3h45.5L123,237l0-2.9H24v24.2C24,258.3,77.5,258.3,77.5,258.3z"/>
</svg>
