<?xml version="1.0" encoding="utf-8"?>
<!-- Generator: Adobe Illustrator 26.4.1, SVG Export Plug-In . SVG Version: 6.00 Build 0)  -->
<svg version="1.1" id="uuid-3323b55a-a438-4849-9a28-012f7553a4d6"
	 xmlns="http://www.w3.org/2000/svg" xmlns:xlink="http://www.w3.org/1999/xlink" x="0px" y="0px" viewBox="0 0 400.1 265.4"
	 style="enable-background:new 0 0 400.1 265.4;" xml:space="preserve">
<path d="M145.1,132.3v-24.2H121v24.2H145.1z M279.1,132.3H255v-24.2h24.2V132.3z"/>
<path d="M303.1,71.8L279.1,0H120.9l-24,71.8H72.6v96.8h24.2V217H133v-48.4h134V217h36.3v-48.4h24.2V71.8H303.1L303.1,71.8z
	 M135.7,24.2h128.7l15.9,47.6H119.8L135.7,24.2L135.7,24.2z M303.3,144.4H96.8V96h206.6V144.4z"/>
<rect x="48.4" y="241.2" width="303.3" height="24.2"/>
<path d="M48.4,169H0v24.2h48.4V169z M400.1,169h-48.4v24.2h48.4V169z M48.4,119.8H0V144h48.4V119.8z M400.1,120.2h-48.4v24.2h48.4
	V120.2z"/>
</svg>
