<?xml version="1.0" encoding="utf-8"?>
<!-- Generator: Adobe Illustrator 26.4.1, SVG Export Plug-In . SVG Version: 6.00 Build 0)  -->
<svg version="1.1" id="uuid-75469986-a0a5-48f1-9502-bcee18bd5492"
	 xmlns="http://www.w3.org/2000/svg" xmlns:xlink="http://www.w3.org/1999/xlink" x="0px" y="0px" viewBox="0 0 259.1 309.7"
	 style="enable-background:new 0 0 259.1 309.7;" xml:space="preserve">
<path d="M219.1,282.4v-82.2h27.3v109.5H0V200.1h27.3v82.2H219.1L219.1,282.4z"/>
<path d="M57.4,192.3l134,28l5.7-26.9l-134-28L57.4,192.3z M75.2,128.5l124.1,57.8l11.3-24.8L86.5,103.3L75.2,128.5L75.2,128.5z
	 M109.5,67.5l105.3,87.6l17.4-20.9L126.9,46.6L109.5,67.5L109.5,67.5z M177.6,2.7l-22,16.3l81.5,109.9l22-16.3L177.6,2.7z
	 M54.6,254.7h136.8v-27.3H54.6V254.7z"/>
</svg>
