<?xml version="1.0" encoding="utf-8"?>
<!-- Generator: Adobe Illustrator 26.4.1, SVG Export Plug-In . SVG Version: 6.00 Build 0)  -->
<svg version="1.1" id="uuid-ccdbff72-da91-4116-8386-630099ae2268"
	 xmlns="http://www.w3.org/2000/svg" xmlns:xlink="http://www.w3.org/1999/xlink" x="0px" y="0px" viewBox="0 0 241.9 418.6"
	 style="enable-background:new 0 0 241.9 418.6;" xml:space="preserve">
<path d="M108.9,346h24.2v72.6h-24.2L108.9,346L108.9,346z M48.4,394.4h24.2V346H48.4V394.4z M169.4,394.4h24.2V346h-24.2V394.4z"/>
<path d="M241.9,244l-48.4-48.4v-49.3h-0.1l0.1,0L120.9,0L48.4,146.3l0.1,0h-0.1v49.3L0.1,244H0v77.8h241.9L241.9,244L241.9,244
	L241.9,244z M48.4,297.7H24.2v-43.6l24.2-24.2V297.7L48.4,297.7z M121,55l45.6,91.4H75.4L121,55L121,55z M169.4,297.7H72.6V170.6
	h96.8V297.7z M217.7,297.7h-24.2v-67.8l24.2,24.2V297.7L217.7,297.7z"/>
</svg>
