<?xml version="1.0" encoding="utf-8"?>
<!-- Generator: Adobe Illustrator 26.4.1, SVG Export Plug-In . SVG Version: 6.00 Build 0)  -->
<svg version="1.1" id="uuid-303e6a70-a71d-4ace-9c5d-d3f276bf2560"
	 xmlns="http://www.w3.org/2000/svg" xmlns:xlink="http://www.w3.org/1999/xlink" x="0px" y="0px" viewBox="0 0 360.7 347.8"
	 style="enable-background:new 0 0 360.7 347.8;" xml:space="preserve">
<path d="M285.1,81.2l-73.3,73.3l-73.3-73.3c-19-19-18.7-50.1,1.1-68.7c9-8.4,20.5-12.5,32-12.5c13,0,26.2,5.1,36,14.9l4.2,4.2
	L216,15c9.8-9.8,23-15,36-15c11.6,0,23.1,4.1,32,12.5C303.8,31.1,304.2,62.2,285.1,81.2L285.1,81.2z"/>
<path d="M356,191.8c-11.3-7.6-24.5-5.5-36.3,1.3c-11.8,6.8-79.3,64.5-79.3,64.5l-66.4,0c-3.1,0-6.4-3.5-6.4-6.6
	c0-3.6,3.2-6.4,6.4-6.4h40.7c14.2,0,30.2-9.3,30.2-25.8c0-17.5-15.9-25.8-30.2-25.8c-24.7,0-29.5,0.1-29.5,0.1
	c-9.9,0-19.9-0.6-27.6-4.7c-10.3-5.3-22.2-8.3-34.8-8.3c-21.3,0-40.3,8.5-53.4,21.9L0,270.4l77.3,77.3l25.8-25.8h130.4
	c13,0,25.5-4.8,35.2-13.4l88.3-99C362.3,204.7,362,195.9,356,191.8L356,191.8z"/>
</svg>
