<?xml version="1.0" encoding="utf-8"?>
<!-- Generator: Adobe Illustrator 26.4.1, SVG Export Plug-In . SVG Version: 6.00 Build 0)  -->
<svg version="1.1" id="uuid-4a7ed998-f7af-41d6-8de1-629b96eb455e"
	 xmlns="http://www.w3.org/2000/svg" xmlns:xlink="http://www.w3.org/1999/xlink" x="0px" y="0px" viewBox="0 0 356.1 355"
	 style="enable-background:new 0 0 356.1 355;" xml:space="preserve">
<path d="M307.3,230.7c2.3-5.5,4.3-11.1,5.9-16.8l1.8-6.4l41.1,0.1v-60.6l-40.7-0.1l-1.7-6.4c-3.1-11.5-7.6-22.5-13.5-32.8l-3.3-5.8
	l28.7-28.4l-42.8-43.1l-28.8,28.4l-5.7-3.3c-5.3-3.1-10.7-5.7-16-8c-5.5-2.3-11.2-4.3-17-5.8l-6.4-1.8l0.1-40h-61.3l0.2,39.7
	l-6.5,1.7c-11.6,3.1-22.7,7.6-33,13.4l-5.8,3.3L74.7,30.2L31.4,72.8l27.8,27.9l-3.4,5.8c-3,5.1-5.7,10.5-8,15.9
	c-2.2,5.2-4.2,10.9-5.8,16.7l-1.8,6.4L0,145.3v60.5l39.9,0.2l1.7,6.4c3.1,11.5,7.6,22.5,13.5,32.9l3.3,5.8L29,280l42.9,43l29.4-28.9
	l5.7,3.3c5.2,3,10.6,5.7,16.1,8c5.5,2.3,11.2,4.2,16.9,5.8l6.4,1.8v42l60.9,0l0-41.6l6.5-1.7c11.6-3.1,22.7-7.6,33.1-13.5l5.7-3.2
	l29.4,29.2l43.3-42.5L296,252.3l3.4-5.8C302.4,241.4,305,236.1,307.3,230.7L307.3,230.7z M178,289.4c-61.7,0-111.9-50.2-111.9-111.9
	S116.3,65.6,178,65.6S290,115.8,290,177.5S239.7,289.4,178,289.4L178,289.4z"/>
<rect x="123.6" y="134.7" width="28.7" height="28.7"/>
<rect x="203.8" y="134.7" width="28.7" height="28.7"/>
<path d="M178,245.8c-29.9,0-54.2-24.3-54.2-54.2h28.7c0,14.1,11.5,25.5,25.5,25.5c14.1,0,25.5-11.5,25.5-25.5h28.7
	C232.3,221.5,207.9,245.8,178,245.8L178,245.8z"/>
</svg>
