<?xml version="1.0" encoding="utf-8"?>
<!-- Generator: Adobe Illustrator 26.4.1, SVG Export Plug-In . SVG Version: 6.00 Build 0)  -->
<svg version="1.1" id="uuid-33f7f6e7-a73f-4925-b70c-7b969cfdb429"
	 xmlns="http://www.w3.org/2000/svg" xmlns:xlink="http://www.w3.org/1999/xlink" x="0px" y="0px" viewBox="0 0 274.5 430"
	 style="enable-background:new 0 0 274.5 430;" xml:space="preserve">
<style type="text/css">
	.st0{fill-rule:evenodd;clip-rule:evenodd;}
</style>
<path class="st0" d="M243.9,0l2.8,0.6l2.7,0.6l2.5,0.9l2.4,1.1l2.3,1.5l2.3,1.5l1.9,1.9l1.9,1.9l1.5,2.1l1.3,2.5l1.3,2.3l1,2.7
	l0.6,2.6l0.4,2.8l0.2,2.8l-0.2,2.8l-0.4,2.6l-0.6,2.7l-1,2.7l-1.3,2.5l-1.3,2.3l-1.5,2.1l-1.9,1.9l-1.9,1.9l-2.3,1.5l-2.3,1.5
	l-2.4,1.1l-2.5,0.9l-2.7,0.7l-2.8,0.4l-2.8,0.2l-2.8-0.2l-2.7-0.4l-2.7-0.7l-2.6-0.9l-2.5-1.1l-2.3-1.5l-2.1-1.5l-2.1-1.9l-1.7-1.9
	l-1.7-2.1l-1.3-2.3l-1.1-2.5l-1-2.7l-0.8-2.7l-0.4-2.6l-0.2-2.8l0.2-2.8l0.4-2.8l0.8-2.6l1-2.7l1.1-2.3l1.3-2.5l1.7-2.1l1.7-1.9
	l2.1-1.9l2.1-1.5l2.3-1.5l2.5-1.1l2.6-0.9l2.7-0.6l2.7-0.6C238.2,0,243.9,0,243.9,0z M216.1,69l-8.5,11.5v55.2h66.9V80.6L266.2,69
	H216.1L216.1,69z"/>
<g>
	<path d="M31.4,76.5h19.5c-8.9,8.8-17.7,17.6-26.5,26.3C15.8,94.3,7,85.6-1.8,76.8l0.2-0.3h19.5c0.5-18,7-33.1,20.4-45
		c10.5-9.3,22.9-14.3,37-15c29-1.3,53.9,17.9,60.8,44.8c7.3,28.2-6.2,55.2-28.9,67.7c-26.9,14.8-56.1,6.1-71.4-10l9.3-9.3
		c10.4,9.9,22.8,14.5,37.2,13.4c10.4-0.8,19.5-4.9,27.1-11.9c17.2-15.8,20-40.5,8.4-59.2c-11.7-18.9-34.2-26.6-54.6-19.8
		C41.8,39.4,31,59.4,31.4,76.5L31.4,76.5z"/>
	<path d="M71.4,49.9h10v1.5c0,8.5,0,17,0,25.4c0,0.9,0.2,1.5,1.1,2c6.3,3.7,12.6,7.4,18.9,11.2c1.1,0.6,2.1,1.3,3.3,2
		c-1.6,2.7-3.1,5.3-4.7,8c-2-1.2-4-2.3-5.9-3.5c-4.9-2.9-9.8-5.8-14.7-8.7c-2.4-1.4-4.9-2.8-7.3-4.3c-0.4-0.2-0.6-0.9-0.6-1.4
		c0-4.8,0-9.6,0-14.4c0-5.5,0-11,0-16.4L71.4,49.9L71.4,49.9z"/>
</g>
<polygon class="st0" points="85.1,357.8 81.5,358 77.9,358.5 74.5,359.4 71.1,360.8 68,362.3 65,364.1 62.3,366.2 59.6,368.4 
	57.4,370.9 55.3,373.8 53.5,376.8 51.9,379.9 50.8,383.3 49.9,386.7 49.2,390.3 49,393.9 49.2,397.5 49.9,401.1 50.8,404.7 
	51.9,407.9 53.5,411 55.3,414 57.4,416.9 59.6,419.4 62.3,421.7 65,423.9 68,425.7 71.1,427.1 74.5,428.4 77.9,429.3 81.5,429.8 
	85.1,430 88.9,429.8 92.3,429.3 95.9,428.4 99.1,427.1 102.3,425.7 105.4,423.9 108.1,421.7 110.6,419.4 113.1,416.9 115.1,414 
	116.9,411 118.5,407.9 119.6,404.7 120.5,401.1 121,397.5 121.2,393.9 121,390.3 120.5,386.7 119.6,383.3 118.5,379.9 116.9,376.8 
	115.1,373.8 113.1,370.9 110.6,368.4 108.1,366.2 105.4,364.1 102.3,362.3 99.1,360.8 95.9,359.4 92.3,358.5 88.9,358 "/>
<polygon class="st0" points="238.1,357.8 234.5,358 230.9,358.5 227.5,359.4 224.1,360.8 220.9,362.3 218,364.1 215,366.2 
	212.6,368.4 210.3,370.9 208.3,373.8 206.5,376.8 204.9,379.9 203.5,383.3 202.6,386.7 202.2,390.3 202,393.9 202.2,397.5 
	202.6,401.1 203.5,404.7 204.9,407.9 206.5,411 208.3,414 210.3,416.9 212.6,419.4 215,421.7 218,423.9 220.9,425.7 224.1,427.1 
	227.5,428.4 230.9,429.3 234.5,429.8 238.1,430 241.7,429.8 245.3,429.3 248.9,428.4 252.1,427.1 255.2,425.7 258.1,423.9 
	261.1,421.7 263.5,419.4 265.8,416.9 268.1,414 269.9,411 271.2,407.9 272.6,404.7 273.5,401.1 273.9,397.5 274.2,393.9 
	273.9,390.3 273.5,386.7 272.6,383.3 271.2,379.9 269.9,376.8 268.1,373.8 265.8,370.9 263.5,368.4 261.1,366.2 258.1,364.1 
	255.2,362.3 252.1,360.8 248.9,359.4 245.3,358.5 241.7,358 "/>
<polygon class="st0" points="248.9,216.6 248.9,162.2 227,162.2 227,194.7 95.9,194.7 95.9,162.2 74.3,162.2 74.3,216.6 
	150.5,216.6 150.5,260.1 150.8,260.1 150.8,281.6 74.3,281.6 74.3,335.9 96.1,335.9 96.1,303.4 227.2,303.4 227.2,335.9 
	248.9,335.9 248.9,281.6 172.6,281.6 172.6,238 172.4,238 172.4,216.6 "/>
</svg>
