<?xml version="1.0" encoding="utf-8"?>
<!-- Generator: Adobe Illustrator 26.4.1, SVG Export Plug-In . SVG Version: 6.00 Build 0)  -->
<svg version="1.1" id="uuid-45a7c7d0-049c-47f8-9951-9b46a7696dc1"
	 xmlns="http://www.w3.org/2000/svg" xmlns:xlink="http://www.w3.org/1999/xlink" x="0px" y="0px" viewBox="0 0 256.4 349.3"
	 style="enable-background:new 0 0 256.4 349.3;" xml:space="preserve">
<path d="M128.2,0C57.5,0,0,57.5,0,128.2c0,48.3,26.9,90.5,66.5,112.3v59.2H91v49.6h74.4v-49.6h24.5v-59.2
	c39.6-21.8,66.5-64,66.5-112.3C256.4,57.5,198.9,0,128.2,0L128.2,0z M140.6,324.5h-24.8v-24.8h24.8V324.5z M189.9,211.1
	c-7.5,5.6-15.9,10.3-24.8,13.7v50.2H91.3v-50.2c-8.9-3.4-17.3-8.1-24.8-13.7c-25.3-18.9-41.6-49-41.6-82.9
	c0-57,46.4-103.4,103.4-103.4s103.4,46.4,103.4,103.4C231.6,162.1,215.2,192.2,189.9,211.1z"/>
<polygon points="169.1,182.1 161.2,136.1 194.6,103.6 148.4,96.9 127.8,55 107.2,96.9 61,103.6 94.4,136.1 86.5,182.1 127.8,160.4 
	"/>
</svg>
