<?xml version="1.0" encoding="utf-8"?>
<!-- Generator: Adobe Illustrator 26.4.1, SVG Export Plug-In . SVG Version: 6.00 Build 0)  -->
<svg version="1.1" id="uuid-d7965fc7-024a-4dc1-821a-0e41c2c33013"
	 xmlns="http://www.w3.org/2000/svg" xmlns:xlink="http://www.w3.org/1999/xlink" x="0px" y="0px" viewBox="0 0 308.2 323.8"
	 style="enable-background:new 0 0 308.2 323.8;" xml:space="preserve">
<path d="M131.7,251.7L131.7,251.7L131.7,251.7L131.7,251.7l-10.4-17.9L111,215.9l0,0l-6.9-12H48.8l0,0h0l0,0h0l0,0h-14l-6.9,12
	l0.1,0.2l-10.3,17.9L7.1,251.8H6.9l-6.9,12l7,12.1h0l0,0h0l0,0h0l10.3,17.9l10.3,17.9l0,0.1l6.9,11.9H90l0,0h14l27.7-47.9h0l7-12.1
	L131.7,251.7L131.7,251.7z M90.1,299.7H48.8l0,0h0l0,0h0l0,0h0l-20.7-35.8L48.6,228H90l0,0h0l0,0h0l0,0h0l20.7,35.8L90.1,299.7
	L90.1,299.7z"/>
<polygon points="131.7,47.9 131.7,47.9 131.7,47.9 131.6,47.9 121.3,30 111,12.1 111,12.1 104.1,0.1 48.8,0.1 48.7,0 48.7,0 48.7,0 
	48.7,0 48.6,0 34.7,0 27.7,12 27.8,12.2 17.5,30.1 7.1,48 6.9,48 0,60 7,72.1 7,72.1 7,72.2 7.1,72.2 7.1,72.2 7.1,72.2 17.5,90.1 
	27.8,108 27.8,108.1 34.7,120.1 90,120.1 90,120.1 104,120.1 131.7,72.1 131.7,72.1 138.7,60.1 "/>
<path d="M301.2,144L301.2,144L301.2,144L301.2,144l-10.4-17.9l-10.3-17.9l0,0l-6.9-12h-55.3l0,0h0l0,0h0l0,0h-14l-6.9,12l0.1,0.2
	l-10.3,17.9L176.6,144h-0.2l-6.9,12l7,12.1h0l0,0h0l0,0h0l10.3,17.9l10.3,17.9l0,0.1l6.9,11.9h55.3l0,0h14l27.7-47.9h0l7-12.1
	L301.2,144L301.2,144z M259.6,192h-41.4l0,0h0l0,0h0l0,0h0l-20.7-35.8l20.7-35.8h41.4l0,0h0l0,0h0l0,0h0l20.7,35.8L259.6,192
	L259.6,192z"/>
</svg>
