<?xml version="1.0" encoding="utf-8"?>
<!-- Generator: Adobe Illustrator 26.4.1, SVG Export Plug-In . SVG Version: 6.00 Build 0)  -->
<svg version="1.1" id="uuid-e2fa5645-6cbe-4d24-8842-d3217370da93"
	 xmlns="http://www.w3.org/2000/svg" xmlns:xlink="http://www.w3.org/1999/xlink" x="0px" y="0px" viewBox="0 0 336 336"
	 style="enable-background:new 0 0 336 336;" xml:space="preserve">
<path d="M260.3,224.5c16.6-23.8,25.5-52,25.5-81.6c0-38.2-14.9-74.1-41.9-101.1C217,14.9,181.1,0,142.9,0S68.9,14.9,41.9,41.9
	C14.9,68.9,0,104.7,0,142.9S14.9,217,41.9,244c27,27,62.9,41.9,101.1,41.9c29.6,0,57.8-8.9,81.6-25.5l75.7,75.7l35.8-35.8
	L260.3,224.5L260.3,224.5z M142.9,260.5c-65,0-117.6-52.7-117.6-117.6S78,25.3,142.9,25.3S260.5,78,260.5,142.9
	S207.9,260.5,142.9,260.5z"/>
<path d="M111,193.2l38.2-100.6h27.1l-38.2,100.6H111L111,193.2z M182.6,149.5l20.6-12.4l-20.6-12.4V94.9l51.8,33v18.3l-51.8,33
	V149.5z M51.4,146.2V128l51.8-33v29.8l-20.6,12.4l20.6,12.4v29.8L51.4,146.2L51.4,146.2z"/>
</svg>
