<?xml version="1.0" encoding="utf-8"?>
<!-- Generator: Adobe Illustrator 26.4.1, SVG Export Plug-In . SVG Version: 6.00 Build 0)  -->
<svg version="1.1" id="uuid-5211d0c3-10c2-4ddd-a43d-81fb05bbce6b"
	 xmlns="http://www.w3.org/2000/svg" xmlns:xlink="http://www.w3.org/1999/xlink" x="0px" y="0px" viewBox="0 0 370.5 338.6"
	 style="enable-background:new 0 0 370.5 338.6;" xml:space="preserve">
<path d="M310.1,33.3L310.1,33.3L310.1,33.3v281.1h-96.4c-5,14.1-18.4,24.2-34.2,24.2h0c-20,0-36.3-16.2-36.3-36.3l0,0
	c0-20,16.2-36.3,36.3-36.3h0c15.8,0,29.2,10.1,34.2,24.2h72.2V266h-36.3V113.5h36.3V43.3l-19.1-19.1H103.3L84.2,43.3v70.2h36.3V266
	H60V33.2h0.1L93.2,0h183.6v0L310.1,33.3L310.1,33.3z"/>
<path d="M0,135.1v104.1h35.8V135.1C35.8,135.1,0,135.1,0,135.1z M334.3,135.1v104.1h36.3V135.1H334.3z"/>
</svg>
