<?xml version="1.0" encoding="utf-8"?>
<!-- Generator: Adobe Illustrator 26.4.1, SVG Export Plug-In . SVG Version: 6.00 Build 0)  -->
<svg version="1.1" id="uuid-d0a311f8-7e14-4684-b468-1a1d80e421c2"
	 xmlns="http://www.w3.org/2000/svg" xmlns:xlink="http://www.w3.org/1999/xlink" x="0px" y="0px" viewBox="0 0 240.3 397.7"
	 style="enable-background:new 0 0 240.3 397.7;" xml:space="preserve">
<path d="M57.4,53.2c5.1-19.8,23.1-34.3,44.4-34.3c3.4,0,6.7,0.4,9.9,1.1C118.6,10,129.2,3,141.4,0.8c2.7-0.5,5.4-0.8,8.2-0.8
	c6.7,0,13.1,1.5,18.8,4.1c14.3,6.4,24.7,19.9,26.7,36c19.6,2.6,35.7,16.1,42.1,34.2c1.9,5.4,3,11.2,3,17.3c0,2.5-0.2,4.9-0.6,7.3
	c-3.5,25.2-25.2,44.7-51.4,44.7H69c-25.3,0-45.9-20.5-45.9-45.9C23.1,76.2,37.6,58.3,57.4,53.2L57.4,53.2z"/>
<path d="M240.3,167.7v111.1h0l-36.6,37.5v81.4H100.6v-60H27.2v-60H0v-24.2l0,0l26.7-61.7h27l-25,61.7h22.8v60h73.3v60h54.7v-67.1
	l36.6-37.4V167.7H240.3z M112.9,179.8H88.7V204h24.2V179.8z"/>
</svg>
