<?xml version="1.0" encoding="utf-8"?>
<!-- Generator: Adobe Illustrator 26.4.1, SVG Export Plug-In . SVG Version: 6.00 Build 0)  -->
<svg version="1.1" id="uuid-5957d0cc-eb7d-4736-9c28-e99b0aecf02a"
	 xmlns="http://www.w3.org/2000/svg" xmlns:xlink="http://www.w3.org/1999/xlink" x="0px" y="0px" viewBox="0 0 374.7 371"
	 style="enable-background:new 0 0 374.7 371;" xml:space="preserve">
<path d="M374.7,78.1l-23.7,23.7l-23.7-23.7l23.7-23.7L374.7,78.1z M288.6,165.3l-20.1-20.1l-41.1,41.1c-2.9-0.9-6-1.4-9.3-1.4
	c-17,0-30.8,13.8-30.8,30.8s13.8,30.8,30.8,30.8s30.8-13.8,30.8-30.8c0-3.2-0.5-6.4-1.4-9.3L288.6,165.3L288.6,165.3z"/>
<path d="M154.1,168.3H30.8v-28.4h123.3L154.1,168.3L154.1,168.3z M123.3,202.7H0v28.4h123.3L123.3,202.7L123.3,202.7z M154.1,265.5
	H30.8V294h123.3L154.1,265.5L154.1,265.5z"/>
<path d="M248.9,40.3h-64V0h64V40.3z M216.9,62.8c-45.3,0-86.2,19.7-114.4,51h38.6c21.2-15.6,47.4-24.9,75.7-24.9
	c70.6,0,128,57.4,128,128s-57.4,128-128,128c-25.3,0-48.9-7.4-68.8-20.2H107c28,28.5,66.9,46.2,109.9,46.2
	c85,0,154.1-69.1,154.1-154.1S301.9,62.8,216.9,62.8L216.9,62.8z"/>
</svg>
