<?xml version="1.0" encoding="utf-8"?>
<!-- Generator: Adobe Illustrator 26.4.1, SVG Export Plug-In . SVG Version: 6.00 Build 0)  -->
<svg version="1.1" id="uuid-a1f1472d-d9f1-4562-96e8-c343f600aa55"
	 xmlns="http://www.w3.org/2000/svg" xmlns:xlink="http://www.w3.org/1999/xlink" x="0px" y="0px" viewBox="0 0 339.1 348.7"
	 style="enable-background:new 0 0 339.1 348.7;" xml:space="preserve">
<path d="M249,263.7l89.8,0.2L339.1,26H225.8V0H113.2v26H0v237.7h90v26h15.2l-20.6,58.9h27.6l20.6-58.9h73.5l20.6,58.9h27.6
	l-20.6-58.9H249L249,263.7L249,263.7z M26.3,237.7V52.1h286.5v185.6L26.3,237.7L26.3,237.7z"/>
<path d="M80.1,210.6c-14.8,0-26.9-12.1-26.9-26.9s12.1-26.9,26.9-26.9s26.9,12.1,26.9,26.9C107,198.5,95,210.6,80.1,210.6z"/>
<path d="M259,132.5c-14.8,0-26.9-12.1-26.9-26.9s12.1-26.9,26.9-26.9s26.9,12.1,26.9,26.9S273.8,132.5,259,132.5z"/>
<polygon points="215,140.4 204.5,116.6 159.9,136.4 154.6,124.6 124.1,166.6 175.7,172 170.4,160.2 "/>
</svg>
