<?xml version="1.0" encoding="utf-8"?>
<!-- Generator: Adobe Illustrator 26.4.1, SVG Export Plug-In . SVG Version: 6.00 Build 0)  -->
<svg version="1.1" id="uuid-4f42a4ed-fce1-41e1-990b-41eda1479df2"
	 xmlns="http://www.w3.org/2000/svg" xmlns:xlink="http://www.w3.org/1999/xlink" x="0px" y="0px" viewBox="0 0 336.9 346"
	 style="enable-background:new 0 0 336.9 346;" xml:space="preserve">
<path d="M24.8,79.9c0-20,16.3-36.2,36.2-36.2s36.2,16.3,36.2,36.2S81,116.1,61,116.1S24.8,99.9,24.8,79.9z M203.3,147.7l-8.8-23.3
	L135,146.1l-41.3-17.6H74.9L61,147.2l-14-18.7H28.4L0,143.5l2.7,102.3l16.1,3.2l6.6,97h71.3l7.4-185.3l29.7,12.3L203.3,147.7
	L203.3,147.7z"/>
<polygon points="336.9,228.8 121.5,228.8 121.5,202 310.2,202 310.2,26.7 54.3,26.7 54.3,0 336.9,0 "/>
</svg>
