<?xml version="1.0" encoding="utf-8"?>
<!-- Generator: Adobe Illustrator 26.4.1, SVG Export Plug-In . SVG Version: 6.00 Build 0)  -->
<svg version="1.1" id="uuid-20f72860-c3ad-4a85-9452-04cf16813c2d"
	 xmlns="http://www.w3.org/2000/svg" xmlns:xlink="http://www.w3.org/1999/xlink" x="0px" y="0px" viewBox="0 0 254.3 315.7"
	 style="enable-background:new 0 0 254.3 315.7;" xml:space="preserve">
<path d="M73.4,58c0-32,26-58,58-58s58,26,58,58s-26,58-58,58S73.4,90,73.4,58z M254.3,197.1l-12,118.6h-222l-12-118.6h53.1v-24.2
	L0,127.7h0V0h37v109l48.2,35.4h98.4l17.6,24v28.8L254.3,197.1L254.3,197.1z M153.1,256.4c0-12-9.7-21.7-21.7-21.7
	s-21.7,9.7-21.7,21.7s9.7,21.7,21.7,21.7C143.4,278.1,153.1,268.4,153.1,256.4z"/>
</svg>
