<?xml version="1.0" encoding="utf-8"?>
<!-- Generator: Adobe Illustrator 26.4.1, SVG Export Plug-In . SVG Version: 6.00 Build 0)  -->
<svg version="1.1" id="uuid-4319f28a-0a3e-46ec-8269-5fb71405b30b"
	 xmlns="http://www.w3.org/2000/svg" xmlns:xlink="http://www.w3.org/1999/xlink" x="0px" y="0px" viewBox="0 0 321.2 321.2"
	 style="enable-background:new 0 0 321.2 321.2;" xml:space="preserve">
<path d="M248.9,214.6c15.9-22.7,24.4-49.7,24.4-78c0-36.5-14.2-70.8-40-96.6c-25.8-25.8-60.1-40-96.6-40S65.8,14.2,40,40
	C14.2,65.8,0,100.1,0,136.6s14.2,70.8,40,96.6s60.1,40,96.6,40c28.3,0,55.3-8.6,78-24.4l72.3,72.3l34.2-34.2L248.9,214.6
	L248.9,214.6z M136.6,249.1c-62.1,0-112.4-50.3-112.4-112.4S74.5,24.2,136.6,24.2s112.5,50.3,112.5,112.4S198.7,249.1,136.6,249.1z"
	/>
<path d="M214.1,127.9c-1.4-1.3-34.9-32.9-77.5-32.9s-76.1,31.5-77.5,32.9l-9.2,8.8l9.2,8.8c1.4,1.3,34.9,32.9,77.5,32.9
	s76.1-31.5,77.5-32.9l9.2-8.8L214.1,127.9z M134,154c-19.1-0.8-36.3-10.1-46.9-17.4c10.7-7.3,27.8-16.6,46.9-17.4
	c-8.5,1.3-15,8.5-15,17.4S125.6,152.8,134,154L134,154z M139.3,154c8.5-1.3,15-8.5,15-17.4s-6.5-16.1-15-17.4
	c19.1,0.8,36.3,10.1,46.9,17.4C175.5,143.9,158.3,153.2,139.3,154L139.3,154z"/>
</svg>
