<?xml version="1.0" encoding="utf-8"?>
<!-- Generator: Adobe Illustrator 26.4.1, SVG Export Plug-In . SVG Version: 6.00 Build 0)  -->
<svg version="1.1" id="uuid-e7349cc8-e67e-4585-83b3-b6d35be59dac"
	 xmlns="http://www.w3.org/2000/svg" xmlns:xlink="http://www.w3.org/1999/xlink" x="0px" y="0px" viewBox="0 0 318 324"
	 style="enable-background:new 0 0 318 324;" xml:space="preserve">
<polyline points="138.1,114.4 173.3,134.7 138.1,155 138.1,114.4 "/>
<polygon points="113.9,72.5 113.9,114.4 113.9,155 113.9,196.9 150.2,176 185.4,155.7 221.6,134.7 185.4,113.8 150.2,93.5 
	113.9,72.5 "/>
<path d="M232.9,245l83.5,0.2l0.2-221H211.3V0H106.7v24.2H1.5V245h83.7v24.2h14.1L80.1,324h25.6l19.2-54.8h68.3l19.2,54.8h25.6
	l-19.2-54.8h14.1L232.9,245L232.9,245z M25.9,220.9V48.4h266.2v172.5H25.9L25.9,220.9z"/>
</svg>
