<?xml version="1.0" encoding="utf-8"?>
<!-- Generator: Adobe Illustrator 26.4.1, SVG Export Plug-In . SVG Version: 6.00 Build 0)  -->
<svg version="1.1" id="uuid-fcd48eaf-1c21-42db-b47b-cb7cde8e6cca"
	 xmlns="http://www.w3.org/2000/svg" xmlns:xlink="http://www.w3.org/1999/xlink" x="0px" y="0px" viewBox="0 0 336.5 270.1"
	 style="enable-background:new 0 0 336.5 270.1;" xml:space="preserve">
<path d="M108.7,270.1c125.4,0,194-103.9,194-194c0-3-0.1-5.9-0.2-8.8c13.3-9.6,24.9-21.6,34-35.3c-12.2,5.4-25.4,9.1-39.2,10.7
	c14.1-8.4,24.9-21.8,30-37.7c-13.2,7.8-27.8,13.5-43.3,16.5C271.6,8.3,253.9,0,234.3,0c-37.6,0-68.2,30.5-68.2,68.2
	c0,5.4,0.6,10.6,1.8,15.5C111.2,80.9,61,53.7,27.3,12.5c-5.9,10.1-9.2,21.8-9.2,34.3c0,23.7,12,44.5,30.3,56.7
	c-11.2-0.3-21.7-3.4-30.9-8.5c0,0.3,0,0.6,0,0.9c0,33,23.5,60.6,54.7,66.8c-5.7,1.6-11.8,2.4-18,2.4c-4.4,0-8.7-0.4-12.8-1.2
	c8.7,27.1,33.8,46.8,63.7,47.4c-23.3,18.3-52.7,29.2-84.7,29.2c-5.5,0-10.9-0.3-16.3-0.9C34.4,258.8,70.2,270.1,108.7,270.1"/>
</svg>
