<?xml version="1.0" encoding="utf-8"?>
<!-- Generator: Adobe Illustrator 26.4.1, SVG Export Plug-In . SVG Version: 6.00 Build 0)  -->
<svg version="1.1" id="uuid-90db0800-7b6d-4327-b31f-18eef99ce3cf"
	 xmlns="http://www.w3.org/2000/svg" xmlns:xlink="http://www.w3.org/1999/xlink" x="0px" y="0px" viewBox="0 0 123.7 297.9"
	 style="enable-background:new 0 0 123.7 297.9;" xml:space="preserve">
<path d="M44.8,19.6V0h33.9v19.6c29.4,6,44.5,28.7,44.5,64.5v8.3H84v-11c0-18.9-7.5-26-20.7-26s-20.7,7.2-20.7,26
	c0,54.3,81.1,57,81.1,132.4c0,35.8-15.5,58.8-44.9,64.9v19.2H44.9v-19.2c-29.8-6-44.9-29-44.9-64.9v-18.1h39.2v20.7
	c0,18.9,8.3,25.6,21.5,25.6s21.4-6.7,21.4-25.6C82.1,162.1,1,159.4,1,84C1.1,48.6,15.8,26,44.8,19.6L44.8,19.6z"/>
</svg>
