<?xml version="1.0" encoding="utf-8"?>
<!-- Generator: Adobe Illustrator 26.4.1, SVG Export Plug-In . SVG Version: 6.00 Build 0)  -->
<svg version="1.1" id="uuid-b73eb257-e60f-4a27-8f4a-534002d7921c"
	 xmlns="http://www.w3.org/2000/svg" xmlns:xlink="http://www.w3.org/1999/xlink" x="0px" y="0px" viewBox="0 0 315.3 296.4"
	 style="enable-background:new 0 0 315.3 296.4;" xml:space="preserve">
<polygon points="134.1,188.7 134.1,107.7 204.2,148.2 "/>
<path d="M-0.3,0v296.4h315.6V0H-0.3z M204.2,24.2h28.1v24.2h-28.1V24.2z M143.4,24.2h28.1v24.2h-28.1V24.2z M82.6,24.2h28.1v24.2
	H82.6V24.2z M23.9,24.2h26v24.2h-26V24.2z M49.9,272.2h-26V248h26V272.2z M110.7,272.2H82.6V248h28.1V272.2z M171.6,272.2h-28.1V248
	h28.1V272.2z M232.4,272.2h-28.1V248h28.1V272.2z M291.1,272.2h-26V248h26V272.2z M291.1,223.8H23.9V72.6h267.2V223.8z M291.1,48.4
	h-26V24.2h26V48.4z"/>
</svg>
