<?xml version="1.0" encoding="utf-8"?>
<!-- Generator: Adobe Illustrator 26.4.1, SVG Export Plug-In . SVG Version: 6.00 Build 0)  -->
<svg version="1.1" id="uuid-676d2ee9-0080-44b3-a0cd-6bc74b687d63"
	 xmlns="http://www.w3.org/2000/svg" xmlns:xlink="http://www.w3.org/1999/xlink" x="0px" y="0px" viewBox="0 0 407.5 259.9"
	 style="enable-background:new 0 0 407.5 259.9;" xml:space="preserve">
<polyline points="179.5,85.7 214.7,106 179.5,126.3 179.5,85.7 "/>
<polygon points="155.4,43.8 155.4,85.7 155.4,126.3 155.4,168.2 191.6,147.3 226.8,126.9 263.1,106 226.8,85 191.6,64.7 155.4,43.8 
	"/>
<path d="M390.6,187.8h-36.7V16.9L336.9,0H70.3L53.4,16.9l-0.1,0.1v7.3h0.1v163.6H17l0.1,0.1L0,205l7,7l23.7,23.7l24.2,24.2h297.4
	l24.2-24.2l23.7-23.7l7.3-7.3L390.6,187.8L390.6,187.8z M77.6,26.9v-2.7h252v163.6h-252V26.9z M342.3,235.7H64.9L41.2,212H366
	L342.3,235.7L342.3,235.7z"/>
</svg>
