<?xml version="1.0" encoding="utf-8"?>
<!-- Generator: Adobe Illustrator 26.4.1, SVG Export Plug-In . SVG Version: 6.00 Build 0)  -->
<svg version="1.1" id="uuid-86249af7-ac25-4fb3-ac4f-540feb64263f"
	 xmlns="http://www.w3.org/2000/svg" xmlns:xlink="http://www.w3.org/1999/xlink" x="0px" y="0px" viewBox="0 0 311.4 311"
	 style="enable-background:new 0 0 311.4 311;" xml:space="preserve">
<path d="M0.4,0h187.4c26.9,0,48.6,21.8,48.6,48.6v196.8l-24.3,0.4V48.6c0-13.4-10.9-24.3-24.3-24.3h-5.1c-0.7,0-1.1,0.7-0.7,1.3
	c3.7,6.9,5.8,14.7,5.8,23v196.8l-24.3,0.4V48.6c0-13.4-10.9-24.3-24.3-24.3h-5.1c-0.7,0-1.1,0.7-0.7,1.3c3.7,6.9,5.8,14.7,5.8,23
	v196.6l-24.3,0.4v-197c0-13.4-10.9-24.3-24.3-24.3h-5.1c-0.7,0-1.1,0.7-0.7,1.3c3.7,6.9,5.8,14.7,5.8,23v196.8l-24.3,0.4V48.6
	c0-13.4-10.9-24.3-24.3-24.3H0L0.4,0L0.4,0z M250.9,24.3H311L311.4,0h-60.1L250.9,24.3z"/>
<path d="M293.8,274.6c-5.2-6.2-13-9.8-21.4-9.8s-16.2,3.6-21.4,9.8c-6.4,7.7-12.8,12.1-17.4,12.1s-11-4.4-17.4-12.1
	c-5.2-6.2-13-9.8-21.4-9.8s-16.2,3.6-21.4,9.8c-6.4,7.7-12.8,12.1-17.4,12.1s-11-4.4-17.4-12.1c-5.2-6.2-13-9.8-21.4-9.8
	s-16.2,3.6-21.4,9.8c-6.4,7.7-12.8,12.1-17.4,12.1s-11-4.4-17.4-12.1c-5.2-6.2-13-9.8-21.4-9.8s-16.2,3.6-21.4,9.8
	c-6.1,7.3-12.1,11.6-16.7,12c-0.4,0-0.7,0.4-0.7,0.8v22.6c0,0.5,0.4,0.9,0.9,0.9c12.1-0.3,24-7.3,35.2-20.8c0.6-0.7,1.6-1.1,2.8-1.1
	s2.2,0.4,2.8,1.1C53.4,304,65.5,311,78,311s24.6-7,36.1-20.8c0.6-0.7,1.6-1.1,2.8-1.1s2.2,0.4,2.8,1.1
	c11.5,13.8,23.7,20.8,36.1,20.8s24.6-7,36.1-20.8c0.6-0.7,1.6-1.1,2.8-1.1s2.2,0.4,2.8,1.1C208.9,304,221,311,233.5,311
	s24.6-7,36.1-20.8c0.6-0.7,1.6-1.1,2.8-1.1s2.2,0.4,2.8,1.1c11.2,13.5,23.1,20.4,35.2,20.8c0.5,0,0.9-0.4,0.9-0.9v-22.6
	c0-0.4-0.3-0.8-0.7-0.8C305.9,286.2,299.8,281.9,293.8,274.6L293.8,274.6z"/>
</svg>
