<?xml version="1.0" encoding="utf-8"?>
<!-- Generator: Adobe Illustrator 26.4.1, SVG Export Plug-In . SVG Version: 6.00 Build 0)  -->
<svg version="1.1" id="uuid-2d11aa04-e24c-464e-be7e-dd544227789f"
	 xmlns="http://www.w3.org/2000/svg" xmlns:xlink="http://www.w3.org/1999/xlink" x="0px" y="0px" viewBox="0 0 332 331.3"
	 style="enable-background:new 0 0 332 331.3;" xml:space="preserve">
<path d="M69.1,226.2l4,0l-16.3,16.1l-38.9-39l21.7-21.4c-4.4-7.7-7.8-16-10.1-24.6L0,157.1v-54.9l29.8,0.2c1.2-4.3,2.7-8.6,4.4-12.5
	c1.7-4,3.7-8,6-11.9L19.6,57.3l39.2-38.6l20.6,20.6c7.8-4.4,16-7.7,24.7-10L103.9,0h55.5l-0.1,29.6c4.4,1.2,8.6,2.7,12.7,4.3
	c4.1,1.7,8.1,3.7,12,5.9l21.3-21l38.8,39l-15.6,15.4l0-4.3h-55.5l0,2.4c-11.8-8.2-26-13-41.5-13c-40.1,0-72.7,32.5-72.7,72.7
	c0,14.9,4.5,28.7,12.1,40.2l-1.9,0L69.1,226.2L69.1,226.2z"/>
<path d="M301.6,227.4l30.4,0.1v-54.9l-30.1-0.1c-2.3-8.6-5.7-16.8-10.1-24.5l21.2-21l-38.8-39L253,109c-3.9-2.2-7.9-4.3-12-5.9
	c-4.1-1.7-8.3-3.2-12.7-4.3l0.1-25.3l0-4.3h-55.5l0,2.4l0.1,27c-8.6,2.3-16.9,5.6-24.7,10l-20.6-20.6l-39.2,38.6l20.6,20.7
	c-2.3,3.9-4.2,7.8-6,11.9c-1.7,4-3.2,8.2-4.4,12.5l-27.9-0.2l-1.9,0v54.9l4,0l25.5,0.2c2.3,8.6,5.7,16.9,10.1,24.6l-21.7,21.4
	l38.9,39l21.7-21.4c4,2.3,8,4.3,12,6c4.1,1.7,8.4,3.2,12.7,4.3v31l55.2,0l0-30.7c8.7-2.3,17-5.7,24.8-10.1l21.7,21.6l39.3-38.5
	l-21.8-21.7c2.2-3.8,4.2-7.8,5.9-11.9C298.9,235.9,300.4,231.7,301.6,227.4L301.6,227.4z M200.5,272.9c-40.1,0-72.7-32.5-72.7-72.7
	s32.5-72.7,72.7-72.7s72.7,32.5,72.7,72.7S240.7,272.9,200.5,272.9L200.5,272.9z"/>
</svg>
