<?xml version="1.0" encoding="utf-8"?>
<!-- Generator: Adobe Illustrator 26.4.1, SVG Export Plug-In . SVG Version: 6.00 Build 0)  -->
<svg version="1.1" id="uuid-3bced98e-5dc5-4bc5-9e1a-93081bc0a591"
	 xmlns="http://www.w3.org/2000/svg" xmlns:xlink="http://www.w3.org/1999/xlink" x="0px" y="0px" viewBox="0 0 376.2 263.4"
	 style="enable-background:new 0 0 376.2 263.4;" xml:space="preserve">
<path d="M368.5,41.2c-4.3-16.1-17-28.8-33.2-33.2C305.9,0,188.1,0,188.1,0S70.3,0,40.9,7.7C25.1,12.1,12.1,25.1,7.7,41.2
	C0,70.7,0,131.7,0,131.7s0,61.4,7.7,90.5c4.3,16.1,17,28.8,33.2,33.2c29.7,8.1,147.2,8.1,147.2,8.1s117.8,0,147.2-7.7
	c16.1-4.3,28.8-17,33.2-33.2c7.7-29.4,7.7-90.5,7.7-90.5S376.5,70.7,368.5,41.2L368.5,41.2z M150.6,188.1V75.3l97.9,56.4
	L150.6,188.1L150.6,188.1z"/>
</svg>
